<?xml version="1.0" encoding="utf-8"?>
<!-- Generator: Adobe Illustrator 27.6.1, SVG Export Plug-In . SVG Version: 6.00 Build 0)  -->
<svg version="1.1" id="レイヤー_1" xmlns="http://www.w3.org/2000/svg" xmlns:xlink="http://www.w3.org/1999/xlink" x="0px"
	 y="0px" viewBox="0 0 402.05 300.5" style="enable-background:new 0 0 402.05 300.5;" xml:space="preserve">
<style type="text/css">
	.st0{clip-path:url(#SVGID_00000047781079659433115780000016678192576988721062_);fill:none;stroke:#B8B8B8;stroke-width:0.5;}
	.st1{clip-path:url(#SVGID_00000047781079659433115780000016678192576988721062_);fill:none;stroke:#000000;stroke-dasharray:1,2;}
	
		.st2{clip-path:url(#SVGID_00000047781079659433115780000016678192576988721062_);fill:none;stroke:#D5D5D5;stroke-width:2;stroke-linecap:square;}
	.st3{clip-path:url(#SVGID_00000075870671385817822530000002345154209158062513_);}
	.st4{clip-path:url(#SVGID_00000070799184162847976000000001637966856542625425_);}
	.st5{clip-path:url(#SVGID_00000178162779788011740440000005604075859684117424_);}
	.st6{clip-path:url(#SVGID_00000134209577578677522290000017418779604244343959_);}
	.st7{clip-path:url(#SVGID_00000183927024290018814780000002853411670772371631_);}
	
		.st8{clip-path:url(#SVGID_00000146473866102362735870000015606811092147329191_);fill:none;stroke:#D5D5D5;stroke-width:2;stroke-linecap:square;}
	.st9{clip-path:url(#SVGID_00000016762042582971685580000016441588298979189144_);}
	.st10{clip-path:url(#SVGID_00000067949675650732310500000002455322454625760673_);}
	.st11{clip-path:url(#SVGID_00000006691323945952771370000009575114333529579923_);enable-background:new    ;}
	.st12{clip-path:url(#SVGID_00000183928054659268194070000007640750166941615025_);}
	.st13{clip-path:url(#SVGID_00000091712150397366026000000014201897134249133197_);fill:#61D836;}
	.st14{clip-path:url(#SVGID_00000044874056376365140000000006828265334732118450_);enable-background:new    ;}
	.st15{clip-path:url(#SVGID_00000049915059653146446840000006307673889788246947_);}
	.st16{clip-path:url(#SVGID_00000156583763302975315270000012041449296997299385_);fill:#61D836;}
	.st17{clip-path:url(#SVGID_00000139994759156350231240000016636308852720999860_);enable-background:new    ;}
	.st18{clip-path:url(#SVGID_00000113327690219756882500000010570865198784043955_);}
	.st19{clip-path:url(#SVGID_00000140695679198418863750000009400749537196880256_);fill:#00A2FF;}
	.st20{clip-path:url(#SVGID_00000119096758065791255460000016629648645133563822_);enable-background:new    ;}
	.st21{clip-path:url(#SVGID_00000079464829184875152060000003201221400660034204_);}
	.st22{clip-path:url(#SVGID_00000061472174541727457120000004554795975553922962_);fill:#00A2FF;}
	.st23{clip-path:url(#SVGID_00000013158009473699410790000017779021105273460132_);enable-background:new    ;}
	.st24{clip-path:url(#SVGID_00000076604810622055439730000007783678705518975919_);}
	.st25{clip-path:url(#SVGID_00000143586525986839115450000001068382429990462089_);}
	.st26{fill:#FFFFFF;}
	.st27{clip-path:url(#SVGID_00000129907047706933781240000010714814673946888849_);enable-background:new    ;}
	.st28{clip-path:url(#SVGID_00000158727872030072865780000000610937431059735948_);}
	.st29{clip-path:url(#SVGID_00000173878658449706312100000005410793141551539371_);}
	.st30{clip-path:url(#SVGID_00000134936400188713070320000008853899309607095195_);enable-background:new    ;}
	.st31{clip-path:url(#SVGID_00000091013748019970272770000011761509792362318730_);}
	.st32{clip-path:url(#SVGID_00000050656686042779315430000002480615365302170276_);}
	.st33{clip-path:url(#SVGID_00000002383205873689330790000003340559245328069532_);enable-background:new    ;}
	.st34{clip-path:url(#SVGID_00000101785251964200119000000007534098562073914295_);}
	.st35{clip-path:url(#SVGID_00000062157024113785137520000018205060690710956429_);}
	.st36{clip-path:url(#SVGID_00000002383205873689330790000003340559245328069532_);fill:#00A2FF;}
	.st37{clip-path:url(#SVGID_00000002383205873689330790000003340559245328069532_);}
	.st38{clip-path:url(#SVGID_00000002383205873689330790000003340559245328069532_);fill:#61D836;}
</style>
<g>
	<defs>
		<rect id="SVGID_1_" x="-1.05" width="402" height="300.5"/>
	</defs>
	<clipPath id="SVGID_00000130636609684597996550000017656261152734834853_">
		<use xlink:href="#SVGID_1_"  style="overflow:visible;"/>
	</clipPath>
	
		<line style="clip-path:url(#SVGID_00000130636609684597996550000017656261152734834853_);fill:none;stroke:#B8B8B8;stroke-width:0.5;" x1="61.95" y1="222.55" x2="399.95" y2="222.55"/>
	
		<line style="clip-path:url(#SVGID_00000130636609684597996550000017656261152734834853_);fill:none;stroke:#B8B8B8;stroke-width:0.5;" x1="61.95" y1="159.55" x2="399.95" y2="159.55"/>
	
		<line style="clip-path:url(#SVGID_00000130636609684597996550000017656261152734834853_);fill:none;stroke:#B8B8B8;stroke-width:0.5;" x1="61.95" y1="95.55" x2="399.95" y2="95.55"/>
	
		<line style="clip-path:url(#SVGID_00000130636609684597996550000017656261152734834853_);fill:none;stroke:#000000;stroke-dasharray:1,2;" x1="61.95" y1="254.55" x2="399.95" y2="254.55"/>
	
		<line style="clip-path:url(#SVGID_00000130636609684597996550000017656261152734834853_);fill:none;stroke:#000000;stroke-dasharray:1,2;" x1="61.95" y1="191.55" x2="399.95" y2="191.55"/>
	
		<line style="clip-path:url(#SVGID_00000130636609684597996550000017656261152734834853_);fill:none;stroke:#000000;stroke-dasharray:1,2;" x1="61.95" y1="127.55" x2="399.95" y2="127.55"/>
	
		<line style="clip-path:url(#SVGID_00000130636609684597996550000017656261152734834853_);fill:none;stroke:#000000;stroke-dasharray:1,2;" x1="61.95" y1="63.55" x2="399.95" y2="63.55"/>
	
		<line style="clip-path:url(#SVGID_00000130636609684597996550000017656261152734834853_);fill:none;stroke:#D5D5D5;stroke-width:2;stroke-linecap:square;" x1="61.95" y1="32.05" x2="399.95" y2="32.05"/>
	
		<line style="clip-path:url(#SVGID_00000130636609684597996550000017656261152734834853_);fill:none;stroke:#D5D5D5;stroke-width:2;stroke-linecap:square;" x1="399.95" y1="286.05" x2="399.95" y2="32.05"/>
	
		<line style="clip-path:url(#SVGID_00000130636609684597996550000017656261152734834853_);fill:none;stroke:#D5D5D5;stroke-width:2;stroke-linecap:square;" x1="61.95" y1="286.05" x2="61.95" y2="32.05"/>
</g>
<g>
	<defs>
		<rect id="SVGID_00000094581273734016113340000007978479891797427385_" x="42.17" y="280.5" width="9.57" height="12"/>
	</defs>
	<clipPath id="SVGID_00000048481462536123035000000007391031471073464247_">
		<use xlink:href="#SVGID_00000094581273734016113340000007978479891797427385_"  style="overflow:visible;"/>
	</clipPath>
	<g style="clip-path:url(#SVGID_00000048481462536123035000000007391031471073464247_);">
		<g>
			<path d="M44.17,286.72c0-2.38,0.83-3.66,2.24-3.66c1.4,0,2.23,1.29,2.23,3.66c0,2.38-0.84,3.71-2.23,3.71
				C45.01,290.43,44.17,289.1,44.17,286.72z M47.86,286.72c0-2.11-0.58-3-1.45-3c-0.87,0-1.46,0.9-1.46,3c0,2.1,0.59,3.04,1.46,3.04
				C47.28,289.77,47.86,288.83,47.86,286.72z"/>
		</g>
	</g>
</g>
<g>
	<defs>
		<rect id="SVGID_00000084499665187782041990000014986214071975749796_" x="-1.05" y="216.88" width="52.79" height="12"/>
	</defs>
	<clipPath id="SVGID_00000107558732156031077500000002741830580669402292_">
		<use xlink:href="#SVGID_00000084499665187782041990000014986214071975749796_"  style="overflow:visible;"/>
	</clipPath>
	<g style="clip-path:url(#SVGID_00000107558732156031077500000002741830580669402292_);">
		<g>
			<path d="M0.34,225.99h1.64v-5.39h-1.3v-0.53c0.64-0.11,1.1-0.28,1.48-0.5h0.63v6.42h1.49v0.68H0.34V225.99z"/>
			<path d="M5.46,228.04c0.6-0.28,0.97-0.76,0.97-1.39l-0.11-0.78l0.43,0.63c-0.12,0.15-0.27,0.19-0.44,0.19
				c-0.33,0-0.62-0.22-0.62-0.6c0-0.38,0.29-0.6,0.63-0.6c0.45,0,0.72,0.38,0.72,1.01c0,0.92-0.54,1.65-1.38,2.02L5.46,228.04z"/>
			<path d="M11.71,220.27H8.11v-0.7h4.53v0.49c-1.68,2.17-2.05,3.84-2.16,6.61H9.62C9.75,223.95,10.3,222.23,11.71,220.27z"/>
			<path d="M13.39,225.84l0.42-0.54c0.41,0.43,0.95,0.83,1.83,0.83c0.88,0,1.6-0.66,1.6-1.68c0-1.02-0.62-1.63-1.57-1.63
				c-0.5,0-0.82,0.17-1.24,0.44l-0.45-0.29l0.24-3.4h3.49v0.7h-2.78l-0.2,2.22c0.34-0.19,0.68-0.31,1.14-0.31
				c1.21,0,2.2,0.69,2.2,2.23c0,1.53-1.16,2.4-2.36,2.4C14.56,226.81,13.88,226.32,13.39,225.84z"/>
			<path d="M19.11,223.1c0-2.38,0.83-3.66,2.24-3.66c1.4,0,2.23,1.29,2.23,3.66c0,2.38-0.84,3.71-2.23,3.71
				C19.94,226.81,19.11,225.47,19.11,223.1z M22.8,223.1c0-2.11-0.58-3-1.45-3c-0.87,0-1.46,0.9-1.46,3c0,2.1,0.59,3.04,1.46,3.04
				C22.22,226.14,22.8,225.2,22.8,223.1z"/>
			<path d="M24.62,228.04c0.6-0.28,0.97-0.76,0.97-1.39l-0.11-0.78l0.43,0.63c-0.12,0.15-0.27,0.19-0.44,0.19
				c-0.33,0-0.62-0.22-0.62-0.6c0-0.38,0.29-0.6,0.63-0.6c0.45,0,0.72,0.38,0.72,1.01c0,0.92-0.54,1.65-1.38,2.02L24.62,228.04z"/>
			<path d="M27.29,223.1c0-2.38,0.83-3.66,2.24-3.66c1.4,0,2.23,1.29,2.23,3.66c0,2.38-0.84,3.71-2.23,3.71
				C28.12,226.81,27.29,225.47,27.29,223.1z M30.98,223.1c0-2.11-0.58-3-1.45-3c-0.87,0-1.46,0.9-1.46,3c0,2.1,0.59,3.04,1.46,3.04
				C30.4,226.14,30.98,225.2,30.98,223.1z"/>
			<path d="M32.78,223.1c0-2.38,0.83-3.66,2.24-3.66c1.4,0,2.23,1.29,2.23,3.66c0,2.38-0.84,3.71-2.23,3.71
				C33.61,226.81,32.78,225.47,32.78,223.1z M36.47,223.1c0-2.11-0.58-3-1.45-3c-0.87,0-1.46,0.9-1.46,3c0,2.1,0.59,3.04,1.46,3.04
				C35.89,226.14,36.47,225.2,36.47,223.1z"/>
			<path d="M38.27,223.1c0-2.38,0.83-3.66,2.24-3.66c1.4,0,2.23,1.29,2.23,3.66c0,2.38-0.84,3.71-2.23,3.71
				C39.1,226.81,38.27,225.47,38.27,223.1z M41.96,223.1c0-2.11-0.58-3-1.45-3c-0.87,0-1.46,0.9-1.46,3c0,2.1,0.59,3.04,1.46,3.04
				C41.38,226.14,41.96,225.2,41.96,223.1z"/>
		</g>
	</g>
</g>
<g>
	<defs>
		<rect id="SVGID_00000136372475958354763080000007430353085637606797_" x="-1.05" y="153.25" width="52.79" height="12"/>
	</defs>
	<clipPath id="SVGID_00000088849264901203509230000016215664797945185718_">
		<use xlink:href="#SVGID_00000136372475958354763080000007430353085637606797_"  style="overflow:visible;"/>
	</clipPath>
	<g style="clip-path:url(#SVGID_00000088849264901203509230000016215664797945185718_);">
		<g>
			<path d="M-0.25,162.18l0.42-0.54c0.43,0.45,0.98,0.86,1.85,0.86c0.89,0,1.53-0.53,1.53-1.36c0-0.88-0.61-1.47-2.32-1.47v-0.64
				c1.54,0,2.06-0.61,2.06-1.38c0-0.71-0.49-1.17-1.28-1.17c-0.6,0-1.13,0.31-1.54,0.74l-0.44-0.52c0.53-0.5,1.17-0.88,2.01-0.88
				c1.2,0,2.09,0.65,2.09,1.78c0,0.88-0.54,1.43-1.31,1.71v0.04c0.86,0.2,1.56,0.84,1.56,1.82c0,1.26-1.02,2.02-2.31,2.02
				C0.92,163.18,0.22,162.69-0.25,162.18z"/>
			<path d="M5.46,164.42c0.6-0.28,0.97-0.76,0.97-1.39l-0.11-0.78l0.43,0.63c-0.12,0.15-0.27,0.19-0.44,0.19
				c-0.33,0-0.62-0.22-0.62-0.6c0-0.38,0.29-0.6,0.63-0.6c0.45,0,0.72,0.38,0.72,1.01c0,0.92-0.54,1.65-1.38,2.02L5.46,164.42z"/>
			<path d="M7.9,162.22l0.42-0.54c0.41,0.43,0.95,0.83,1.83,0.83c0.88,0,1.6-0.66,1.6-1.68c0-1.02-0.62-1.63-1.57-1.63
				c-0.5,0-0.82,0.17-1.24,0.44l-0.45-0.29l0.24-3.4h3.49v0.7H9.44l-0.2,2.22c0.34-0.19,0.68-0.31,1.14-0.31
				c1.21,0,2.2,0.69,2.2,2.23c0,1.53-1.16,2.4-2.36,2.4C9.07,163.18,8.39,162.7,7.9,162.22z"/>
			<path d="M13.62,159.47c0-2.38,0.83-3.66,2.24-3.66c1.4,0,2.23,1.29,2.23,3.66c0,2.38-0.84,3.71-2.23,3.71
				C14.45,163.18,13.62,161.85,13.62,159.47z M17.31,159.47c0-2.11-0.58-3-1.45-3c-0.87,0-1.46,0.9-1.46,3
				c0,2.1,0.59,3.04,1.46,3.04C16.73,162.52,17.31,161.58,17.31,159.47z"/>
			<path d="M19.11,159.47c0-2.38,0.83-3.66,2.24-3.66c1.4,0,2.23,1.29,2.23,3.66c0,2.38-0.84,3.71-2.23,3.71
				C19.94,163.18,19.11,161.85,19.11,159.47z M22.8,159.47c0-2.11-0.58-3-1.45-3c-0.87,0-1.46,0.9-1.46,3c0,2.1,0.59,3.04,1.46,3.04
				C22.22,162.52,22.8,161.58,22.8,159.47z"/>
			<path d="M24.62,164.42c0.6-0.28,0.97-0.76,0.97-1.39l-0.11-0.78l0.43,0.63c-0.12,0.15-0.27,0.19-0.44,0.19
				c-0.33,0-0.62-0.22-0.62-0.6c0-0.38,0.29-0.6,0.63-0.6c0.45,0,0.72,0.38,0.72,1.01c0,0.92-0.54,1.65-1.38,2.02L24.62,164.42z"/>
			<path d="M27.29,159.47c0-2.38,0.83-3.66,2.24-3.66c1.4,0,2.23,1.29,2.23,3.66c0,2.38-0.84,3.71-2.23,3.71
				C28.12,163.18,27.29,161.85,27.29,159.47z M30.98,159.47c0-2.11-0.58-3-1.45-3c-0.87,0-1.46,0.9-1.46,3
				c0,2.1,0.59,3.04,1.46,3.04C30.4,162.52,30.98,161.58,30.98,159.47z"/>
			<path d="M32.78,159.47c0-2.38,0.83-3.66,2.24-3.66c1.4,0,2.23,1.29,2.23,3.66c0,2.38-0.84,3.71-2.23,3.71
				C33.61,163.18,32.78,161.85,32.78,159.47z M36.47,159.47c0-2.11-0.58-3-1.45-3c-0.87,0-1.46,0.9-1.46,3
				c0,2.1,0.59,3.04,1.46,3.04C35.89,162.52,36.47,161.58,36.47,159.47z"/>
			<path d="M38.27,159.47c0-2.38,0.83-3.66,2.24-3.66c1.4,0,2.23,1.29,2.23,3.66c0,2.38-0.84,3.71-2.23,3.71
				C39.1,163.18,38.27,161.85,38.27,159.47z M41.96,159.47c0-2.11-0.58-3-1.45-3c-0.87,0-1.46,0.9-1.46,3c0,2.1,0.59,3.04,1.46,3.04
				C41.38,162.52,41.96,161.58,41.96,159.47z"/>
		</g>
	</g>
</g>
<g>
	<defs>
		<rect id="SVGID_00000118392250204463293330000005653723964540581034_" x="-1.05" y="89.62" width="52.79" height="12"/>
	</defs>
	<clipPath id="SVGID_00000123441762702602785690000012892742548430847913_">
		<use xlink:href="#SVGID_00000118392250204463293330000005653723964540581034_"  style="overflow:visible;"/>
	</clipPath>
	<g style="clip-path:url(#SVGID_00000123441762702602785690000012892742548430847913_);">
		<g>
			<path d="M-0.28,98.59l0.42-0.54c0.41,0.43,0.95,0.83,1.83,0.83c0.88,0,1.6-0.66,1.6-1.68c0-1.02-0.62-1.63-1.57-1.63
				c-0.5,0-0.82,0.17-1.24,0.44l-0.45-0.29l0.24-3.4h3.49v0.7H1.26l-0.2,2.22c0.34-0.19,0.68-0.31,1.14-0.31
				c1.21,0,2.2,0.69,2.2,2.23c0,1.53-1.16,2.4-2.36,2.4C0.89,99.56,0.21,99.07-0.28,98.59z"/>
			<path d="M5.46,100.79c0.6-0.28,0.97-0.76,0.97-1.39l-0.11-0.78l0.43,0.63c-0.12,0.15-0.27,0.19-0.44,0.19
				c-0.33,0-0.62-0.22-0.62-0.6c0-0.38,0.29-0.6,0.63-0.6c0.45,0,0.72,0.38,0.72,1.01c0,0.92-0.54,1.65-1.38,2.02L5.46,100.79z"/>
			<path d="M8.07,98.94c2.19-2.19,3.38-3.48,3.38-4.67c0-0.83-0.44-1.43-1.39-1.43c-0.6,0-1.14,0.38-1.55,0.87l-0.48-0.46
				c0.58-0.64,1.21-1.07,2.13-1.07c1.3,0,2.1,0.82,2.1,2.06c0,1.36-1.24,2.7-3,4.54c0.38-0.04,0.83-0.07,1.2-0.07h2.15v0.7H8.07
				V98.94z"/>
			<path d="M13.39,98.59l0.42-0.54c0.41,0.43,0.95,0.83,1.83,0.83c0.88,0,1.6-0.66,1.6-1.68c0-1.02-0.62-1.63-1.57-1.63
				c-0.5,0-0.82,0.17-1.24,0.44l-0.45-0.29l0.24-3.4h3.49v0.7h-2.78l-0.2,2.22c0.34-0.19,0.68-0.31,1.14-0.31
				c1.21,0,2.2,0.69,2.2,2.23c0,1.53-1.16,2.4-2.36,2.4C14.56,99.56,13.88,99.07,13.39,98.59z"/>
			<path d="M19.11,95.85c0-2.38,0.83-3.66,2.24-3.66c1.4,0,2.23,1.29,2.23,3.66c0,2.38-0.84,3.71-2.23,3.71
				C19.94,99.56,19.11,98.22,19.11,95.85z M22.8,95.85c0-2.11-0.58-3-1.45-3c-0.87,0-1.46,0.9-1.46,3c0,2.1,0.59,3.04,1.46,3.04
				C22.22,98.89,22.8,97.95,22.8,95.85z"/>
			<path d="M24.62,100.79c0.6-0.28,0.97-0.76,0.97-1.39l-0.11-0.78l0.43,0.63c-0.12,0.15-0.27,0.19-0.44,0.19
				c-0.33,0-0.62-0.22-0.62-0.6c0-0.38,0.29-0.6,0.63-0.6c0.45,0,0.72,0.38,0.72,1.01c0,0.92-0.54,1.65-1.38,2.02L24.62,100.79z"/>
			<path d="M27.29,95.85c0-2.38,0.83-3.66,2.24-3.66c1.4,0,2.23,1.29,2.23,3.66c0,2.38-0.84,3.71-2.23,3.71
				C28.12,99.56,27.29,98.22,27.29,95.85z M30.98,95.85c0-2.11-0.58-3-1.45-3c-0.87,0-1.46,0.9-1.46,3c0,2.1,0.59,3.04,1.46,3.04
				C30.4,98.89,30.98,97.95,30.98,95.85z"/>
			<path d="M32.78,95.85c0-2.38,0.83-3.66,2.24-3.66c1.4,0,2.23,1.29,2.23,3.66c0,2.38-0.84,3.71-2.23,3.71
				C33.61,99.56,32.78,98.22,32.78,95.85z M36.47,95.85c0-2.11-0.58-3-1.45-3c-0.87,0-1.46,0.9-1.46,3c0,2.1,0.59,3.04,1.46,3.04
				C35.89,98.89,36.47,97.95,36.47,95.85z"/>
			<path d="M38.27,95.85c0-2.38,0.83-3.66,2.24-3.66c1.4,0,2.23,1.29,2.23,3.66c0,2.38-0.84,3.71-2.23,3.71
				C39.1,99.56,38.27,98.22,38.27,95.85z M41.96,95.85c0-2.11-0.58-3-1.45-3c-0.87,0-1.46,0.9-1.46,3c0,2.1,0.59,3.04,1.46,3.04
				C41.38,98.89,41.96,97.95,41.96,95.85z"/>
		</g>
	</g>
</g>
<g>
	<defs>
		<rect id="SVGID_00000120519451921549562240000016626940692334514622_" x="-1.05" y="26" width="52.79" height="12"/>
	</defs>
	<clipPath id="SVGID_00000045598021638462045020000008745454444265990040_">
		<use xlink:href="#SVGID_00000120519451921549562240000016626940692334514622_"  style="overflow:visible;"/>
	</clipPath>
	<g style="clip-path:url(#SVGID_00000045598021638462045020000008745454444265990040_);">
		<g>
			<path d="M3.53,29.39h-3.59v-0.7h4.53v0.49c-1.68,2.17-2.05,3.84-2.16,6.61H1.44C1.57,33.08,2.12,31.35,3.53,29.39z"/>
			<path d="M5.46,37.17c0.6-0.28,0.97-0.76,0.97-1.39L6.32,35l0.43,0.63c-0.12,0.15-0.27,0.19-0.44,0.19c-0.33,0-0.62-0.22-0.62-0.6
				c0-0.38,0.29-0.6,0.63-0.6c0.45,0,0.72,0.38,0.72,1.01c0,0.92-0.54,1.65-1.38,2.02L5.46,37.17z"/>
			<path d="M8.13,32.22c0-2.38,0.83-3.66,2.24-3.66c1.4,0,2.23,1.29,2.23,3.66c0,2.38-0.84,3.71-2.23,3.71
				C8.96,35.93,8.13,34.6,8.13,32.22z M11.82,32.22c0-2.11-0.58-3-1.45-3c-0.87,0-1.46,0.9-1.46,3c0,2.1,0.59,3.04,1.46,3.04
				C11.24,35.27,11.82,34.33,11.82,32.22z"/>
			<path d="M13.62,32.22c0-2.38,0.83-3.66,2.24-3.66c1.4,0,2.23,1.29,2.23,3.66c0,2.38-0.84,3.71-2.23,3.71
				C14.45,35.93,13.62,34.6,13.62,32.22z M17.31,32.22c0-2.11-0.58-3-1.45-3c-0.87,0-1.46,0.9-1.46,3c0,2.1,0.59,3.04,1.46,3.04
				C16.73,35.27,17.31,34.33,17.31,32.22z"/>
			<path d="M19.11,32.22c0-2.38,0.83-3.66,2.24-3.66c1.4,0,2.23,1.29,2.23,3.66c0,2.38-0.84,3.71-2.23,3.71
				C19.94,35.93,19.11,34.6,19.11,32.22z M22.8,32.22c0-2.11-0.58-3-1.45-3c-0.87,0-1.46,0.9-1.46,3c0,2.1,0.59,3.04,1.46,3.04
				C22.22,35.27,22.8,34.33,22.8,32.22z"/>
			<path d="M24.62,37.17c0.6-0.28,0.97-0.76,0.97-1.39L25.48,35l0.43,0.63c-0.12,0.15-0.27,0.19-0.44,0.19
				c-0.33,0-0.62-0.22-0.62-0.6c0-0.38,0.29-0.6,0.63-0.6c0.45,0,0.72,0.38,0.72,1.01c0,0.92-0.54,1.65-1.38,2.02L24.62,37.17z"/>
			<path d="M27.29,32.22c0-2.38,0.83-3.66,2.24-3.66c1.4,0,2.23,1.29,2.23,3.66c0,2.38-0.84,3.71-2.23,3.71
				C28.12,35.93,27.29,34.6,27.29,32.22z M30.98,32.22c0-2.11-0.58-3-1.45-3c-0.87,0-1.46,0.9-1.46,3c0,2.1,0.59,3.04,1.46,3.04
				C30.4,35.27,30.98,34.33,30.98,32.22z"/>
			<path d="M32.78,32.22c0-2.38,0.83-3.66,2.24-3.66c1.4,0,2.23,1.29,2.23,3.66c0,2.38-0.84,3.71-2.23,3.71
				C33.61,35.93,32.78,34.6,32.78,32.22z M36.47,32.22c0-2.11-0.58-3-1.45-3c-0.87,0-1.46,0.9-1.46,3c0,2.1,0.59,3.04,1.46,3.04
				C35.89,35.27,36.47,34.33,36.47,32.22z"/>
			<path d="M38.27,32.22c0-2.38,0.83-3.66,2.24-3.66c1.4,0,2.23,1.29,2.23,3.66c0,2.38-0.84,3.71-2.23,3.71
				C39.1,35.93,38.27,34.6,38.27,32.22z M41.96,32.22c0-2.11-0.58-3-1.45-3c-0.87,0-1.46,0.9-1.46,3c0,2.1,0.59,3.04,1.46,3.04
				C41.38,35.27,41.96,34.33,41.96,32.22z"/>
		</g>
	</g>
</g>
<g>
	<defs>
		<rect id="SVGID_00000070829469717669595620000010967849014275505594_" x="-1.05" width="402" height="300.5"/>
	</defs>
	<clipPath id="SVGID_00000127037036640550769870000003040413922683706526_">
		<use xlink:href="#SVGID_00000070829469717669595620000010967849014275505594_"  style="overflow:visible;"/>
	</clipPath>
	
		<line style="clip-path:url(#SVGID_00000127037036640550769870000003040413922683706526_);fill:none;stroke:#D5D5D5;stroke-width:2;stroke-linecap:square;" x1="61.95" y1="286.05" x2="399.95" y2="286.05"/>
</g>
<g>
	<defs>
		<rect id="SVGID_00000111167143750426787260000005048590386044314032_" x="136.48" y="289.5" width="19.61" height="11"/>
	</defs>
	<clipPath id="SVGID_00000056414939787284539910000016853578465854525631_">
		<use xlink:href="#SVGID_00000111167143750426787260000005048590386044314032_"  style="overflow:visible;"/>
	</clipPath>
	<g style="clip-path:url(#SVGID_00000056414939787284539910000016853578465854525631_);">
		<g>
			<path d="M141.39,294.44c0-0.35,0.03-0.96,0.05-1.33h-0.05c-0.18,0.33-0.38,0.63-0.58,0.97l-1.77,2.56h4.1v0.65h-4.97v-0.53
				l3.1-4.58h0.87v7.11h-0.77V294.44z"/>
			<path d="M148.79,297.03v0.6h-4.92v-0.6H148.79z M145.93,298.05c-0.36,0.76-0.94,1.53-1.49,2.03c-0.12-0.11-0.39-0.3-0.55-0.39
				c0.56-0.46,1.09-1.14,1.39-1.81L145.93,298.05z M148.78,292.28v0.6h-4.77v-0.6H148.78z M145.48,291.04v6.24h-0.61v-6.24H145.48z
				 M147.72,293.82v0.55h-2.56v-0.55H147.72z M147.73,295.41v0.55h-2.56v-0.55H147.73z M147.24,297.88
				c0.39,0.46,0.85,1.08,1.05,1.49l-0.55,0.32c-0.18-0.41-0.63-1.06-1.02-1.53L147.24,297.88z M148.02,291.04v6.24h-0.62v-6.24
				H148.02z M149.92,291.43v3.62c0,1.53-0.12,3.66-1.03,5.08c-0.11-0.12-0.38-0.32-0.54-0.38c0.86-1.35,0.93-3.25,0.93-4.7v-3.62
				H149.92z M152.4,296.07v0.61h-2.84v-0.61H152.4z M152.38,291.43v0.62h-2.8v-0.62H152.38z M152.38,293.73v0.6h-2.8v-0.6H152.38z
				 M152.72,291.43v7.76c0,0.4-0.09,0.61-0.37,0.73c-0.27,0.11-0.74,0.13-1.47,0.12c-0.03-0.18-0.12-0.48-0.22-0.66
				c0.55,0.02,1.05,0.01,1.21,0.01c0.14-0.01,0.2-0.05,0.2-0.21v-7.76H152.72z"/>
		</g>
	</g>
</g>
<g>
	<defs>
		<rect id="SVGID_00000057139906272522661880000017936537235018404753_" x="305.61" y="289.5" width="19.57" height="11"/>
	</defs>
	<clipPath id="SVGID_00000120533961070130897670000016998468510663566757_">
		<use xlink:href="#SVGID_00000057139906272522661880000017936537235018404753_"  style="overflow:visible;"/>
	</clipPath>
	<g style="clip-path:url(#SVGID_00000120533961070130897670000016998468510663566757_);">
		<g>
			<path d="M307.38,298.47l0.42-0.54c0.41,0.43,0.95,0.83,1.83,0.83c0.88,0,1.6-0.66,1.6-1.68c0-1.02-0.62-1.63-1.57-1.63
				c-0.5,0-0.82,0.17-1.24,0.44l-0.45-0.29l0.24-3.4h3.49v0.7h-2.78l-0.2,2.22c0.34-0.19,0.68-0.31,1.14-0.31
				c1.21,0,2.2,0.69,2.2,2.23c0,1.53-1.16,2.4-2.36,2.4C308.56,299.43,307.87,298.95,307.38,298.47z"/>
			<path d="M317.91,297.03v0.6H313v-0.6H317.91z M315.06,298.05c-0.36,0.76-0.94,1.53-1.49,2.03c-0.12-0.11-0.39-0.3-0.55-0.39
				c0.56-0.46,1.09-1.14,1.39-1.81L315.06,298.05z M317.9,292.28v0.6h-4.77v-0.6H317.9z M314.61,291.04v6.24h-0.61v-6.24H314.61z
				 M316.85,293.82v0.55h-2.56v-0.55H316.85z M316.85,295.41v0.55h-2.56v-0.55H316.85z M316.36,297.88
				c0.39,0.46,0.85,1.08,1.05,1.49l-0.55,0.32c-0.18-0.41-0.63-1.06-1.02-1.53L316.36,297.88z M317.15,291.04v6.24h-0.62v-6.24
				H317.15z M319.05,291.43v3.62c0,1.53-0.12,3.66-1.03,5.08c-0.11-0.12-0.38-0.32-0.54-0.38c0.86-1.35,0.93-3.25,0.93-4.7v-3.62
				H319.05z M321.52,296.07v0.61h-2.84v-0.61H321.52z M321.5,291.43v0.62h-2.8v-0.62H321.5z M321.5,293.73v0.6h-2.8v-0.6H321.5z
				 M321.85,291.43v7.76c0,0.4-0.09,0.61-0.37,0.73c-0.27,0.11-0.74,0.13-1.47,0.12c-0.03-0.18-0.12-0.48-0.22-0.66
				c0.55,0.02,1.05,0.01,1.21,0.01c0.14-0.01,0.2-0.05,0.2-0.21v-7.76H321.85z"/>
		</g>
	</g>
</g>
<g>
	<defs>
		<rect id="SVGID_00000091708629865625766430000012544050360394231969_" x="85.95" y="59.05" width="121" height="20"/>
	</defs>
	<clipPath id="SVGID_00000074437911525565535670000008981315648696045996_">
		<use xlink:href="#SVGID_00000091708629865625766430000012544050360394231969_"  style="overflow:visible;"/>
	</clipPath>
	<g style="clip-path:url(#SVGID_00000074437911525565535670000008981315648696045996_);enable-background:new    ;">
		<g>
			<defs>
				<rect id="SVGID_00000068651391776716818810000008458518905658282165_" x="85.95" y="59.05" width="121" height="20"/>
			</defs>
			<clipPath id="SVGID_00000007420514332410913280000016119188141799402381_">
				<use xlink:href="#SVGID_00000068651391776716818810000008458518905658282165_"  style="overflow:visible;"/>
			</clipPath>
			<g style="clip-path:url(#SVGID_00000007420514332410913280000016119188141799402381_);">
				<defs>
					<rect id="SVGID_00000149339721551259162160000000746169413994309504_" x="85.95" y="59.05" width="121" height="20"/>
				</defs>
				<clipPath id="SVGID_00000053533363825585177800000015259860399300704955_">
					<use xlink:href="#SVGID_00000149339721551259162160000000746169413994309504_"  style="overflow:visible;"/>
				</clipPath>
				
					<rect x="85.95" y="59.05" style="clip-path:url(#SVGID_00000053533363825585177800000015259860399300704955_);fill:#61D836;" width="121" height="20"/>
			</g>
		</g>
	</g>
</g>
<g>
	<defs>
		<rect id="SVGID_00000107547324388648522300000000953223705876787134_" x="254.95" y="169.05" width="121" height="56"/>
	</defs>
	<clipPath id="SVGID_00000134947774040244623510000011935028179322856833_">
		<use xlink:href="#SVGID_00000107547324388648522300000000953223705876787134_"  style="overflow:visible;"/>
	</clipPath>
	<g style="clip-path:url(#SVGID_00000134947774040244623510000011935028179322856833_);enable-background:new    ;">
		<g>
			<defs>
				<rect id="SVGID_00000102540714501472167020000014359983868139054732_" x="254.95" y="169.05" width="121" height="56"/>
			</defs>
			<clipPath id="SVGID_00000178177309397823508320000016120295874898732951_">
				<use xlink:href="#SVGID_00000102540714501472167020000014359983868139054732_"  style="overflow:visible;"/>
			</clipPath>
			<g style="clip-path:url(#SVGID_00000178177309397823508320000016120295874898732951_);">
				<defs>
					<rect id="SVGID_00000174592364219247378170000013224765319241143432_" x="254.95" y="169.05" width="121" height="56"/>
				</defs>
				<clipPath id="SVGID_00000162315443931763358190000015538250742181754769_">
					<use xlink:href="#SVGID_00000174592364219247378170000013224765319241143432_"  style="overflow:visible;"/>
				</clipPath>
				
					<rect x="254.95" y="169.05" style="clip-path:url(#SVGID_00000162315443931763358190000015538250742181754769_);fill:#61D836;" width="121" height="56"/>
			</g>
		</g>
	</g>
</g>
<g>
	<defs>
		<rect id="SVGID_00000103969215811749728480000000180972446880330175_" x="85.95" y="79.05" width="121" height="207"/>
	</defs>
	<clipPath id="SVGID_00000145765914736835326630000017608304642220087696_">
		<use xlink:href="#SVGID_00000103969215811749728480000000180972446880330175_"  style="overflow:visible;"/>
	</clipPath>
	<g style="clip-path:url(#SVGID_00000145765914736835326630000017608304642220087696_);enable-background:new    ;">
		<g>
			<defs>
				<rect id="SVGID_00000062895542185809638700000006248761453388908679_" x="85.95" y="79.05" width="121" height="207"/>
			</defs>
			<clipPath id="SVGID_00000137835211159458980960000001977925200895650737_">
				<use xlink:href="#SVGID_00000062895542185809638700000006248761453388908679_"  style="overflow:visible;"/>
			</clipPath>
			<g style="clip-path:url(#SVGID_00000137835211159458980960000001977925200895650737_);">
				<defs>
					<rect id="SVGID_00000173147827325833847670000015836237043797159054_" x="85.95" y="79.05" width="121" height="207"/>
				</defs>
				<clipPath id="SVGID_00000145772846025977374820000016108065892535429516_">
					<use xlink:href="#SVGID_00000173147827325833847670000015836237043797159054_"  style="overflow:visible;"/>
				</clipPath>
				
					<rect x="85.95" y="79.05" style="clip-path:url(#SVGID_00000145772846025977374820000016108065892535429516_);fill:#00A2FF;" width="121" height="207"/>
			</g>
		</g>
	</g>
</g>
<g>
	<defs>
		<rect id="SVGID_00000047757209323109955380000017164215213469139857_" x="254.95" y="225.05" width="121" height="61"/>
	</defs>
	<clipPath id="SVGID_00000034778684483234531010000014273459460739653011_">
		<use xlink:href="#SVGID_00000047757209323109955380000017164215213469139857_"  style="overflow:visible;"/>
	</clipPath>
	<g style="clip-path:url(#SVGID_00000034778684483234531010000014273459460739653011_);enable-background:new    ;">
		<g>
			<defs>
				<rect id="SVGID_00000042718377465880762040000007868100697062758820_" x="254.95" y="225.05" width="121" height="61"/>
			</defs>
			<clipPath id="SVGID_00000176042438979076505830000010787930849234109109_">
				<use xlink:href="#SVGID_00000042718377465880762040000007868100697062758820_"  style="overflow:visible;"/>
			</clipPath>
			<g style="clip-path:url(#SVGID_00000176042438979076505830000010787930849234109109_);">
				<defs>
					<rect id="SVGID_00000054958932732349055660000018241835058966833841_" x="254.95" y="225.05" width="121" height="61"/>
				</defs>
				<clipPath id="SVGID_00000062904694068741807310000017535904995027714208_">
					<use xlink:href="#SVGID_00000054958932732349055660000018241835058966833841_"  style="overflow:visible;"/>
				</clipPath>
				
					<rect x="254.95" y="225.05" style="clip-path:url(#SVGID_00000062904694068741807310000017535904995027714208_);fill:#00A2FF;" width="121" height="61"/>
			</g>
		</g>
	</g>
</g>
<g>
	<defs>
		<rect id="SVGID_00000124840030164969314080000004789287914384941754_" x="-1.05" width="402" height="300.5"/>
	</defs>
	<clipPath id="SVGID_00000163040476919614768890000007752809918741014939_">
		<use xlink:href="#SVGID_00000124840030164969314080000004789287914384941754_"  style="overflow:visible;"/>
	</clipPath>
	<g style="clip-path:url(#SVGID_00000163040476919614768890000007752809918741014939_);enable-background:new    ;">
		<g>
			<defs>
				<rect id="SVGID_00000154401479726258825270000017235429878701753492_" x="273.95" y="166.05" width="81" height="20"/>
			</defs>
			<clipPath id="SVGID_00000106145261355925787440000007800772342923907769_">
				<use xlink:href="#SVGID_00000154401479726258825270000017235429878701753492_"  style="overflow:visible;"/>
			</clipPath>
			<g style="clip-path:url(#SVGID_00000106145261355925787440000007800772342923907769_);">
				<defs>
					<rect id="SVGID_00000119108685476015904480000003540834597458345860_" x="277.95" y="170.05" width="75" height="13"/>
				</defs>
				<clipPath id="SVGID_00000103236696571518881760000015195524471548525997_">
					<use xlink:href="#SVGID_00000119108685476015904480000003540834597458345860_"  style="overflow:visible;"/>
				</clipPath>
				<g style="clip-path:url(#SVGID_00000103236696571518881760000015195524471548525997_);">
					<g>
						<path class="st26" d="M279.99,180.6h1.97v-6.47h-1.56v-0.63c0.76-0.14,1.32-0.33,1.77-0.6h0.76v7.71h1.79v0.82h-4.72V180.6z"
							/>
						<path class="st26" d="M286.14,183.06c0.72-0.34,1.16-0.92,1.16-1.66l-0.13-0.94l0.52,0.76c-0.14,0.18-0.33,0.23-0.53,0.23
							c-0.4,0-0.74-0.26-0.74-0.72c0-0.45,0.35-0.72,0.76-0.72c0.54,0,0.86,0.46,0.86,1.21c0,1.11-0.64,1.98-1.66,2.42
							L286.14,183.06z"/>
						<path class="st26" d="M289.07,180.42l0.5-0.65c0.5,0.51,1.14,0.99,2.19,0.99c1.06,0,1.92-0.79,1.92-2.02
							c0-1.23-0.74-1.96-1.88-1.96c-0.6,0-0.98,0.2-1.49,0.53l-0.54-0.34l0.29-4.07h4.19v0.84h-3.33l-0.24,2.66
							c0.41-0.23,0.82-0.37,1.36-0.37c1.45,0,2.64,0.83,2.64,2.67c0,1.84-1.39,2.88-2.83,2.88
							C290.47,181.58,289.65,181,289.07,180.42z"/>
						<path class="st26" d="M295.66,180.42l0.5-0.65c0.5,0.51,1.14,0.99,2.19,0.99c1.06,0,1.92-0.79,1.92-2.02
							c0-1.23-0.74-1.96-1.88-1.96c-0.6,0-0.98,0.2-1.49,0.53l-0.54-0.34l0.29-4.07h4.19v0.84h-3.33l-0.24,2.66
							c0.41-0.23,0.82-0.37,1.36-0.37c1.45,0,2.64,0.83,2.64,2.67c0,1.84-1.39,2.88-2.83,2.88
							C297.06,181.58,296.24,181,295.66,180.42z"/>
						<path class="st26" d="M302.52,177.13c0-2.85,1-4.4,2.69-4.4c1.68,0,2.68,1.55,2.68,4.4c0,2.85-1,4.45-2.68,4.45
							C303.52,181.58,302.52,179.98,302.52,177.13z M306.94,177.13c0-2.53-0.7-3.6-1.73-3.6c-1.04,0-1.75,1.07-1.75,3.6
							c0,2.52,0.7,3.65,1.75,3.65C306.24,180.78,306.94,179.65,306.94,177.13z"/>
						<path class="st26" d="M309.13,183.06c0.72-0.34,1.16-0.92,1.16-1.66l-0.13-0.94l0.52,0.76c-0.14,0.18-0.33,0.23-0.53,0.23
							c-0.4,0-0.74-0.26-0.74-0.72c0-0.45,0.35-0.72,0.76-0.72c0.54,0,0.86,0.46,0.86,1.21c0,1.11-0.64,1.98-1.66,2.42
							L309.13,183.06z"/>
						<path class="st26" d="M312.33,177.13c0-2.85,1-4.4,2.69-4.4c1.68,0,2.68,1.55,2.68,4.4c0,2.85-1,4.45-2.68,4.45
							C313.33,181.58,312.33,179.98,312.33,177.13z M316.76,177.13c0-2.53-0.7-3.6-1.73-3.6c-1.04,0-1.75,1.07-1.75,3.6
							c0,2.52,0.7,3.65,1.75,3.65C316.06,180.78,316.76,179.65,316.76,177.13z"/>
						<path class="st26" d="M318.92,177.13c0-2.85,1-4.4,2.69-4.4c1.68,0,2.68,1.55,2.68,4.4c0,2.85-1,4.45-2.68,4.45
							C319.92,181.58,318.92,179.98,318.92,177.13z M323.35,177.13c0-2.53-0.7-3.6-1.73-3.6c-1.04,0-1.75,1.07-1.75,3.6
							c0,2.52,0.7,3.65,1.75,3.65C322.65,180.78,323.35,179.65,323.35,177.13z"/>
						<path class="st26" d="M325.51,177.13c0-2.85,1-4.4,2.69-4.4c1.68,0,2.68,1.55,2.68,4.4c0,2.85-1,4.45-2.68,4.45
							C326.51,181.58,325.51,179.98,325.51,177.13z M329.94,177.13c0-2.53-0.7-3.6-1.73-3.6c-1.04,0-1.75,1.07-1.75,3.6
							c0,2.52,0.7,3.65,1.75,3.65C329.24,180.78,329.94,179.65,329.94,177.13z"/>
						<path class="st26" d="M342,172.19v0.8h-8.59v9.38h-0.8v-10.18H342z M342.02,176.61v0.79h-8.98v-0.79H342.02z M337.86,172.58
							V177h-0.8v-4.43H337.86z M342.45,172.19v9.06c0,0.54-0.14,0.81-0.53,0.95c-0.38,0.13-1.05,0.14-2.13,0.14
							c-0.05-0.22-0.18-0.59-0.31-0.81c0.85,0.03,1.63,0.02,1.86,0.01c0.23-0.01,0.3-0.08,0.3-0.3v-9.06H342.45z"/>
					</g>
				</g>
			</g>
		</g>
	</g>
</g>
<g>
	<defs>
		<rect id="SVGID_00000152968164819147097750000002905938659505674392_" x="-1.05" width="402" height="300.5"/>
	</defs>
	<clipPath id="SVGID_00000127723147797361735650000007791038315426663588_">
		<use xlink:href="#SVGID_00000152968164819147097750000002905938659505674392_"  style="overflow:visible;"/>
	</clipPath>
	<g style="clip-path:url(#SVGID_00000127723147797361735650000007791038315426663588_);enable-background:new    ;">
		<g>
			<defs>
				<rect id="SVGID_00000150062330302513362010000005065760494717924765_" x="109.95" y="55.05" width="71" height="21"/>
			</defs>
			<clipPath id="SVGID_00000042735406219847696160000015560378790406043520_">
				<use xlink:href="#SVGID_00000150062330302513362010000005065760494717924765_"  style="overflow:visible;"/>
			</clipPath>
			<g style="clip-path:url(#SVGID_00000042735406219847696160000015560378790406043520_);">
				<defs>
					<rect id="SVGID_00000141421054429135287840000010806589857029098141_" x="113.95" y="60.05" width="64" height="13"/>
				</defs>
				<clipPath id="SVGID_00000116931426180036723870000016585724851593452213_">
					<use xlink:href="#SVGID_00000141421054429135287840000010806589857029098141_"  style="overflow:visible;"/>
				</clipPath>
				<g style="clip-path:url(#SVGID_00000116931426180036723870000016585724851593452213_);">
					<g>
						<path class="st26" d="M115.53,70.2l0.5-0.65c0.5,0.51,1.14,0.99,2.19,0.99c1.06,0,1.92-0.79,1.92-2.02
							c0-1.23-0.74-1.96-1.88-1.96c-0.6,0-0.98,0.2-1.49,0.53l-0.54-0.34l0.29-4.07h4.19v0.84h-3.33l-0.24,2.66
							c0.41-0.23,0.82-0.37,1.36-0.37c1.45,0,2.64,0.83,2.64,2.67c0,1.84-1.39,2.88-2.83,2.88
							C116.93,71.36,116.11,70.78,115.53,70.2z"/>
						<path class="st26" d="M122.12,70.2l0.5-0.65c0.5,0.51,1.14,0.99,2.19,0.99c1.06,0,1.92-0.79,1.92-2.02
							c0-1.23-0.74-1.96-1.88-1.96c-0.6,0-0.98,0.2-1.49,0.53l-0.54-0.34l0.29-4.07h4.19v0.84h-3.33l-0.24,2.66
							c0.41-0.23,0.82-0.37,1.36-0.37c1.45,0,2.64,0.83,2.64,2.67c0,1.84-1.39,2.88-2.83,2.88C123.52,71.36,122.7,70.78,122.12,70.2
							z"/>
						<path class="st26" d="M128.98,66.91c0-2.85,1-4.4,2.69-4.4c1.68,0,2.68,1.55,2.68,4.4c0,2.85-1,4.45-2.68,4.45
							C129.98,71.36,128.98,69.76,128.98,66.91z M133.41,66.91c0-2.53-0.7-3.6-1.73-3.6c-1.04,0-1.75,1.07-1.75,3.6
							c0,2.52,0.7,3.65,1.75,3.65C132.71,70.56,133.41,69.43,133.41,66.91z"/>
						<path class="st26" d="M135.59,72.84c0.72-0.34,1.16-0.92,1.16-1.66l-0.13-0.94l0.52,0.76c-0.14,0.18-0.33,0.23-0.53,0.23
							c-0.4,0-0.74-0.26-0.74-0.72c0-0.45,0.35-0.72,0.76-0.72c0.54,0,0.86,0.46,0.86,1.21c0,1.11-0.64,1.98-1.66,2.42L135.59,72.84
							z"/>
						<path class="st26" d="M138.79,66.91c0-2.85,1-4.4,2.69-4.4c1.68,0,2.68,1.55,2.68,4.4c0,2.85-1,4.45-2.68,4.45
							C139.8,71.36,138.79,69.76,138.79,66.91z M143.22,66.91c0-2.53-0.7-3.6-1.73-3.6c-1.04,0-1.75,1.07-1.75,3.6
							c0,2.52,0.7,3.65,1.75,3.65C142.52,70.56,143.22,69.43,143.22,66.91z"/>
						<path class="st26" d="M145.38,66.91c0-2.85,1-4.4,2.69-4.4c1.68,0,2.68,1.55,2.68,4.4c0,2.85-1,4.45-2.68,4.45
							C146.38,71.36,145.38,69.76,145.38,66.91z M149.81,66.91c0-2.53-0.7-3.6-1.73-3.6c-1.04,0-1.75,1.07-1.75,3.6
							c0,2.52,0.7,3.65,1.75,3.65C149.11,70.56,149.81,69.43,149.81,66.91z"/>
						<path class="st26" d="M151.97,66.91c0-2.85,1-4.4,2.69-4.4c1.68,0,2.68,1.55,2.68,4.4c0,2.85-1,4.45-2.68,4.45
							C152.97,71.36,151.97,69.76,151.97,66.91z M156.4,66.91c0-2.53-0.7-3.6-1.73-3.6c-1.04,0-1.75,1.07-1.75,3.6
							c0,2.52,0.7,3.65,1.75,3.65C155.7,70.56,156.4,69.43,156.4,66.91z"/>
						<path class="st26" d="M168.46,61.97v0.8h-8.59v9.38h-0.8V61.97H168.46z M168.48,66.4v0.79h-8.98V66.4H168.48z M164.32,62.36
							v4.43h-0.8v-4.43H164.32z M168.91,61.97v9.06c0,0.54-0.14,0.81-0.53,0.95c-0.38,0.13-1.05,0.14-2.13,0.14
							c-0.05-0.22-0.18-0.59-0.31-0.81c0.85,0.03,1.63,0.02,1.86,0.01c0.23-0.01,0.3-0.08,0.3-0.3v-9.06H168.91z"/>
					</g>
				</g>
			</g>
		</g>
	</g>
</g>
<g>
	<defs>
		<rect id="SVGID_00000091737094112960264110000016568191116835354045_" x="-1.05" width="402" height="300.5"/>
	</defs>
	<clipPath id="SVGID_00000046337882761657671420000006945332197145514147_">
		<use xlink:href="#SVGID_00000091737094112960264110000016568191116835354045_"  style="overflow:visible;"/>
	</clipPath>
	<g style="clip-path:url(#SVGID_00000046337882761657671420000006945332197145514147_);enable-background:new    ;">
		<g>
			<defs>
				<rect id="SVGID_00000178165752464409117470000000643048527092545440_" x="273.95" y="222.05" width="81" height="21"/>
			</defs>
			<clipPath id="SVGID_00000098899285334386365350000004990061991586987446_">
				<use xlink:href="#SVGID_00000178165752464409117470000000643048527092545440_"  style="overflow:visible;"/>
			</clipPath>
			<g style="clip-path:url(#SVGID_00000098899285334386365350000004990061991586987446_);">
				<defs>
					<rect id="SVGID_00000152264590599216282540000015887595355665393315_" x="277.95" y="227.05" width="75" height="13"/>
				</defs>
				<clipPath id="SVGID_00000005254847989882677330000008140360373580508303_">
					<use xlink:href="#SVGID_00000152264590599216282540000015887595355665393315_"  style="overflow:visible;"/>
				</clipPath>
				<g style="clip-path:url(#SVGID_00000005254847989882677330000008140360373580508303_);">
					<g>
						<path class="st26" d="M279.99,236.95h1.97v-6.47h-1.56v-0.63c0.76-0.14,1.32-0.33,1.77-0.6h0.76v7.71h1.79v0.82h-4.72V236.95z
							"/>
						<path class="st26" d="M286.14,239.41c0.72-0.34,1.16-0.92,1.16-1.66l-0.13-0.94l0.52,0.76c-0.14,0.18-0.33,0.23-0.53,0.23
							c-0.4,0-0.74-0.26-0.74-0.72c0-0.45,0.35-0.72,0.76-0.72c0.54,0,0.86,0.46,0.86,1.21c0,1.11-0.64,1.98-1.66,2.42
							L286.14,239.41z"/>
						<path class="st26" d="M289.39,233.84c0-3.46,1.53-4.76,3.22-4.76c0.89,0,1.53,0.37,2,0.88l-0.55,0.61
							c-0.34-0.42-0.87-0.67-1.42-0.67c-1.26,0-2.32,0.99-2.32,3.94c0,2.11,0.68,3.31,1.98,3.31c0.88,0,1.55-0.79,1.55-1.94
							c0-1.14-0.54-1.9-1.65-1.9c-0.57,0-1.29,0.34-1.91,1.25l-0.03-0.81c0.56-0.73,1.36-1.18,2.09-1.18c1.48,0,2.43,0.9,2.43,2.64
							c0,1.62-1.14,2.72-2.47,2.72C290.61,237.93,289.39,236.54,289.39,233.84z"/>
						<path class="st26" d="M295.86,235.59c0-1.12,0.84-1.91,1.63-2.33v-0.05c-0.63-0.43-1.2-1.07-1.2-1.97
							c0-1.29,1.02-2.16,2.37-2.16c1.48,0,2.38,0.94,2.38,2.25c0,0.91-0.67,1.69-1.18,2.08v0.05c0.75,0.46,1.48,1.05,1.48,2.2
							c0,1.26-1.09,2.26-2.71,2.26C297.03,237.93,295.86,236.94,295.86,235.59z M300.41,235.64c0-1.17-1.13-1.56-2.39-2.07
							c-0.74,0.46-1.28,1.1-1.28,1.93c0,0.96,0.82,1.67,1.91,1.67C299.72,237.19,300.41,236.54,300.41,235.64z M300.2,231.38
							c0-0.86-0.57-1.56-1.55-1.56c-0.84,0-1.45,0.57-1.45,1.42c0,1.07,1,1.51,2.05,1.93C299.86,232.62,300.2,232.04,300.2,231.38z"
							/>
						<path class="st26" d="M302.24,236.77l0.5-0.65c0.5,0.51,1.14,0.99,2.19,0.99c1.06,0,1.92-0.79,1.92-2.02
							c0-1.23-0.74-1.96-1.88-1.96c-0.6,0-0.98,0.2-1.49,0.53l-0.54-0.34l0.29-4.07h4.19v0.84h-3.33l-0.24,2.66
							c0.41-0.23,0.82-0.37,1.36-0.37c1.45,0,2.64,0.83,2.64,2.67c0,1.84-1.39,2.88-2.83,2.88
							C303.65,237.93,302.83,237.35,302.24,236.77z"/>
						<path class="st26" d="M309.13,239.41c0.72-0.34,1.16-0.92,1.16-1.66l-0.13-0.94l0.52,0.76c-0.14,0.18-0.33,0.23-0.53,0.23
							c-0.4,0-0.74-0.26-0.74-0.72c0-0.45,0.35-0.72,0.76-0.72c0.54,0,0.86,0.46,0.86,1.21c0,1.11-0.64,1.98-1.66,2.42
							L309.13,239.41z"/>
						<path class="st26" d="M316.62,230.08h-4.31v-0.84h5.43v0.59c-2.01,2.61-2.46,4.61-2.6,7.93h-1.02
							C314.28,234.5,314.94,232.43,316.62,230.08z"/>
						<path class="st26" d="M318.65,236.77l0.5-0.65c0.5,0.51,1.14,0.99,2.19,0.99c1.06,0,1.92-0.79,1.92-2.02
							c0-1.23-0.74-1.96-1.88-1.96c-0.6,0-0.98,0.2-1.49,0.53l-0.54-0.34l0.29-4.07h4.19v0.84h-3.33l-0.24,2.66
							c0.41-0.23,0.82-0.37,1.36-0.37c1.45,0,2.64,0.83,2.64,2.67c0,1.84-1.39,2.88-2.83,2.88
							C320.05,237.93,319.23,237.35,318.65,236.77z"/>
						<path class="st26" d="M325.51,233.48c0-2.85,1-4.4,2.69-4.4c1.68,0,2.68,1.55,2.68,4.4c0,2.85-1,4.45-2.68,4.45
							C326.51,237.93,325.51,236.33,325.51,233.48z M329.94,233.48c0-2.53-0.7-3.6-1.73-3.6c-1.04,0-1.75,1.07-1.75,3.6
							c0,2.52,0.7,3.65,1.75,3.65C329.24,237.13,329.94,236,329.94,233.48z"/>
						<path class="st26" d="M342,228.54v0.8h-8.59v9.38h-0.8v-10.18H342z M342.02,232.97v0.79h-8.98v-0.79H342.02z M337.86,228.93
							v4.43h-0.8v-4.43H337.86z M342.45,228.54v9.06c0,0.54-0.14,0.81-0.53,0.95c-0.38,0.13-1.05,0.14-2.13,0.14
							c-0.05-0.22-0.18-0.59-0.31-0.81c0.85,0.03,1.63,0.02,1.86,0.01c0.23-0.01,0.3-0.08,0.3-0.3v-9.06H342.45z"/>
					</g>
				</g>
			</g>
		</g>
	</g>
</g>
<g>
	<defs>
		<rect id="SVGID_00000016055839172120575840000006472155135442924680_" x="-1.05" width="402" height="300.5"/>
	</defs>
	<clipPath id="SVGID_00000058568453751793718210000008887229535307968669_">
		<use xlink:href="#SVGID_00000016055839172120575840000006472155135442924680_"  style="overflow:visible;"/>
	</clipPath>
	<g style="clip-path:url(#SVGID_00000058568453751793718210000008887229535307968669_);enable-background:new    ;">
		<g>
			<defs>
				<rect id="SVGID_00000178883648241671006670000003177961243183068603_" x="104.95" y="75.05" width="81" height="21"/>
			</defs>
			<clipPath id="SVGID_00000052823254764368426090000013903461926091756187_">
				<use xlink:href="#SVGID_00000178883648241671006670000003177961243183068603_"  style="overflow:visible;"/>
			</clipPath>
			<g style="clip-path:url(#SVGID_00000052823254764368426090000013903461926091756187_);">
				<defs>
					<rect id="SVGID_00000093171303951796110900000002825815983774184343_" x="108.95" y="80.05" width="75" height="13"/>
				</defs>
				<clipPath id="SVGID_00000131328577657644137640000005778034895056936875_">
					<use xlink:href="#SVGID_00000093171303951796110900000002825815983774184343_"  style="overflow:visible;"/>
				</clipPath>
				<g style="clip-path:url(#SVGID_00000131328577657644137640000005778034895056936875_);">
					<g>
						<path class="st26" d="M110.15,90.2l0.5-0.65c0.5,0.51,1.14,0.99,2.19,0.99c1.06,0,1.92-0.79,1.92-2.02
							c0-1.23-0.74-1.96-1.88-1.96c-0.6,0-0.98,0.2-1.49,0.53l-0.54-0.34l0.29-4.07h4.19v0.84h-3.33l-0.24,2.66
							c0.41-0.23,0.82-0.37,1.36-0.37c1.45,0,2.64,0.83,2.64,2.67c0,1.84-1.39,2.88-2.83,2.88
							C111.55,91.36,110.73,90.78,110.15,90.2z"/>
						<path class="st26" d="M117.04,92.84c0.72-0.34,1.16-0.92,1.16-1.66l-0.13-0.94l0.52,0.76c-0.14,0.18-0.33,0.23-0.53,0.23
							c-0.4,0-0.74-0.26-0.74-0.72c0-0.45,0.35-0.72,0.76-0.72c0.54,0,0.86,0.46,0.86,1.21c0,1.11-0.64,1.98-1.66,2.42L117.04,92.84
							z"/>
						<path class="st26" d="M124.53,83.51h-4.31v-0.84h5.43v0.59c-2.01,2.61-2.46,4.61-2.6,7.93h-1.02
							C122.18,87.93,122.84,85.86,124.53,83.51z"/>
						<path class="st26" d="M127.29,90.37h1.97v-6.47h-1.56v-0.63c0.76-0.14,1.32-0.33,1.77-0.6h0.76v7.71h1.79v0.82h-4.72V90.37z"
							/>
						<path class="st26" d="M137.7,83.51h-4.31v-0.84h5.43v0.59c-2.01,2.61-2.46,4.61-2.6,7.93h-1.02
							C135.36,87.93,136.02,85.86,137.7,83.51z"/>
						<path class="st26" d="M140.03,92.84c0.72-0.34,1.16-0.92,1.16-1.66l-0.13-0.94l0.52,0.76c-0.14,0.18-0.33,0.23-0.53,0.23
							c-0.4,0-0.74-0.26-0.74-0.72c0-0.45,0.35-0.72,0.76-0.72c0.54,0,0.86,0.46,0.86,1.21c0,1.11-0.64,1.98-1.66,2.42L140.03,92.84
							z"/>
						<path class="st26" d="M143.16,90.62c2.62-2.63,4.06-4.18,4.06-5.6c0-0.99-0.53-1.72-1.67-1.72c-0.73,0-1.36,0.46-1.86,1.04
							l-0.58-0.56c0.7-0.77,1.45-1.28,2.55-1.28c1.56,0,2.52,0.98,2.52,2.47c0,1.63-1.49,3.24-3.6,5.45
							c0.46-0.04,0.99-0.08,1.44-0.08h2.58v0.84h-5.45V90.62z"/>
						<path class="st26" d="M149.54,90.2l0.5-0.65c0.5,0.51,1.14,0.99,2.19,0.99c1.06,0,1.92-0.79,1.92-2.02
							c0-1.23-0.74-1.96-1.88-1.96c-0.6,0-0.98,0.2-1.49,0.53l-0.54-0.34l0.29-4.07h4.19v0.84h-3.33l-0.24,2.66
							c0.41-0.23,0.82-0.37,1.36-0.37c1.45,0,2.64,0.83,2.64,2.67c0,1.84-1.39,2.88-2.83,2.88
							C150.95,91.36,150.13,90.78,149.54,90.2z"/>
						<path class="st26" d="M156.4,86.91c0-2.85,1-4.4,2.69-4.4c1.68,0,2.68,1.55,2.68,4.4c0,2.85-1,4.45-2.68,4.45
							C157.41,91.36,156.4,89.76,156.4,86.91z M160.83,86.91c0-2.53-0.7-3.6-1.73-3.6c-1.04,0-1.75,1.07-1.75,3.6
							c0,2.52,0.7,3.65,1.75,3.65C160.13,90.56,160.83,89.43,160.83,86.91z"/>
						<path class="st26" d="M172.89,81.97v0.8h-8.59v9.38h-0.8V81.97H172.89z M172.91,86.39v0.79h-8.98v-0.79H172.91z M168.75,82.36
							v4.43h-0.8v-4.43H168.75z M173.35,81.97v9.06c0,0.54-0.14,0.81-0.53,0.95c-0.38,0.13-1.05,0.14-2.13,0.14
							c-0.05-0.22-0.18-0.59-0.31-0.81c0.85,0.03,1.63,0.02,1.86,0.01c0.23-0.01,0.3-0.08,0.3-0.3v-9.06H173.35z"/>
					</g>
				</g>
			</g>
		</g>
	</g>
	
		<rect x="117.95" y="1.05" style="clip-path:url(#SVGID_00000058568453751793718210000008887229535307968669_);fill:#00A2FF;" width="9" height="8"/>
	<g style="clip-path:url(#SVGID_00000058568453751793718210000008887229535307968669_);">
		<g>
			<path d="M141.1,5.1l0.13-0.03l0.45,0.29c-1.24,2.52-4.08,3.69-7.11,4.21c-0.07-0.17-0.25-0.46-0.39-0.6
				c2.99-0.43,5.71-1.51,6.78-3.74V5.1H141.1z M142.9,3.31v2.01h-0.65V3.91h-7.24v1.41h-0.63V3.31H142.9z M142.3,0.93
				c-1.96,0.41-5.08,0.68-7.67,0.78c-0.01-0.17-0.09-0.42-0.16-0.58c2.57-0.12,5.66-0.38,7.35-0.75L142.3,0.93z M135.88,1.75
				c0.3,0.42,0.61,0.99,0.73,1.35l-0.6,0.2c-0.12-0.37-0.42-0.95-0.7-1.38L135.88,1.75z M141.19,5.1v0.63h-5.64V5.1H141.19z
				 M143.09,8.94c-0.14,0.15-0.32,0.43-0.41,0.62c-3.05-0.45-5.49-1.7-6.78-3.81l0.58-0.24C137.64,7.4,140.06,8.56,143.09,8.94z
				 M138.58,1.58c0.24,0.47,0.48,1.09,0.54,1.49l-0.63,0.16c-0.06-0.4-0.28-1.04-0.52-1.51L138.58,1.58z M142.1,1.77
				c-0.36,0.65-0.84,1.4-1.21,1.88l-0.53-0.19c0.36-0.5,0.82-1.32,1.07-1.89L142.1,1.77z"/>
			<path d="M147.99,2.08v0.57h-3.95V2.08H147.99z M145.1,6.11v3.37h-0.6V6.11H145.1z M147.61,3.44v0.54h-3.1V3.44H147.61z
				 M147.61,4.77v0.54h-3.1V4.77H147.61z M147.61,0.78v0.54h-3.05V0.78H147.61z M147.58,6.11v2.9h-2.75V8.44h2.15V6.68h-2.15V6.11
				H147.58z M153.15,4.12l0.11,0.63l-5.29,0.81l-0.11-0.64L153.15,4.12z M152.77,1.06c-1.17,0.49-2.94,0.87-4.48,1.12
				c-0.03-0.16-0.13-0.41-0.22-0.56c1.48-0.26,3.19-0.66,4.13-1.09L152.77,1.06z M150.61,1.47v6.87c0,0.41,0.07,0.49,0.42,0.49
				c0.17,0,1.02,0,1.23,0c0.32,0,0.38-0.31,0.42-1.56c0.16,0.12,0.43,0.24,0.63,0.29c-0.08,1.44-0.25,1.92-1.01,1.92
				c-0.17,0-1.18,0-1.35,0c-0.78,0-1-0.24-1-1.14V1.47H150.61z"/>
			<path d="M155.2,0.86v8.73h-0.66V0.86H155.2z M157.75,2.25v0.49h-2.86V2.25H157.75z M158.16,0.86v3.33h-3.21V3.67h2.57V1.38h-2.57
				V0.86H158.16z M161.34,6.55v0.58h-5.39V6.55H161.34z M157.85,5.05v1.81c0,0.61-0.24,1.91-1.38,2.68c-0.1-0.13-0.3-0.32-0.45-0.41
				c1.03-0.63,1.24-1.71,1.24-2.27v-1.8H157.85z M161.12,4.85V5.4h-4.98V4.85H161.12z M162.43,1.38h-2.71v2.3h2.71V4.2h-3.35V0.86
				h3.35V1.38z M159.94,5.02v4.38h-0.61V5.02H159.94z M162.38,2.25v0.49h-2.89V2.25H162.38z M162.78,0.86v7.83
				c0,0.42-0.1,0.64-0.38,0.76c-0.29,0.11-0.78,0.12-1.55,0.12c-0.03-0.18-0.11-0.49-0.22-0.67c0.57,0.01,1.11,0.01,1.27,0.01
				c0.16-0.01,0.21-0.06,0.21-0.21V0.86H162.78z"/>
			<path d="M167.8,0.86l0.13-0.03l0.45,0.22c-0.73,1.96-2.41,3.38-4.02,4.1c-0.09-0.15-0.28-0.39-0.42-0.51
				c1.5-0.61,3.11-2,3.74-3.65V0.86H167.8z M167.65,4.3v1.71c0,1.38-0.32,2.75-2.79,3.62c-0.08-0.16-0.29-0.4-0.43-0.53
				c2.29-0.78,2.55-1.96,2.55-3.1V4.3H167.65z M172.61,6.2v0.62h-7.98V6.2H172.61z M165.22,1.84c0.48,0.34,1.08,0.83,1.38,1.15
				l-0.45,0.42c-0.28-0.32-0.88-0.84-1.36-1.2L165.22,1.84z M167.9,0.86v0.59h-3.01V0.86H167.9z M171.39,4v0.64h-5.51V4H171.39z
				 M173.33,4.57c-0.16,0.14-0.36,0.39-0.47,0.57c-1.81-0.8-3.29-2.49-4.08-4.51l0.58-0.17C170.08,2.29,171.55,3.88,173.33,4.57z
				 M170.18,4.32v4.2c0,0.31,0.06,0.37,0.42,0.37c0.16,0,1,0,1.22,0c0.33,0,0.38-0.2,0.42-1.29c0.15,0.12,0.42,0.23,0.61,0.27
				c-0.07,1.27-0.26,1.63-0.97,1.63c-0.18,0-1.18,0-1.35,0c-0.81,0-1.02-0.21-1.02-0.99v-4.2H170.18z M171.84,0.88
				c-0.51,0.51-1.18,1.08-1.7,1.44L169.72,2c0.51-0.38,1.21-1.02,1.6-1.48L171.84,0.88z M173.01,2.02c-0.55,0.53-1.28,1.11-1.85,1.5
				l-0.41-0.33c0.55-0.39,1.32-1.06,1.76-1.53L173.01,2.02z"/>
		</g>
	</g>
	
		<rect x="256.95" y="1.05" style="clip-path:url(#SVGID_00000058568453751793718210000008887229535307968669_);fill:#61D836;" width="9" height="8"/>
	<g style="clip-path:url(#SVGID_00000058568453751793718210000008887229535307968669_);">
		<g>
			<path d="M273.78,6.2c-0.13,0.95-0.38,1.91-0.69,2.54c-0.11-0.08-0.37-0.2-0.51-0.25c0.33-0.61,0.53-1.51,0.65-2.39L273.78,6.2z
				 M275.79,4.68v0.58c-1.13,0.07-2.27,0.14-3.13,0.2l-0.08-0.61C273.41,4.81,274.59,4.75,275.79,4.68z M273.04,2.03
				c0.54,0.49,1.15,1.17,1.41,1.62l-0.38,0.48c-0.26-0.48-0.86-1.19-1.39-1.69L273.04,2.03z M275.9,1.81
				c-0.65,1.11-1.58,2.54-2.29,3.4l-0.41-0.22c0.72-0.88,1.62-2.38,2.14-3.43L275.9,1.81z M274.86,0.65
				c-0.36,0.73-0.83,1.63-1.2,2.19l-0.46-0.2c0.36-0.58,0.82-1.55,1.07-2.21L274.86,0.65z M274.81,5.1v4.48h-0.58V5.1H274.81z
				 M275.43,3.62c0.38,0.66,0.75,1.53,0.86,2.09l-0.52,0.22c-0.11-0.56-0.46-1.45-0.83-2.12L275.43,3.62z M275.63,6.07
				c0.24,0.58,0.45,1.33,0.5,1.82l-0.52,0.16c-0.05-0.5-0.24-1.26-0.47-1.84L275.63,6.07z M277.22,2.33v2.23
				c0,1.43-0.17,3.47-1.2,4.87c-0.1-0.12-0.35-0.31-0.5-0.38c0.98-1.32,1.09-3.15,1.09-4.5V2.33H277.22z M281.69,1.04v0.6h-5.47
				v-0.6H281.69z M281.45,2.33V4.6h-4.57V4.04h3.92V2.89h-3.92V2.33H281.45z M281.44,5.33v0.54h-3.81v3.72h-0.51V5.33H281.44z
				 M281.41,7.08v0.53h-4.03V7.08H281.41z M278.9,5.51v3.98h-0.47V5.51H278.9z M280.22,5.51v3.98h-0.47V5.51H280.22z M281.66,5.33
				v3.6c0,0.27-0.04,0.44-0.22,0.55c-0.18,0.09-0.44,0.1-0.82,0.1c-0.02-0.16-0.11-0.4-0.19-0.56c0.27,0.01,0.48,0.01,0.56,0.01
				c0.08-0.01,0.1-0.03,0.1-0.11V5.33H281.66z"/>
			<path d="M285.65,0.53c-0.57,1.08-1.41,2.32-2.59,3.31c-0.11-0.15-0.34-0.35-0.49-0.45c1.12-0.89,1.94-2.08,2.38-3L285.65,0.53z
				 M287.29,7c-0.98,1.05-2.77,2-4.23,2.47c-0.11-0.17-0.3-0.43-0.45-0.56c1.48-0.39,3.25-1.26,4.15-2.17L287.29,7z M291.75,6.53
				V7.1h-8.91V6.53H291.75z M284.7,2v3.32h6.78v0.54h-7.42V2H284.7z M291.07,1.62v0.56h-6.7V1.62H291.07z M290.68,2.89v0.49h-6.2
				V2.89H290.68z M290.71,4.09v0.5h-6.24v-0.5H290.71z M288.32,0.53c-0.26,0.52-0.57,1.08-0.83,1.45l-0.59-0.12
				c0.24-0.4,0.53-1.01,0.67-1.44L288.32,0.53z M287.6,5.7v3.88h-0.67V5.7H287.6z M287.76,1.94v3.6h-0.65v-3.6H287.76z M291.95,8.83
				c-0.14,0.14-0.33,0.38-0.43,0.55c-1.49-0.43-3.28-1.36-4.26-2.38l0.53-0.27C288.69,7.63,290.45,8.46,291.95,8.83z"/>
			<path d="M294.39,0.79c-0.24,1.04-0.63,2.09-1.06,2.77c-0.13-0.07-0.43-0.19-0.6-0.25c0.46-0.68,0.81-1.68,1.03-2.65L294.39,0.79z
				 M298.34,3.6v0.62h-5.59V3.6H298.34z M297.6,5.29V5.9h-3.76v2.85h-0.61V5.29H297.6z M297.94,1.88V2.5h-4.37l0.12-0.62H297.94z
				 M295.87,0.46v9.12h-0.64V0.46H295.87z M297.97,5.29v2.78c0,0.32-0.06,0.5-0.29,0.6c-0.22,0.1-0.61,0.11-1.18,0.11
				c-0.02-0.18-0.11-0.42-0.2-0.59c0.46,0.02,0.79,0.02,0.91,0c0.11,0,0.14-0.03,0.14-0.14V5.29H297.97z M299.74,1.35v5.52h-0.63
				V1.35H299.74z M301.54,0.51v8.1c0,0.47-0.12,0.67-0.42,0.8c-0.29,0.11-0.83,0.13-1.57,0.13c-0.04-0.19-0.13-0.5-0.23-0.72
				c0.6,0.02,1.17,0.02,1.35,0.01c0.15-0.01,0.21-0.05,0.21-0.22V0.51H301.54z"/>
			<path d="M305.84,0.66c-0.66,1.7-1.68,3.38-2.77,4.5c-0.07-0.16-0.27-0.51-0.4-0.67c1.01-0.98,1.95-2.49,2.53-4.03L305.84,0.66z
				 M304.79,2.33l0.01,0.02v7.21h-0.67V3L304.79,2.33z M308.21,0.71c-0.57,1.58-1.43,3.14-2.35,4.16c-0.1-0.11-0.37-0.35-0.52-0.46
				c0.91-0.94,1.72-2.4,2.22-3.87L308.21,0.71z M311.88,2.1v0.65h-5.04l0.32-0.65H311.88z M308.74,2.31v7.26h-0.68V2.31H308.74z
				 M311.8,6.47V7.1h-3.41V6.47H311.8z M311.66,4.26v0.62h-3.27V4.26H311.66z"/>
		</g>
	</g>
</g>
</svg>
