<?xml version="1.0" encoding="UTF-8"?><svg id="a" xmlns="http://www.w3.org/2000/svg" xmlns:xlink="http://www.w3.org/1999/xlink" viewBox="0 0 438.78 267"><defs><style>.bg,.bh,.bi,.bj,.bk{fill:none;}.bh,.bi,.bj,.bk{stroke-width:.89px;}.bh,.bk{stroke:#d5d5d5;}.bi{stroke:#b8b8b8;}.bl{fill:#00a2ff;}.bm{fill:#61d836;}.bj{stroke:#000;stroke-linecap:square;}.bk{stroke-dasharray:0 0 1.78 1.78;}.bn{clip-path:url(#v);}.bo{clip-path:url(#u);}.bp{clip-path:url(#t);}.bq{clip-path:url(#y);}.br{clip-path:url(#x);}.bs{clip-path:url(#w);}.bt{clip-path:url(#c);}.bu{clip-path:url(#b);}.bv{clip-path:url(#f);}.bw{clip-path:url(#e);}.bx{clip-path:url(#d);}.by{clip-path:url(#n);}.c`{clip-path:url(#m);}.ca{clip-path:url(#l);}.cb{clip-path:url(#k);}.cc{clip-path:url(#j);}.cd{clip-path:url(#i);}.ce{clip-path:url(#h);}.cf{clip-path:url(#g);}.cg{clip-path:url(#s);}.ch{clip-path:url(#r);}.ci{clip-path:url(#q);}.cj{clip-path:url(#p);}.ck{clip-path:url(#o);}.cl{clip-path:url(#bb);}.cm{clip-path:url(#ba);}.cn{clip-path:url(#bd);}.co{clip-path:url(#b`);}.cp{clip-path:url(#bf);}.cq{clip-path:url(#be);}.cr{clip-path:url(#bc);}.cs{clip-path:url(#ah);}.ct{clip-path:url(#ag);}.cu{clip-path:url(#ab);}.cv{clip-path:url(#aa);}.cw{clip-path:url(#as);}.cx{clip-path:url(#ak);}.cy{clip-path:url(#av);}.d`{clip-path:url(#au);}.da{clip-path:url(#ay);}.db{clip-path:url(#at);}.dc{clip-path:url(#ac);}.dd{clip-path:url(#an);}.de{clip-path:url(#am);}.df{clip-path:url(#ax);}.dg{clip-path:url(#aw);}.dh{clip-path:url(#ar);}.di{clip-path:url(#aq);}.dj{clip-path:url(#al);}.dk{clip-path:url(#af);}.dl{clip-path:url(#ae);}.dm{clip-path:url(#ap);}.dn{clip-path:url(#ao);}.do{clip-path:url(#aj);}.dp{clip-path:url(#ai);}.dq{clip-path:url(#ad);}.dr{clip-path:url(#a`);}.ds{isolation:isolate;}</style><clipPath id="b"><rect class="bg" width="438.78" height="267"/></clipPath><clipPath id="c"><rect class="bg" x="4.96" y="249.65" width="8.52" height="10.68"/></clipPath><clipPath id="d"><rect class="bg" x="4.96" y="204.34" width="8.52" height="10.68"/></clipPath><clipPath id="e"><rect class="bg" y="159.04" width="13.47" height="10.68"/></clipPath><clipPath id="f"><rect class="bg" y="113.74" width="13.47" height="10.68"/></clipPath><clipPath id="g"><rect class="bg" y="68.44" width="13.47" height="10.68"/></clipPath><clipPath id="h"><rect class="bg" y="23.14" width="13.47" height="10.68"/></clipPath><clipPath id="i"><rect class="bg" width="438.78" height="267"/></clipPath><clipPath id="j"><rect class="bg" x="30.13" y="257.21" width="17.45" height="9.79"/></clipPath><clipPath id="k"><rect class="bg" x="64.88" y="257.21" width="17.42" height="9.79"/></clipPath><clipPath id="l"><rect class="bg" x="99.62" y="257.21" width="17.42" height="9.79"/></clipPath><clipPath id="m"><rect class="bg" x="134.36" y="257.21" width="17.42" height="9.79"/></clipPath><clipPath id="n"><rect class="bg" x="169.1" y="257.21" width="17.42" height="9.79"/></clipPath><clipPath id="o"><rect class="bg" x="203.83" y="257.21" width="17.42" height="9.79"/></clipPath><clipPath id="p"><rect class="bg" x="235.65" y="257.21" width="23.26" height="9.79"/></clipPath><clipPath id="q"><rect class="bg" x="270.39" y="257.21" width="23.26" height="9.79"/></clipPath><clipPath id="r"><rect class="bg" x="305.12" y="257.21" width="23.26" height="9.79"/></clipPath><clipPath id="s"><rect class="bg" x="342.79" y="257.21" width="17.42" height="9.79"/></clipPath><clipPath id="t"><rect class="bg" x="377.52" y="257.21" width="17.42" height="9.79"/></clipPath><clipPath id="u"><rect class="bg" x="412.26" y="257.21" width="17.42" height="9.79"/></clipPath><clipPath id="v"><rect class="bg" x="40.02" y="137.34" width="13" height="117.65"/></clipPath><clipPath id="w"><rect class="bg" x="40.02" y="137.34" width="13" height="118"/></clipPath><clipPath id="x"><rect class="bg" x="40.02" y="137.34" width="13" height="117"/></clipPath><clipPath id="y"><rect class="bg" x="74.02" y="218.34" width="14" height="36.65"/></clipPath><clipPath id="a`"><rect class="bg" x="74.02" y="218.34" width="14" height="37"/></clipPath><clipPath id="aa"><rect class="bg" x="74.02" y="218.34" width="14" height="36"/></clipPath><clipPath id="ab"><rect class="bg" x="109.02" y="209.34" width="14" height="45.65"/></clipPath><clipPath id="ac"><rect class="bg" x="109.02" y="209.34" width="14" height="46"/></clipPath><clipPath id="ad"><rect class="bg" x="109.02" y="209.34" width="14" height="45"/></clipPath><clipPath id="ae"><rect class="bg" x="144.02" y="182.34" width="14" height="72"/></clipPath><clipPath id="af"><rect class="bg" x="144.02" y="182.34" width="14" height="72"/></clipPath><clipPath id="ag"><rect class="bg" x="144.02" y="182.34" width="14" height="72"/></clipPath><clipPath id="ah"><rect class="bg" x="178.02" y="227.34" width="14" height="27.65"/></clipPath><clipPath id="ai"><rect class="bg" x="178.02" y="227.34" width="14" height="28"/></clipPath><clipPath id="aj"><rect class="bg" x="178.02" y="227.34" width="14" height="27"/></clipPath><clipPath id="ak"><rect class="bg" x="317.02" y="218.34" width="14" height="36.65"/></clipPath><clipPath id="al"><rect class="bg" x="317.02" y="218.34" width="14" height="37"/></clipPath><clipPath id="am"><rect class="bg" x="317.02" y="218.34" width="14" height="36"/></clipPath><clipPath id="an"><rect class="bg" x="352.02" y="191.34" width="14" height="63"/></clipPath><clipPath id="ao"><rect class="bg" x="352.02" y="191.34" width="14" height="63"/></clipPath><clipPath id="ap"><rect class="bg" x="352.02" y="191.34" width="14" height="63"/></clipPath><clipPath id="aq"><rect class="bg" x="94.02" y="200.34" width="14" height="54"/></clipPath><clipPath id="ar"><rect class="bg" x="94.02" y="200.34" width="14" height="54"/></clipPath><clipPath id="as"><rect class="bg" x="94.02" y="200.34" width="14" height="54"/></clipPath><clipPath id="at"><rect class="bg" x="128.02" y="246.34" width="14" height="8"/></clipPath><clipPath id="au"><rect class="bg" x="128.02" y="246.34" width="14" height="8"/></clipPath><clipPath id="av"><rect class="bg" x="128.02" y="246.34" width="14" height="8"/></clipPath><clipPath id="aw"><rect class="bg" x="337.02" y="182.34" width="14" height="72"/></clipPath><clipPath id="ax"><rect class="bg" x="337.02" y="182.34" width="14" height="72"/></clipPath><clipPath id="ay"><rect class="bg" x="337.02" y="182.34" width="14" height="72"/></clipPath><clipPath id="b`"><rect class="bg" x="372.02" y="209.34" width="14" height="45.65"/></clipPath><clipPath id="ba"><rect class="bg" x="372.02" y="209.34" width="14" height="46"/></clipPath><clipPath id="bb"><rect class="bg" x="372.02" y="209.34" width="14" height="45"/></clipPath><clipPath id="bc"><rect class="bg" x="406.02" y="246.34" width="14" height="8"/></clipPath><clipPath id="bd"><rect class="bg" x="406.02" y="246.34" width="14" height="8"/></clipPath><clipPath id="be"><rect class="bg" x="406.02" y="246.34" width="14" height="8"/></clipPath><clipPath id="bf"><rect class="bg" width="438.78" height="267"/></clipPath></defs><g class="bu"><line class="bi" x1="21.02" y1="209.84" x2="438.02" y2="209.84"/><line class="bi" x1="21.02" y1="164.84" x2="438.02" y2="164.84"/><line class="bi" x1="21.02" y1="118.84" x2="438.02" y2="118.84"/><line class="bi" x1="21.02" y1="73.84" x2="438.02" y2="73.84"/><line class="bi" x1="21.02" y1="28.84" x2="438.02" y2="28.84"/><line class="bk" x1="21.02" y1="231.84" x2="438.02" y2="231.84"/><line class="bk" x1="21.02" y1="186.84" x2="438.02" y2="186.84"/><line class="bk" x1="21.02" y1="141.84" x2="438.02" y2="141.84"/><line class="bk" x1="21.02" y1="96.84" x2="438.02" y2="96.84"/><line class="bk" x1="21.02" y1="50.84" x2="438.02" y2="50.84"/><line class="bh" x1="21.52" y1="28.34" x2="21.52" y2="255.34"/><line class="bh" x1="56.52" y1="28.34" x2="56.52" y2="255.34"/><line class="bh" x1="90.52" y1="28.34" x2="90.52" y2="255.34"/><line class="bh" x1="125.52" y1="28.34" x2="125.52" y2="255.34"/><line class="bh" x1="160.52" y1="28.34" x2="160.52" y2="255.34"/><line class="bh" x1="195.52" y1="28.34" x2="195.52" y2="255.34"/><line class="bh" x1="229.52" y1="28.34" x2="229.52" y2="255.34"/><line class="bh" x1="264.52" y1="28.34" x2="264.52" y2="255.34"/><line class="bh" x1="299.52" y1="28.34" x2="299.52" y2="255.34"/><line class="bh" x1="334.52" y1="28.34" x2="334.52" y2="255.34"/><line class="bh" x1="368.52" y1="28.34" x2="368.52" y2="255.34"/><line class="bh" x1="403.52" y1="28.34" x2="403.52" y2="255.34"/><line class="bh" x1="438.52" y1="28.34" x2="438.52" y2="255.34"/></g><g class="bt"><path d="M7.58,257.82c-.24-.24-.43-.52-.53-.82-.22-.62-.34-1.33-.34-2.05,0-.94,.2-1.9,.52-2.42,.43-.72,1.11-1.09,1.99-1.09,.66,0,1.23,.21,1.63,.63,.25,.25,.43,.53,.53,.82,.22,.61,.34,1.33,.34,2.06,0,1.08-.23,2.03-.62,2.57-.44,.62-1.07,.93-1.89,.93-.66,0-1.21-.21-1.63-.63Zm.52-5.32c-.19,.2-.33,.43-.4,.65-.19,.54-.28,1.15-.28,1.8,0,.83,.18,1.7,.42,2.12,.31,.52,.77,.77,1.38,.77,.44,0,.83-.14,1.09-.42,.2-.2,.34-.44,.42-.69,.19-.55,.28-1.14,.28-1.8,0-.77-.17-1.66-.4-2.07-.29-.53-.77-.81-1.4-.81-.46,0-.83,.15-1.11,.45Z"/></g><g class="bx"><path d="M7.86,208.83q-.02,.16-.07,.4c.43-.41,.94-.61,1.56-.61,.65,0,1.2,.21,1.6,.61,.4,.38,.6,.91,.6,1.57,0,1.43-.93,2.35-2.4,2.35-.69,0-1.27-.21-1.7-.61-.22-.22-.35-.41-.56-.84l.73-.21c.09,.25,.15,.36,.28,.52,.3,.34,.75,.52,1.26,.52,1,0,1.66-.68,1.66-1.7s-.61-1.62-1.56-1.62c-.45,0-.85,.12-1.17,.37-.21,.17-.31,.29-.41,.53l-.67-.06c.07-.35,.1-.53,.13-.92l.2-2.01c.02-.26,.03-.37,.03-.53,0-.12,0-.16-.02-.38,.28,.04,.42,.04,.94,.04h1.83c.48,0,.69-.02,1.04-.07v.76c-.34-.05-.62-.07-1.04-.07h-2.09l-.19,1.97Z"/></g><g class="bw"><g><path d="M1.88,160.91c.23,.04,.4,.04,.74,.04h.56c.3,0,.44,0,.74-.04-.05,.54-.08,1-.08,1.48v4.32c0,.42,.02,.68,.07,1h-.85c.05-.31,.07-.6,.07-1v-5.15h-.48c-.28,0-.52,.02-.77,.05v-.7Z"/><path d="M7.58,167.21c-.24-.24-.43-.52-.53-.82-.22-.62-.34-1.33-.34-2.05,0-.94,.2-1.9,.52-2.42,.43-.72,1.11-1.09,1.99-1.09,.66,0,1.23,.21,1.63,.63,.25,.25,.43,.53,.53,.82,.22,.61,.34,1.33,.34,2.06,0,1.08-.23,2.03-.62,2.57-.44,.62-1.07,.93-1.89,.93-.66,0-1.21-.21-1.63-.63Zm.52-5.32c-.19,.2-.33,.43-.4,.65-.19,.54-.28,1.15-.28,1.8,0,.83,.18,1.7,.42,2.12,.31,.52,.77,.77,1.38,.77,.44,0,.83-.14,1.09-.42,.2-.2,.34-.44,.42-.69,.19-.55,.28-1.14,.28-1.8,0-.77-.17-1.66-.4-2.07-.29-.53-.77-.81-1.4-.81-.46,0-.83,.15-1.11,.45Z"/></g></g><g class="bv"><g><path d="M1.88,115.61c.23,.04,.4,.04,.74,.04h.56c.3,0,.44,0,.74-.04-.05,.54-.08,1-.08,1.48v4.32c0,.42,.02,.68,.07,1h-.85c.05-.31,.07-.6,.07-1v-5.15h-.48c-.28,0-.52,.02-.77,.05v-.7Z"/><path d="M7.86,118.23q-.02,.16-.07,.4c.43-.41,.94-.61,1.56-.61,.65,0,1.2,.21,1.6,.61,.4,.38,.6,.91,.6,1.57,0,1.43-.93,2.35-2.4,2.35-.69,0-1.27-.21-1.7-.61-.22-.22-.35-.41-.56-.84l.73-.21c.09,.25,.15,.36,.28,.52,.3,.34,.75,.52,1.26,.52,1,0,1.66-.68,1.66-1.7s-.61-1.62-1.56-1.62c-.45,0-.85,.12-1.17,.37-.21,.17-.31,.29-.41,.53l-.67-.06c.07-.35,.1-.53,.13-.92l.2-2.01c.02-.26,.03-.37,.03-.53,0-.12,0-.16-.02-.38,.28,.04,.42,.04,.94,.04h1.83c.48,0,.69-.02,1.04-.07v.76c-.34-.05-.62-.07-1.04-.07h-2.09l-.19,1.97Z"/></g></g><g class="cf"><g><path d="M1.95,77.11c-.56,0-.69,0-.98,.04,.1-.7,.12-.84,.26-1.17,.22-.56,.6-1.05,1.16-1.53,.31-.27,.33-.28,1.36-.98,.88-.6,1.17-.99,1.17-1.53,0-.68-.57-1.11-1.48-1.11-.59,0-1.02,.2-1.29,.58-.17,.24-.25,.45-.31,.9l-.75-.12c.13-.64,.27-.95,.56-1.28,.4-.45,1-.68,1.79-.68,1.34,0,2.21,.68,2.21,1.73,0,.45-.18,.88-.52,1.26-.27,.3-.5,.47-1.51,1.15-.7,.47-.99,.72-1.28,1.09-.28,.36-.4,.6-.51,1.03h2.84c.44,0,.75-.02,1.08-.06v.75c-.36-.04-.65-.05-1.09-.05H1.95Z"/><path d="M7.58,76.61c-.24-.24-.43-.52-.53-.82-.22-.62-.34-1.33-.34-2.05,0-.94,.2-1.9,.52-2.42,.43-.72,1.11-1.09,1.99-1.09,.66,0,1.23,.21,1.63,.63,.25,.25,.43,.53,.53,.82,.22,.61,.34,1.33,.34,2.06,0,1.08-.23,2.03-.62,2.57-.44,.62-1.07,.93-1.89,.93-.66,0-1.21-.21-1.63-.63Zm.52-5.32c-.19,.2-.33,.43-.4,.65-.19,.54-.28,1.15-.28,1.8,0,.83,.18,1.7,.42,2.12,.31,.52,.77,.77,1.38,.77,.44,0,.83-.14,1.09-.42,.2-.2,.34-.44,.42-.69,.19-.55,.28-1.14,.28-1.8,0-.77-.17-1.66-.4-2.07-.29-.53-.77-.81-1.4-.81-.46,0-.83,.15-1.11,.45Z"/></g></g><g class="ce"><g><path d="M1.95,31.81c-.56,0-.69,0-.98,.04,.1-.7,.12-.84,.26-1.17,.22-.56,.6-1.05,1.16-1.53,.31-.27,.33-.28,1.36-.98,.88-.6,1.17-.99,1.17-1.53,0-.68-.57-1.11-1.48-1.11-.59,0-1.02,.2-1.29,.58-.17,.24-.25,.45-.31,.9l-.75-.12c.13-.64,.27-.95,.56-1.28,.4-.45,1-.69,1.79-.69,1.34,0,2.21,.68,2.21,1.73,0,.45-.18,.88-.52,1.26-.27,.3-.5,.47-1.51,1.15-.7,.47-.99,.72-1.28,1.09-.28,.36-.4,.6-.51,1.03h2.84c.44,0,.75-.02,1.08-.06v.75c-.36-.04-.65-.05-1.09-.05H1.95Z"/><path d="M7.86,27.63q-.02,.16-.07,.4c.43-.41,.94-.61,1.56-.61,.65,0,1.2,.21,1.6,.6,.4,.38,.6,.91,.6,1.57,0,1.43-.93,2.35-2.4,2.35-.69,0-1.27-.2-1.7-.6-.22-.22-.35-.41-.56-.84l.73-.21c.09,.25,.15,.36,.28,.52,.3,.34,.75,.52,1.26,.52,1,0,1.66-.68,1.66-1.7s-.61-1.62-1.56-1.62c-.45,0-.85,.12-1.17,.37-.21,.17-.31,.29-.41,.53l-.67-.06c.07-.35,.1-.53,.13-.92l.2-2.01c.02-.26,.03-.36,.03-.53,0-.12,0-.16-.02-.38,.28,.04,.42,.04,.94,.04h1.83c.48,0,.69-.02,1.04-.07v.76c-.34-.05-.62-.07-1.04-.07h-2.09l-.19,1.97Z"/></g></g><g class="cd"><line class="bj" x1="21.52" y1="254.84" x2="438.52" y2="254.84"/></g><g class="cc"><g><path d="M31.74,263.52c.19-.21,.39-.46,.58-.68l2.25-2.81c.3-.37,.46-.6,.67-.91h.67c-.04,.53-.05,.8-.05,1.5v2.92h.34c.37,0,.6-.02,.93-.06v.74c-.33-.04-.55-.06-.93-.06h-.33v.77c0,.43,.02,.63,.07,.96h-.81c.05-.31,.07-.56,.07-.96v-.77h-2.38c-.5,0-.77,0-1.06,.04v-.67Zm3.45-2.23c0-.47,0-.76,.05-1.21-.19,.27-.41,.56-.67,.89l-2.05,2.58h2.66v-2.26Z"/><path d="M39.82,263.66c-.08,.52-.2,.96-.36,1.38-.23,.59-.48,.98-.98,1.55-.16-.2-.28-.33-.49-.47,.55-.55,.84-1.02,1.05-1.74,.25-.85,.35-1.94,.35-3.91,0-.82,0-1.17-.04-1.51,.32,.04,.55,.04,.93,.04h3.34c.39,0,.62,0,.93-.04-.03,.24-.04,.46-.04,.92v5.85c0,.32-.08,.51-.25,.62-.14,.09-.31,.12-.71,.12-.29,0-.67,0-1.07-.04-.03-.23-.06-.37-.14-.6,.44,.06,.85,.09,1.27,.09,.26,0,.33-.05,.33-.28v-1.97h-4.13Zm4.13-.53v-1.58h-3.97c0,.49-.03,.83-.1,1.58h4.07Zm0-2.12v-1.48h-3.96v1.48h3.96Z"/></g></g><g class="cb"><g><path d="M67.78,261.7q-.02,.16-.07,.4c.43-.41,.94-.61,1.56-.61,.65,0,1.2,.21,1.6,.61,.4,.38,.6,.91,.6,1.57,0,1.43-.93,2.35-2.4,2.35-.69,0-1.27-.21-1.7-.61-.22-.22-.35-.41-.56-.84l.73-.21c.09,.25,.15,.36,.28,.52,.3,.34,.75,.52,1.26,.52,1,0,1.66-.68,1.66-1.7s-.61-1.62-1.56-1.62c-.45,0-.85,.12-1.17,.37-.21,.17-.31,.29-.41,.53l-.67-.06c.07-.35,.1-.53,.13-.92l.2-2.01c.02-.26,.03-.37,.03-.53,0-.12,0-.16-.02-.38,.28,.04,.42,.04,.94,.04h1.83c.48,0,.68-.02,1.04-.07v.76c-.34-.05-.62-.07-1.04-.07h-2.09l-.19,1.97Z"/><path d="M74.54,263.66c-.08,.52-.2,.96-.36,1.38-.23,.59-.48,.98-.98,1.55-.16-.2-.28-.33-.49-.47,.55-.55,.84-1.02,1.05-1.74,.25-.85,.35-1.94,.35-3.91,0-.82,0-1.17-.04-1.51,.32,.04,.55,.04,.93,.04h3.34c.39,0,.62,0,.93-.04-.03,.24-.04,.46-.04,.92v5.85c0,.32-.08,.51-.25,.62-.14,.09-.31,.12-.71,.12-.29,0-.67,0-1.07-.04-.03-.23-.06-.37-.14-.6,.44,.06,.85,.09,1.27,.09,.26,0,.33-.05,.33-.28v-1.97h-4.13Zm4.13-.53v-1.58h-3.97c0,.49-.03,.83-.1,1.58h4.07Zm0-2.12v-1.48h-3.96v1.48h3.96Z"/></g></g><g class="ca"><g><path d="M105.42,260.59c-.12-.28-.18-.41-.31-.56-.27-.29-.61-.44-1.06-.44-.69,0-1.22,.37-1.54,1.1-.23,.53-.31,.94-.37,1.91,.16-.28,.25-.4,.44-.57,.42-.37,.89-.54,1.5-.54,1.38,0,2.23,.85,2.23,2.22s-.93,2.29-2.33,2.29c-.63,0-1.23-.21-1.61-.56-.58-.53-.9-1.53-.9-2.79,0-1.11,.25-2.11,.68-2.69,.47-.64,1.1-.97,1.88-.97,.53,0,1.01,.13,1.35,.37,.31,.22,.49,.46,.75,1l-.71,.23Zm-1.43,1.5c-.44,0-.92,.2-1.23,.51-.29,.29-.44,.68-.44,1.13,0,.96,.72,1.67,1.68,1.67,.58,0,1.11-.28,1.39-.72,.14-.23,.23-.6,.23-.94,0-1.05-.59-1.65-1.63-1.65Z"/><path d="M109.28,263.66c-.08,.52-.2,.96-.36,1.38-.23,.59-.48,.98-.98,1.55-.16-.2-.28-.33-.49-.47,.55-.55,.84-1.02,1.05-1.74,.25-.85,.35-1.94,.35-3.91,0-.82,0-1.17-.04-1.51,.32,.04,.55,.04,.93,.04h3.34c.39,0,.62,0,.93-.04-.03,.24-.04,.46-.04,.92v5.85c0,.32-.08,.51-.25,.62-.14,.09-.31,.12-.71,.12-.29,0-.67,0-1.07-.04-.03-.23-.06-.37-.14-.6,.44,.06,.85,.09,1.27,.09,.26,0,.33-.05,.33-.28v-1.97h-4.13Zm4.13-.53v-1.58h-3.97c0,.49-.03,.83-.1,1.58h4.07Zm0-2.12v-1.48h-3.96v1.48h3.96Z"/></g></g><g class="c`"><g><path d="M140.96,259.72c-.16,.12-.31,.32-.66,.85-.8,1.24-1.17,1.99-1.52,3.08-.23,.74-.33,1.19-.47,2.22h-.84c.28-1.61,.52-2.41,1.08-3.55,.43-.89,.81-1.5,1.6-2.58h-2.89c-.42,0-.67,.02-1,.06v-.76c.35,.04,.59,.06,1.01,.06h2.67c.52,0,.72,0,1.03-.04v.65Z"/><path d="M144.01,263.66c-.08,.52-.2,.96-.36,1.38-.23,.59-.48,.98-.98,1.55-.16-.2-.28-.33-.49-.47,.55-.55,.84-1.02,1.05-1.74,.25-.85,.35-1.94,.35-3.91,0-.82,0-1.17-.04-1.51,.32,.04,.55,.04,.93,.04h3.34c.39,0,.62,0,.93-.04-.03,.24-.04,.46-.04,.92v5.85c0,.32-.08,.51-.25,.62-.14,.09-.31,.12-.71,.12-.29,0-.67,0-1.07-.04-.03-.23-.06-.37-.14-.6,.44,.06,.85,.09,1.27,.09,.26,0,.33-.05,.33-.28v-1.97h-4.13Zm4.13-.53v-1.58h-3.97c0,.49-.03,.83-.1,1.58h4.07Zm0-2.12v-1.48h-3.96v1.48h3.96Z"/></g></g><g class="by"><g><path d="M175.17,262.72c.44,.33,.67,.8,.67,1.4,0,1.22-.89,1.9-2.46,1.9s-2.53-.68-2.53-1.9c0-.64,.26-1.13,.79-1.48,.28-.18,.47-.25,.8-.3-.78-.14-1.29-.77-1.29-1.6,0-1.08,.85-1.76,2.19-1.76s2.2,.67,2.2,1.76c0,.83-.5,1.45-1.29,1.6,.37,.05,.62,.16,.92,.38Zm-3.59,1.35c0,.85,.65,1.34,1.75,1.34,.62,0,1.13-.16,1.43-.46,.22-.21,.34-.52,.34-.88,0-.87-.67-1.4-1.76-1.4s-1.76,.53-1.76,1.4Zm.27-3.28c0,.79,.57,1.27,1.5,1.27s1.49-.48,1.49-1.27c0-.75-.59-1.22-1.5-1.22s-1.49,.48-1.49,1.22Z"/><path d="M178.75,263.66c-.08,.52-.2,.96-.36,1.38-.23,.59-.48,.98-.98,1.55-.16-.2-.28-.33-.49-.47,.55-.55,.84-1.02,1.05-1.74,.25-.85,.35-1.94,.35-3.91,0-.82,0-1.17-.04-1.51,.32,.04,.55,.04,.93,.04h3.34c.39,0,.62,0,.93-.04-.03,.24-.04,.46-.04,.92v5.85c0,.32-.08,.51-.25,.62-.14,.09-.31,.12-.71,.12-.29,0-.67,0-1.07-.04-.03-.23-.06-.37-.14-.6,.44,.06,.85,.09,1.27,.09,.26,0,.33-.05,.33-.28v-1.97h-4.13Zm4.13-.53v-1.58h-3.97c0,.49-.03,.83-.1,1.58h4.07Zm0-2.12v-1.48h-3.96v1.48h3.96Z"/></g></g><g class="ck"><g><path d="M206.48,264.4c.11,.29,.18,.42,.32,.57,.25,.28,.63,.42,1.12,.42,.64,0,1.1-.26,1.43-.82,.17-.28,.31-.72,.38-1.14,.04-.22,.06-.59,.08-1.04-.12,.24-.2,.33-.36,.5-.45,.43-.95,.62-1.62,.62s-1.22-.2-1.6-.59c-.38-.38-.6-.97-.6-1.6,0-1.41,.95-2.34,2.41-2.34,1,0,1.81,.57,2.15,1.49,.18,.48,.26,1.08,.26,1.85,0,1.24-.26,2.24-.74,2.84-.44,.56-1.03,.83-1.85,.83-.61,0-1.11-.16-1.49-.48-.25-.21-.39-.41-.62-.88l.73-.23Zm3.17-3.13c0-.96-.71-1.68-1.66-1.68-.59,0-1.12,.29-1.41,.76-.14,.23-.23,.59-.23,.93,0,1,.61,1.64,1.58,1.64s1.73-.7,1.73-1.65Z"/><path d="M213.49,263.66c-.08,.52-.2,.96-.36,1.38-.23,.59-.48,.98-.98,1.55-.16-.2-.28-.33-.49-.47,.55-.55,.84-1.02,1.05-1.74,.25-.85,.35-1.94,.35-3.91,0-.82,0-1.17-.04-1.51,.32,.04,.55,.04,.93,.04h3.34c.39,0,.62,0,.93-.04-.03,.24-.04,.46-.04,.92v5.85c0,.32-.08,.51-.25,.62-.14,.09-.31,.12-.71,.12-.29,0-.67,0-1.07-.04-.03-.23-.06-.37-.14-.6,.44,.06,.85,.09,1.27,.09,.26,0,.33-.05,.33-.28v-1.97h-4.13Zm4.13-.53v-1.58h-3.97c0,.49-.03,.83-.1,1.58h4.07Zm0-2.12v-1.48h-3.96v1.48h3.96Z"/></g></g><g class="cj"><g><path d="M238.42,259.07c.23,.04,.4,.04,.74,.04h.56c.3,0,.44,0,.74-.04-.05,.54-.08,1-.08,1.48v4.32c0,.42,.02,.68,.07,1h-.85c.05-.31,.07-.6,.07-1v-5.15h-.48c-.28,0-.52,.02-.77,.05v-.7Z"/><path d="M244.12,265.38c-.24-.24-.43-.52-.53-.82-.22-.62-.34-1.33-.34-2.05,0-.94,.21-1.9,.52-2.42,.43-.72,1.11-1.09,1.99-1.09,.66,0,1.23,.21,1.63,.63,.25,.25,.43,.53,.53,.82,.22,.61,.34,1.33,.34,2.06,0,1.08-.23,2.03-.62,2.57-.44,.62-1.07,.93-1.89,.93-.66,0-1.21-.21-1.63-.63Zm.52-5.32c-.19,.2-.33,.43-.4,.65-.19,.54-.28,1.15-.28,1.8,0,.83,.18,1.7,.42,2.12,.31,.52,.77,.77,1.38,.77,.44,0,.83-.14,1.09-.42,.2-.2,.34-.44,.42-.69,.19-.55,.28-1.14,.28-1.8,0-.77-.17-1.66-.4-2.07-.29-.53-.77-.81-1.4-.81-.46,0-.83,.15-1.11,.45Z"/><path d="M251.15,263.66c-.08,.52-.2,.96-.36,1.38-.23,.59-.48,.98-.98,1.55-.16-.2-.29-.33-.49-.47,.55-.55,.84-1.02,1.05-1.74,.25-.85,.35-1.94,.35-3.91,0-.82,0-1.17-.04-1.51,.32,.04,.55,.04,.93,.04h3.34c.39,0,.62,0,.93-.04-.03,.24-.04,.46-.04,.92v5.85c0,.32-.08,.51-.25,.62-.14,.09-.31,.12-.71,.12-.29,0-.67,0-1.07-.04-.03-.23-.06-.37-.14-.6,.45,.06,.85,.09,1.27,.09,.26,0,.33-.05,.33-.28v-1.97h-4.13Zm4.13-.53v-1.58h-3.97c0,.49-.03,.83-.1,1.58h4.07Zm0-2.12v-1.48h-3.96v1.48h3.96Z"/></g></g><g class="ci"><g><path d="M273.15,259.07c.23,.04,.4,.04,.74,.04h.56c.3,0,.44,0,.74-.04-.05,.54-.08,1-.08,1.48v4.32c0,.42,.02,.68,.07,1h-.85c.05-.31,.07-.6,.07-1v-5.15h-.48c-.28,0-.52,.02-.77,.05v-.7Z"/><path d="M279,259.07c.23,.04,.4,.04,.74,.04h.56c.3,0,.44,0,.74-.04-.05,.54-.08,1-.08,1.48v4.32c0,.42,.02,.68,.07,1h-.85c.05-.31,.07-.6,.07-1v-5.15h-.48c-.28,0-.52,.02-.77,.05v-.7Z"/><path d="M285.89,263.66c-.08,.52-.2,.96-.36,1.38-.23,.59-.48,.98-.98,1.55-.16-.2-.29-.33-.49-.47,.55-.55,.84-1.02,1.05-1.74,.25-.85,.35-1.94,.35-3.91,0-.82,0-1.17-.04-1.51,.32,.04,.55,.04,.93,.04h3.34c.39,0,.62,0,.93-.04-.03,.24-.04,.46-.04,.92v5.85c0,.32-.08,.51-.25,.62-.14,.09-.31,.12-.71,.12-.29,0-.67,0-1.07-.04-.03-.23-.06-.37-.14-.6,.45,.06,.85,.09,1.27,.09,.26,0,.33-.05,.33-.28v-1.97h-4.13Zm4.13-.53v-1.58h-3.97c0,.49-.03,.83-.1,1.58h4.07Zm0-2.12v-1.48h-3.96v1.48h3.96Z"/></g></g><g class="ch"><g><path d="M307.89,259.07c.23,.04,.4,.04,.74,.04h.56c.3,0,.44,0,.74-.04-.05,.54-.08,1-.08,1.48v4.32c0,.42,.02,.68,.07,1h-.85c.05-.31,.07-.6,.07-1v-5.15h-.48c-.28,0-.52,.02-.77,.05v-.7Z"/><path d="M313.81,265.88c-.56,0-.69,0-.98,.04,.1-.7,.12-.84,.26-1.17,.22-.56,.6-1.05,1.16-1.53,.31-.27,.33-.28,1.36-.98,.88-.6,1.17-.99,1.17-1.53,0-.68-.57-1.11-1.48-1.11-.59,0-1.02,.2-1.29,.58-.17,.24-.25,.45-.31,.9l-.75-.12c.13-.64,.27-.95,.56-1.28,.4-.45,1-.68,1.79-.68,1.34,0,2.21,.68,2.21,1.73,0,.45-.18,.88-.52,1.26-.27,.3-.5,.47-1.51,1.15-.7,.47-.99,.72-1.28,1.09-.28,.36-.4,.6-.51,1.03h2.84c.44,0,.75-.02,1.08-.06v.75c-.36-.04-.65-.05-1.09-.05h-2.71Z"/><path d="M320.63,263.66c-.08,.52-.2,.96-.36,1.38-.23,.59-.48,.98-.98,1.55-.16-.2-.29-.33-.49-.47,.55-.55,.84-1.02,1.05-1.74,.25-.85,.35-1.94,.35-3.91,0-.82,0-1.17-.04-1.51,.32,.04,.55,.04,.93,.04h3.34c.39,0,.62,0,.93-.04-.03,.24-.04,.46-.04,.92v5.85c0,.32-.08,.51-.25,.62-.14,.09-.31,.12-.71,.12-.29,0-.67,0-1.07-.04-.03-.23-.06-.37-.14-.6,.45,.06,.85,.09,1.27,.09,.26,0,.33-.05,.33-.28v-1.97h-4.13Zm4.13-.53v-1.58h-3.97c0,.49-.03,.83-.1,1.58h4.07Zm0-2.12v-1.48h-3.96v1.48h3.96Z"/></g></g><g class="cg"><g><path d="M345.55,259.07c.23,.04,.4,.04,.74,.04h.56c.3,0,.44,0,.74-.04-.05,.54-.08,1-.08,1.48v4.32c0,.42,.02,.68,.07,1h-.85c.05-.31,.07-.6,.07-1v-5.15h-.48c-.28,0-.52,.02-.77,.05v-.7Z"/><path d="M352.44,263.66c-.08,.52-.2,.96-.36,1.38-.23,.59-.48,.98-.98,1.55-.16-.2-.29-.33-.49-.47,.55-.55,.84-1.02,1.05-1.74,.25-.85,.35-1.94,.35-3.91,0-.82,0-1.17-.04-1.51,.32,.04,.55,.04,.93,.04h3.34c.39,0,.62,0,.93-.04-.03,.24-.04,.46-.04,.92v5.85c0,.32-.08,.51-.25,.62-.14,.09-.31,.12-.71,.12-.29,0-.67,0-1.07-.04-.03-.23-.06-.37-.14-.6,.45,.06,.85,.09,1.27,.09,.26,0,.33-.05,.33-.28v-1.97h-4.13Zm4.13-.53v-1.58h-3.97c0,.49-.03,.83-.1,1.58h4.07Zm0-2.12v-1.48h-3.96v1.48h3.96Z"/></g></g><g class="bp"><g><path d="M380.36,265.88c-.56,0-.69,0-.98,.04,.1-.7,.12-.84,.26-1.17,.22-.56,.6-1.05,1.16-1.53,.31-.27,.33-.28,1.36-.98,.88-.6,1.17-.99,1.17-1.53,0-.68-.57-1.11-1.48-1.11-.59,0-1.02,.2-1.29,.58-.17,.24-.25,.45-.31,.9l-.75-.12c.13-.64,.27-.95,.56-1.28,.4-.45,1-.68,1.79-.68,1.34,0,2.21,.68,2.21,1.73,0,.45-.18,.88-.52,1.26-.27,.3-.5,.47-1.51,1.15-.7,.47-.99,.72-1.28,1.09-.28,.36-.4,.6-.51,1.03h2.84c.44,0,.75-.02,1.08-.06v.75c-.36-.04-.65-.05-1.09-.05h-2.71Z"/><path d="M387.18,263.66c-.08,.52-.2,.96-.36,1.38-.23,.59-.48,.98-.98,1.55-.16-.2-.29-.33-.49-.47,.55-.55,.84-1.02,1.05-1.74,.25-.85,.35-1.94,.35-3.91,0-.82,0-1.17-.04-1.51,.32,.04,.55,.04,.93,.04h3.34c.39,0,.62,0,.93-.04-.03,.24-.04,.46-.04,.92v5.85c0,.32-.08,.51-.25,.62-.14,.09-.31,.12-.71,.12-.29,0-.67,0-1.07-.04-.03-.23-.06-.37-.14-.6,.45,.06,.85,.09,1.27,.09,.26,0,.33-.05,.33-.28v-1.97h-4.13Zm4.13-.53v-1.58h-3.97c0,.49-.03,.83-.1,1.58h4.07Zm0-2.12v-1.48h-3.96v1.48h3.96Z"/></g></g><g class="bo"><g><path d="M414.74,264.23c.14,.46,.27,.65,.54,.84,.3,.21,.69,.32,1.15,.32,1.03,0,1.68-.53,1.68-1.38s-.63-1.36-1.82-1.36c-.25,0-.47,.02-.71,.04v-.7c.2,.04,.42,.05,.66,.05,.59,0,1.02-.13,1.3-.41,.22-.21,.36-.54,.36-.86,0-.77-.53-1.21-1.43-1.21-.54,0-.93,.15-1.18,.47-.12,.16-.19,.3-.29,.63l-.74-.16c.15-.45,.26-.66,.48-.89,.39-.43,1-.65,1.77-.65,1.29,0,2.11,.68,2.11,1.74,0,.54-.23,1.02-.62,1.3-.23,.17-.43,.24-.84,.32,.52,.05,.79,.15,1.09,.38,.39,.3,.6,.77,.6,1.34,0,1.2-.93,1.95-2.41,1.95-.9,0-1.57-.25-1.99-.73-.19-.21-.29-.41-.45-.86l.75-.19Z"/><path d="M421.92,263.66c-.08,.52-.2,.96-.36,1.38-.23,.59-.48,.98-.98,1.55-.16-.2-.29-.33-.49-.47,.55-.55,.84-1.02,1.05-1.74,.25-.85,.35-1.94,.35-3.91,0-.82,0-1.17-.04-1.51,.32,.04,.55,.04,.93,.04h3.34c.39,0,.62,0,.93-.04-.03,.24-.04,.46-.04,.92v5.85c0,.32-.08,.51-.25,.62-.14,.09-.31,.12-.71,.12-.29,0-.67,0-1.07-.04-.03-.23-.06-.37-.14-.6,.45,.06,.85,.09,1.27,.09,.26,0,.33-.05,.33-.28v-1.97h-4.13Zm4.13-.53v-1.58h-3.97c0,.49-.03,.83-.1,1.58h4.07Zm0-2.12v-1.48h-3.96v1.48h3.96Z"/></g></g><g class="bn"><g class="ds"><g class="bs"><g class="br"><rect class="bm" x="40.02" y="137.34" width="13" height="117"/></g></g></g></g><g class="bq"><g class="ds"><g class="dr"><g class="cv"><rect class="bm" x="74.02" y="218.34" width="14" height="36"/></g></g></g></g><g class="cu"><g class="ds"><g class="dc"><g class="dq"><rect class="bm" x="109.02" y="209.34" width="14" height="45"/></g></g></g></g><g class="dl"><g class="ds"><g class="dk"><g class="ct"><rect class="bm" x="144.02" y="182.34" width="14" height="72"/></g></g></g></g><g class="cs"><g class="ds"><g class="dp"><g class="do"><rect class="bm" x="178.02" y="227.34" width="14" height="27"/></g></g></g></g><g class="cx"><g class="ds"><g class="dj"><g class="de"><rect class="bm" x="317.02" y="218.34" width="14" height="36"/></g></g></g></g><g class="dd"><g class="ds"><g class="dn"><g class="dm"><rect class="bm" x="352.02" y="191.34" width="14" height="63"/></g></g></g></g><g class="di"><g class="ds"><g class="dh"><g class="cw"><rect class="bl" x="94.02" y="200.34" width="14" height="54"/></g></g></g></g><g class="db"><g class="ds"><g class="d`"><g class="cy"><rect class="bl" x="128.02" y="246.34" width="14" height="8"/></g></g></g></g><g class="dg"><g class="ds"><g class="df"><g class="da"><rect class="bl" x="337.02" y="182.34" width="14" height="72"/></g></g></g></g><g class="co"><g class="ds"><g class="cm"><g class="cl"><rect class="bl" x="372.02" y="209.34" width="14" height="45"/></g></g></g></g><g class="cr"><g class="ds"><g class="cn"><g class="cq"><rect class="bl" x="406.02" y="246.34" width="14" height="8"/></g></g></g></g><g class="cp"><rect class="bl" x="91.02" y=".34" width="8" height="8"/><g><path d="M105.84,6.13c.14,.46,.27,.65,.54,.85,.3,.21,.69,.32,1.15,.32,1.03,0,1.68-.53,1.68-1.38s-.63-1.36-1.81-1.36c-.25,0-.47,.02-.71,.04v-.7c.2,.04,.42,.05,.66,.05,.59,0,1.02-.13,1.3-.41,.22-.21,.36-.54,.36-.86,0-.76-.53-1.21-1.43-1.21-.54,0-.93,.15-1.18,.47-.12,.16-.19,.3-.28,.63l-.74-.16c.15-.45,.26-.66,.48-.89,.39-.43,1-.65,1.77-.65,1.29,0,2.11,.68,2.11,1.74,0,.54-.23,1.02-.62,1.3-.23,.17-.43,.24-.84,.32,.52,.05,.79,.15,1.09,.38,.39,.3,.6,.77,.6,1.34,0,1.2-.92,1.95-2.41,1.95-.9,0-1.57-.25-1.99-.73-.19-.21-.29-.41-.45-.86l.75-.19Z"/><path d="M111.9,1.38c0-.36-.02-.6-.05-.84h.62c-.04,.23-.04,.5-.04,.85v.16h1.64v-.17c0-.4,0-.63-.04-.84h.61c-.04,.22-.05,.48-.05,.85v.16c.32,0,.58-.02,.74-.05v.57c-.19-.03-.36-.04-.74-.04v3.8c.32,0,.54-.02,.7-.04v.55c-.2-.02-.46-.03-.81-.03h-2.81c-.36,0-.52,0-.72,.04v-.57c.18,.04,.37,.04,.71,.04h.25V2.03h-.05c-.36,0-.6,0-.77,.04v-.58c.16,.04,.39,.05,.77,.05h.05v-.17Zm.92,5.52c-.44,.69-.7,1-1.39,1.54-.12-.19-.2-.28-.41-.43,.67-.44,1.01-.79,1.33-1.39l.46,.28Zm1.25-3.94v-.93h-1.64v.93h1.64Zm0,1.39v-.93h-1.64v.93h1.64Zm0,1.49v-1.03h-1.64v1.03h1.64Zm-.13,.78c.28,.42,.46,.6,.87,.92-.18,.12-.26,.2-.41,.38-.38-.36-.59-.59-.86-1.02l.4-.28Zm2.27-1.01c-.12,1.31-.36,2-1.04,2.88-.21-.26-.22-.27-.44-.41,.53-.62,.75-1.11,.88-2.01,.09-.65,.15-2.22,.15-4.13,0-.6,0-.8-.04-1.05,.25,.03,.44,.04,.85,.04h1.23c.41,0,.6,0,.84-.04-.03,.2-.04,.47-.04,.86V7.74c0,.3-.08,.49-.24,.58-.11,.06-.36,.1-.72,.1-.12,0-.22,0-.7-.04-.03-.26-.05-.36-.14-.63,.49,.09,.69,.12,.98,.12,.21,0,.28-.05,.28-.2v-2.07h-1.87Zm.08-2.13c-.02,.87-.02,1.06-.05,1.63h1.84v-1.63h-1.79Zm1.79-2.06h-1.78v1.56h1.78V1.42Z"/><path d="M127.2,8.55c-.67-.77-.94-1.19-1.24-1.91-.29-.71-.43-1.41-.43-2.19s.13-1.48,.43-2.19c.29-.72,.57-1.15,1.24-1.91h.79c-.75,.76-1.04,1.16-1.35,1.84-.32,.71-.48,1.45-.48,2.26s.16,1.55,.48,2.26c.31,.69,.6,1.09,1.35,1.84h-.79Z"/><path d="M129.84,7.78c-.56,0-.69,0-.98,.04,.1-.7,.12-.84,.26-1.17,.22-.56,.6-1.05,1.16-1.53,.31-.27,.33-.28,1.36-.98,.88-.6,1.17-.99,1.17-1.53,0-.68-.57-1.11-1.48-1.11-.59,0-1.02,.2-1.29,.58-.17,.24-.25,.45-.31,.9l-.75-.12c.13-.64,.27-.95,.56-1.28,.4-.45,1-.69,1.79-.69,1.34,0,2.21,.68,2.21,1.73,0,.45-.18,.88-.52,1.26-.27,.3-.5,.47-1.51,1.15-.7,.47-.99,.72-1.28,1.09-.28,.36-.4,.6-.51,1.03h2.84c.44,0,.75-.02,1.08-.06v.75c-.36-.04-.65-.05-1.09-.05h-2.7Z"/><path d="M135.47,7.28c-.24-.24-.43-.52-.53-.82-.22-.62-.34-1.33-.34-2.05,0-.94,.2-1.9,.52-2.42,.43-.72,1.11-1.09,1.99-1.09,.66,0,1.23,.21,1.63,.63,.25,.25,.43,.52,.53,.82,.22,.61,.34,1.33,.34,2.06,0,1.08-.23,2.03-.62,2.57-.44,.62-1.07,.93-1.89,.93-.66,0-1.21-.21-1.63-.63Zm.52-5.32c-.19,.2-.33,.43-.4,.65-.19,.54-.28,1.15-.28,1.8,0,.83,.18,1.7,.42,2.12,.31,.52,.77,.77,1.38,.77,.44,0,.83-.14,1.09-.42,.2-.2,.34-.44,.42-.69,.19-.55,.28-1.14,.28-1.8,0-.77-.17-1.65-.4-2.07-.29-.53-.77-.81-1.4-.81-.46,0-.83,.15-1.11,.45Z"/><path d="M141.53,7.78c-.56,0-.69,0-.98,.04,.1-.7,.12-.84,.26-1.17,.22-.56,.6-1.05,1.16-1.53,.31-.27,.33-.28,1.36-.98,.88-.6,1.17-.99,1.17-1.53,0-.68-.57-1.11-1.48-1.11-.59,0-1.02,.2-1.29,.58-.17,.24-.25,.45-.31,.9l-.75-.12c.13-.64,.27-.95,.56-1.28,.4-.45,1-.69,1.79-.69,1.34,0,2.21,.68,2.21,1.73,0,.45-.18,.88-.52,1.26-.27,.3-.5,.47-1.51,1.15-.7,.47-.99,.72-1.28,1.09-.28,.36-.4,.6-.51,1.03h2.84c.44,0,.75-.02,1.08-.06v.75c-.36-.04-.65-.05-1.09-.05h-2.7Z"/><path d="M147.17,7.28c-.24-.24-.43-.52-.53-.82-.22-.62-.34-1.33-.34-2.05,0-.94,.2-1.9,.52-2.42,.43-.72,1.11-1.09,1.99-1.09,.66,0,1.23,.21,1.63,.63,.25,.25,.43,.52,.53,.82,.22,.61,.34,1.33,.34,2.06,0,1.08-.23,2.03-.62,2.57-.44,.62-1.07,.93-1.89,.93-.66,0-1.21-.21-1.63-.63Zm.52-5.32c-.19,.2-.33,.43-.4,.65-.19,.54-.28,1.15-.28,1.8,0,.83,.18,1.7,.42,2.12,.31,.52,.77,.77,1.38,.77,.44,0,.83-.14,1.09-.42,.2-.2,.34-.44,.42-.69,.19-.55,.28-1.14,.28-1.8,0-.77-.17-1.65-.4-2.07-.29-.53-.77-.81-1.4-.81-.46,0-.83,.15-1.11,.45Z"/><path d="M153.79,3.94c0-.2,0-.35-.03-.52,.19,.02,.38,.03,.63,.03h1.93V1.99h-2.09c-.45,.76-.88,1.28-1.48,1.81-.14-.2-.23-.29-.43-.43,.88-.75,1.36-1.4,1.78-2.39,.12-.26,.18-.46,.22-.65l.63,.18c-.04,.07-.06,.13-.12,.24l-.34,.72h4.41c.39,0,.58,0,.8-.04v.6c-.22-.04-.44-.04-.8-.04h-2.01v1.45h1.61c.36,0,.56,0,.79-.04v.59c-.23-.03-.44-.04-.78-.04h-1.62v1.74h2.24c.4,0,.65-.02,.9-.05v.64c-.26-.04-.53-.05-.9-.05h-2.24v1.47c0,.38,.02,.6,.06,.83h-.7c.04-.22,.05-.42,.05-.83v-1.47h-3.21c-.36,0-.64,.02-.9,.05v-.64c.26,.04,.51,.05,.9,.05h.68v-1.75Zm2.54,1.75v-1.74h-1.96v1.74h1.96Z"/><path d="M162.39,3.1c-.06,2.88-.26,3.93-.99,5.27-.16-.2-.28-.31-.47-.44,.33-.55,.51-1,.63-1.61,.19-.88,.27-2.11,.27-4.11,0-.58,0-.82-.04-1.09,.28,.03,.57,.04,.92,.04h2.34v-.26c0-.22-.02-.39-.05-.58h.66c-.03,.16-.04,.34-.04,.58v.26h2.44c.47,0,.74-.02,.97-.05v.59c-.27-.04-.51-.04-.92-.04h-5.69v.95h1.61v-.14c0-.25,0-.42-.04-.59h.61c-.03,.19-.04,.36-.04,.58v.15h2.06v-.14c0-.23-.02-.42-.04-.59h.61c-.03,.16-.04,.33-.04,.6v.13h1.07c.4,0,.6,0,.81-.04v.57c-.2-.04-.43-.04-.81-.04h-1.07v.87c0,.2,0,.37,.03,.53-.18-.02-.24-.02-.58-.02h-1.98c-.36,0-.52,0-.64,.02,.02-.17,.03-.36,.03-.53v-.87h-1.62Zm5.53,2.4c-.11,.12-.15,.16-.3,.34-.41,.47-.92,.93-1.44,1.3,.87,.42,1.84,.67,2.9,.74-.12,.2-.2,.36-.27,.59-1.33-.2-2.21-.48-3.15-1.01-.93,.52-1.85,.81-3.23,1.05-.05-.2-.12-.34-.25-.55,1.31-.17,2.14-.4,2.99-.81-.6-.44-.98-.83-1.43-1.49-.43,0-.65,0-.88,.04v-.55c.2,.04,.44,.04,.9,.04h3.23c.28,0,.44,0,.61-.03l.32,.35Zm-3.56,.14c.34,.5,.69,.82,1.31,1.21,.56-.35,.86-.6,1.42-1.21h-2.73Zm.19-1.61h2.06v-.93h-2.06v.93Z"/><path d="M169.86,8.55c.75-.75,1.04-1.16,1.35-1.84,.32-.71,.48-1.45,.48-2.26s-.16-1.55-.48-2.26c-.31-.69-.6-1.09-1.35-1.84h.79c.67,.77,.94,1.19,1.24,1.91,.29,.71,.43,1.41,.43,2.19s-.13,1.48-.43,2.19c-.29,.72-.57,1.15-1.24,1.91h-.79Z"/></g><rect class="bm" x="254.02" y=".34" width="8" height="8"/><g><path d="M268.16,5.42c.19-.21,.39-.46,.58-.69l2.25-2.81c.3-.37,.46-.6,.67-.91h.67c-.04,.52-.05,.8-.05,1.5v2.92h.34c.37,0,.61-.02,.92-.06v.74c-.33-.04-.55-.06-.93-.06h-.33v.77c0,.43,.02,.63,.07,.96h-.81c.05-.31,.07-.56,.07-.96v-.77h-2.38c-.5,0-.76,0-1.06,.04v-.67Zm3.45-2.23c0-.47,0-.76,.05-1.21-.19,.27-.41,.56-.67,.89l-2.05,2.58h2.66V3.19Z"/><path d="M275.13,1.38c0-.36-.02-.6-.05-.84h.62c-.04,.23-.04,.5-.04,.85v.16h1.64v-.17c0-.4,0-.63-.04-.84h.61c-.04,.22-.05,.48-.05,.85v.16c.32,0,.58-.02,.74-.05v.57c-.19-.03-.37-.04-.74-.04v3.8c.32,0,.54-.02,.7-.04v.55c-.2-.02-.46-.03-.81-.03h-2.81c-.36,0-.53,0-.72,.04v-.57c.18,.04,.37,.04,.71,.04h.25V2.03h-.05c-.36,0-.6,0-.76,.04v-.58c.16,.04,.39,.05,.76,.05h.05v-.17Zm.92,5.52c-.44,.69-.7,1-1.39,1.54-.12-.19-.21-.28-.41-.43,.67-.44,1-.79,1.33-1.39l.46,.28Zm1.25-3.94v-.93h-1.64v.93h1.64Zm0,1.39v-.93h-1.64v.93h1.64Zm0,1.49v-1.03h-1.64v1.03h1.64Zm-.13,.78c.28,.42,.46,.6,.87,.92-.18,.12-.26,.2-.41,.38-.38-.36-.59-.59-.86-1.02l.4-.28Zm2.27-1.01c-.12,1.31-.37,2-1.04,2.88-.21-.26-.22-.27-.44-.41,.53-.62,.75-1.11,.88-2.01,.09-.65,.15-2.22,.15-4.13,0-.6,0-.8-.04-1.05,.25,.03,.44,.04,.85,.04h1.23c.41,0,.61,0,.85-.04-.03,.2-.04,.47-.04,.86V7.74c0,.3-.08,.49-.24,.58-.11,.06-.36,.1-.72,.1-.12,0-.22,0-.7-.04-.03-.26-.05-.36-.14-.63,.49,.09,.69,.12,.98,.12,.21,0,.29-.05,.29-.2v-2.07h-1.87Zm.08-2.13c-.02,.87-.02,1.06-.05,1.63h1.84v-1.63h-1.79Zm1.79-2.06h-1.78v1.56h1.78V1.42Z"/><path d="M290.44,8.55c-.67-.77-.94-1.19-1.24-1.91-.29-.71-.43-1.41-.43-2.19s.13-1.48,.43-2.19c.29-.72,.57-1.15,1.24-1.91h.79c-.75,.76-1.04,1.16-1.35,1.84-.32,.71-.48,1.45-.48,2.26s.16,1.55,.48,2.26c.31,.69,.6,1.09,1.35,1.84h-.79Z"/><path d="M293.07,7.78c-.56,0-.69,0-.98,.04,.1-.7,.12-.84,.26-1.17,.22-.56,.6-1.05,1.16-1.53,.31-.27,.33-.28,1.36-.98,.88-.6,1.17-.99,1.17-1.53,0-.68-.57-1.11-1.48-1.11-.59,0-1.02,.2-1.29,.58-.17,.24-.25,.45-.31,.9l-.75-.12c.13-.64,.27-.95,.56-1.28,.4-.45,1-.69,1.79-.69,1.34,0,2.21,.68,2.21,1.73,0,.45-.18,.88-.52,1.26-.27,.3-.5,.47-1.51,1.15-.7,.47-.99,.72-1.28,1.09-.28,.36-.4,.6-.51,1.03h2.84c.44,0,.75-.02,1.08-.06v.75c-.36-.04-.65-.05-1.09-.05h-2.71Z"/><path d="M298.71,7.28c-.24-.24-.43-.52-.53-.82-.22-.62-.34-1.33-.34-2.05,0-.94,.21-1.9,.52-2.42,.43-.72,1.11-1.09,1.99-1.09,.66,0,1.23,.21,1.63,.63,.25,.25,.43,.52,.53,.82,.22,.61,.34,1.33,.34,2.06,0,1.08-.23,2.03-.62,2.57-.44,.62-1.07,.93-1.89,.93-.66,0-1.21-.21-1.63-.63Zm.52-5.32c-.19,.2-.33,.43-.4,.65-.19,.54-.28,1.15-.28,1.8,0,.83,.18,1.7,.42,2.12,.31,.52,.77,.77,1.38,.77,.44,0,.83-.14,1.09-.42,.2-.2,.34-.44,.42-.69,.19-.55,.28-1.14,.28-1.8,0-.77-.17-1.65-.4-2.07-.29-.53-.77-.81-1.4-.81-.46,0-.83,.15-1.11,.45Z"/><path d="M304.77,7.78c-.56,0-.69,0-.98,.04,.1-.7,.12-.84,.26-1.17,.22-.56,.6-1.05,1.16-1.53,.31-.27,.33-.28,1.36-.98,.88-.6,1.17-.99,1.17-1.53,0-.68-.57-1.11-1.48-1.11-.59,0-1.02,.2-1.29,.58-.17,.24-.25,.45-.31,.9l-.75-.12c.13-.64,.27-.95,.56-1.28,.4-.45,1-.69,1.79-.69,1.34,0,2.21,.68,2.21,1.73,0,.45-.18,.88-.52,1.26-.27,.3-.5,.47-1.51,1.15-.7,.47-.99,.72-1.28,1.09-.28,.36-.4,.6-.51,1.03h2.84c.44,0,.75-.02,1.08-.06v.75c-.36-.04-.65-.05-1.09-.05h-2.71Z"/><path d="M310.54,.97c.23,.04,.4,.04,.74,.04h.56c.3,0,.44,0,.74-.04-.05,.54-.08,1-.08,1.48V6.77c0,.42,.02,.68,.07,1.01h-.85c.05-.31,.07-.6,.07-1.01V1.62h-.48c-.28,0-.52,.02-.77,.05V.97Z"/><path d="M317.02,3.94c0-.2,0-.35-.03-.52,.19,.02,.38,.03,.63,.03h1.93V1.99h-2.09c-.45,.76-.88,1.28-1.48,1.81-.14-.2-.23-.29-.43-.43,.88-.75,1.36-1.4,1.78-2.39,.12-.26,.18-.46,.22-.65l.63,.18c-.04,.07-.06,.13-.12,.24l-.34,.72h4.41c.39,0,.58,0,.8-.04v.6c-.22-.04-.44-.04-.8-.04h-2.01v1.45h1.61c.36,0,.56,0,.79-.04v.59c-.23-.03-.44-.04-.78-.04h-1.62v1.74h2.24c.4,0,.65-.02,.9-.05v.64c-.26-.04-.53-.05-.9-.05h-2.24v1.47c0,.38,.02,.6,.06,.83h-.7c.04-.22,.05-.42,.05-.83v-1.47h-3.21c-.36,0-.64,.02-.9,.05v-.64c.26,.04,.51,.05,.9,.05h.68v-1.75Zm2.54,1.75v-1.74h-1.96v1.74h1.96Z"/><path d="M325.62,3.1c-.06,2.88-.26,3.93-.99,5.27-.16-.2-.29-.31-.47-.44,.33-.55,.51-1,.63-1.61,.19-.88,.27-2.11,.27-4.11,0-.58,0-.82-.04-1.09,.29,.03,.57,.04,.92,.04h2.34v-.26c0-.22-.02-.39-.05-.58h.66c-.03,.16-.04,.34-.04,.58v.26h2.44c.47,0,.74-.02,.97-.05v.59c-.27-.04-.51-.04-.92-.04h-5.69v.95h1.61v-.14c0-.25,0-.42-.04-.59h.61c-.03,.19-.04,.36-.04,.58v.15h2.06v-.14c0-.23-.02-.42-.04-.59h.61c-.03,.16-.04,.33-.04,.6v.13h1.07c.4,0,.6,0,.81-.04v.57c-.2-.04-.43-.04-.81-.04h-1.07v.87c0,.2,0,.37,.03,.53-.18-.02-.24-.02-.58-.02h-1.98c-.36,0-.52,0-.64,.02,.02-.17,.03-.36,.03-.53v-.87h-1.62Zm5.53,2.4c-.11,.12-.15,.16-.3,.34-.41,.47-.92,.93-1.44,1.3,.87,.42,1.84,.67,2.9,.74-.12,.2-.2,.36-.27,.59-1.33-.2-2.22-.48-3.15-1.01-.93,.52-1.85,.81-3.23,1.05-.05-.2-.12-.34-.25-.55,1.31-.17,2.14-.4,2.99-.81-.6-.44-.98-.83-1.43-1.49-.43,0-.65,0-.88,.04v-.55c.2,.04,.45,.04,.9,.04h3.23c.29,0,.44,0,.61-.03l.32,.35Zm-3.56,.14c.34,.5,.68,.82,1.31,1.21,.56-.35,.86-.6,1.42-1.21h-2.73Zm.19-1.61h2.06v-.93h-2.06v.93Z"/><path d="M333.1,8.55c.75-.75,1.04-1.16,1.35-1.84,.32-.71,.48-1.45,.48-2.26s-.16-1.55-.48-2.26c-.31-.69-.61-1.09-1.35-1.84h.79c.67,.77,.94,1.19,1.24,1.91,.29,.71,.43,1.41,.43,2.19s-.13,1.48-.43,2.19c-.29,.72-.57,1.15-1.24,1.91h-.79Z"/></g></g></svg>