<?xml version="1.0" encoding="UTF-8"?><svg id="a" xmlns="http://www.w3.org/2000/svg" xmlns:xlink="http://www.w3.org/1999/xlink" viewBox="0 0 391.53 300"><defs><style>.by,.c`,.ca,.cb,.cc{fill:none;}.c`{stroke:#000;stroke-linecap:square;}.ca{stroke-dasharray:0 0 1.5 1.5;stroke-width:.75px;}.ca,.cb{stroke:#d5d5d5;}.cd{fill:#00a2ff;}.ce{fill:#61d836;}.cf{clip-path:url(#v);}.cg{clip-path:url(#u);}.ch{clip-path:url(#t);}.ci{clip-path:url(#y);}.cj{clip-path:url(#x);}.ck{clip-path:url(#w);}.cl{clip-path:url(#c);}.cm{clip-path:url(#b);}.cn{clip-path:url(#f);}.co{clip-path:url(#e);}.cp{clip-path:url(#d);}.cq{clip-path:url(#n);}.cr{clip-path:url(#m);}.cs{clip-path:url(#l);}.ct{clip-path:url(#k);}.cu{clip-path:url(#j);}.cv{clip-path:url(#i);}.cw{clip-path:url(#h);}.cx{clip-path:url(#g);}.cy{clip-path:url(#s);}.d`{clip-path:url(#r);}.da{clip-path:url(#q);}.db{clip-path:url(#p);}.dc{clip-path:url(#o);}.dd{clip-path:url(#br);}.de{clip-path:url(#bq);}.df{clip-path:url(#bx);}.dg{clip-path:url(#bt);}.dh{clip-path:url(#bj);}.di{clip-path:url(#bi);}.dj{clip-path:url(#bp);}.dk{clip-path:url(#bw);}.dl{clip-path:url(#bv);}.dm{clip-path:url(#bu);}.dn{clip-path:url(#bl);}.do{clip-path:url(#bs);}.dp{clip-path:url(#bb);}.dq{clip-path:url(#ba);}.dr{clip-path:url(#bh);}.ds{clip-path:url(#bo);}.dt{clip-path:url(#bn);}.du{clip-path:url(#bm);}.dv{clip-path:url(#bd);}.dw{clip-path:url(#bk);}.dx{clip-path:url(#b`);}.dy{clip-path:url(#bg);}.e`{clip-path:url(#bf);}.ea{clip-path:url(#be);}.eb{clip-path:url(#bc);}.ec{clip-path:url(#ah);}.ed{clip-path:url(#ag);}.ee{clip-path:url(#ab);}.ef{clip-path:url(#aa);}.eg{clip-path:url(#as);}.eh{clip-path:url(#ak);}.ei{clip-path:url(#av);}.ej{clip-path:url(#au);}.ek{clip-path:url(#ay);}.el{clip-path:url(#at);}.em{clip-path:url(#ac);}.en{clip-path:url(#an);}.eo{clip-path:url(#am);}.ep{clip-path:url(#ax);}.eq{clip-path:url(#aw);}.er{clip-path:url(#ar);}.es{clip-path:url(#aq);}.et{clip-path:url(#al);}.eu{clip-path:url(#af);}.ev{clip-path:url(#ae);}.ew{clip-path:url(#ap);}.ex{clip-path:url(#ao);}.ey{clip-path:url(#aj);}.f`{clip-path:url(#ai);}.fa{clip-path:url(#ad);}.fb{clip-path:url(#a`);}.fc{isolation:isolate;}.cc{stroke:#b8b8b8;}</style><clipPath id="b"><rect class="by" width="391.53" height="300"/></clipPath><clipPath id="c"><rect class="by" x="5.57" y="280.5" width="9.57" height="12"/></clipPath><clipPath id="d"><rect class="by" x="5.57" y="229.6" width="9.57" height="12"/></clipPath><clipPath id="e"><rect class="by" y="178.7" width="15.14" height="12"/></clipPath><clipPath id="f"><rect class="by" y="127.8" width="15.14" height="12"/></clipPath><clipPath id="g"><rect class="by" y="76.9" width="15.14" height="12"/></clipPath><clipPath id="h"><rect class="by" y="26" width="15.14" height="12"/></clipPath><clipPath id="i"><rect class="by" width="391.53" height="300"/></clipPath><clipPath id="j"><rect class="by" x="29.62" y="289" width="19.61" height="11"/></clipPath><clipPath id="k"><rect class="by" x="60.22" y="289" width="19.57" height="11"/></clipPath><clipPath id="l"><rect class="by" x="90.79" y="289" width="19.57" height="11"/></clipPath><clipPath id="m"><rect class="by" x="121.36" y="289" width="19.57" height="11"/></clipPath><clipPath id="n"><rect class="by" x="151.94" y="289" width="19.57" height="11"/></clipPath><clipPath id="o"><rect class="by" x="182.51" y="289" width="19.57" height="11"/></clipPath><clipPath id="p"><rect class="by" x="209.8" y="289" width="26.14" height="11"/></clipPath><clipPath id="q"><rect class="by" x="240.38" y="289" width="26.14" height="11"/></clipPath><clipPath id="r"><rect class="by" x="270.95" y="289" width="26.14" height="11"/></clipPath><clipPath id="s"><rect class="by" x="304.81" y="289" width="19.57" height="11"/></clipPath><clipPath id="t"><rect class="by" x="335.38" y="289" width="19.57" height="11"/></clipPath><clipPath id="u"><rect class="by" x="365.96" y="289" width="19.57" height="11"/></clipPath><clipPath id="v"><rect class="by" x="40.03" y="225.65" width="12" height="60"/></clipPath><clipPath id="w"><rect class="by" x="40.03" y="225.65" width="12" height="60"/></clipPath><clipPath id="x"><rect class="by" x="40.03" y="225.65" width="12" height="60"/></clipPath><clipPath id="y"><rect class="by" x="71.03" y="276.65" width="12" height="9"/></clipPath><clipPath id="a`"><rect class="by" x="71.03" y="276.65" width="12" height="9"/></clipPath><clipPath id="aa"><rect class="by" x="71.03" y="276.65" width="12" height="9"/></clipPath><clipPath id="ab"><rect class="by" x="132.03" y="245.65" width="12" height="40"/></clipPath><clipPath id="ac"><rect class="by" x="132.03" y="245.65" width="12" height="40"/></clipPath><clipPath id="ad"><rect class="by" x="132.03" y="245.65" width="12" height="40"/></clipPath><clipPath id="ae"><rect class="by" x="162.03" y="255.65" width="13" height="30"/></clipPath><clipPath id="af"><rect class="by" x="162.03" y="255.65" width="13" height="30"/></clipPath><clipPath id="ag"><rect class="by" x="162.03" y="255.65" width="13" height="30"/></clipPath><clipPath id="ah"><rect class="by" x="193.03" y="235.65" width="12" height="50"/></clipPath><clipPath id="ai"><rect class="by" x="193.03" y="235.65" width="12" height="50"/></clipPath><clipPath id="aj"><rect class="by" x="193.03" y="235.65" width="12" height="50"/></clipPath><clipPath id="ak"><rect class="by" x="223.03" y="265.65" width="13" height="20"/></clipPath><clipPath id="al"><rect class="by" x="223.03" y="265.65" width="13" height="20"/></clipPath><clipPath id="am"><rect class="by" x="223.03" y="265.65" width="13" height="20"/></clipPath><clipPath id="an"><rect class="by" x="254.03" y="245.65" width="12" height="40"/></clipPath><clipPath id="ao"><rect class="by" x="254.03" y="245.65" width="12" height="40"/></clipPath><clipPath id="ap"><rect class="by" x="254.03" y="245.65" width="12" height="40"/></clipPath><clipPath id="aq"><rect class="by" x="315.03" y="235.65" width="12" height="50"/></clipPath><clipPath id="ar"><rect class="by" x="315.03" y="235.65" width="12" height="50"/></clipPath><clipPath id="as"><rect class="by" x="315.03" y="235.65" width="12" height="50"/></clipPath><clipPath id="at"><rect class="by" x="346.03" y="184.65" width="12" height="101"/></clipPath><clipPath id="au"><rect class="by" x="346.03" y="184.65" width="12" height="101"/></clipPath><clipPath id="av"><rect class="by" x="346.03" y="184.65" width="12" height="101"/></clipPath><clipPath id="aw"><rect class="by" x="57.03" y="276.65" width="12" height="9"/></clipPath><clipPath id="ax"><rect class="by" x="57.03" y="276.65" width="12" height="9"/></clipPath><clipPath id="ay"><rect class="by" x="57.03" y="276.65" width="12" height="9"/></clipPath><clipPath id="b`"><rect class="by" x="88.03" y="265.65" width="12" height="20"/></clipPath><clipPath id="ba"><rect class="by" x="88.03" y="265.65" width="12" height="20"/></clipPath><clipPath id="bb"><rect class="by" x="88.03" y="265.65" width="12" height="20"/></clipPath><clipPath id="bc"><rect class="by" x="118.03" y="265.65" width="13" height="20"/></clipPath><clipPath id="bd"><rect class="by" x="118.03" y="265.65" width="13" height="20"/></clipPath><clipPath id="be"><rect class="by" x="118.03" y="265.65" width="13" height="20"/></clipPath><clipPath id="bf"><rect class="by" x="149.03" y="276.65" width="12" height="9"/></clipPath><clipPath id="bg"><rect class="by" x="149.03" y="276.65" width="12" height="9"/></clipPath><clipPath id="bh"><rect class="by" x="149.03" y="276.65" width="12" height="9"/></clipPath><clipPath id="bi"><rect class="by" x="210.03" y="265.65" width="12" height="20"/></clipPath><clipPath id="bj"><rect class="by" x="210.03" y="265.65" width="12" height="20"/></clipPath><clipPath id="bk"><rect class="by" x="210.03" y="265.65" width="12" height="20"/></clipPath><clipPath id="bl"><rect class="by" x="271.03" y="245.65" width="12" height="40"/></clipPath><clipPath id="bm"><rect class="by" x="271.03" y="245.65" width="12" height="40"/></clipPath><clipPath id="bn"><rect class="by" x="271.03" y="245.65" width="12" height="40"/></clipPath><clipPath id="bo"><rect class="by" x="302.03" y="164.65" width="12" height="121"/></clipPath><clipPath id="bp"><rect class="by" x="302.03" y="164.65" width="12" height="121"/></clipPath><clipPath id="bq"><rect class="by" x="302.03" y="164.65" width="12" height="121"/></clipPath><clipPath id="br"><rect class="by" x="332.03" y="62.65" width="13" height="223"/></clipPath><clipPath id="bs"><rect class="by" x="332.03" y="62.65" width="13" height="223"/></clipPath><clipPath id="bt"><rect class="by" x="332.03" y="62.65" width="13" height="223"/></clipPath><clipPath id="bu"><rect class="by" x="363.03" y="153.65" width="12" height="132"/></clipPath><clipPath id="bv"><rect class="by" x="363.03" y="153.65" width="12" height="132"/></clipPath><clipPath id="bw"><rect class="by" x="363.03" y="153.65" width="12" height="132"/></clipPath><clipPath id="bx"><rect class="by" width="391.53" height="300"/></clipPath></defs><g class="cm"><line class="cc" x1="24.03" y1="235.15" x2="391.03" y2="235.15"/><line class="cc" x1="24.03" y1="185.15" x2="391.03" y2="185.15"/><line class="cc" x1="24.03" y1="134.15" x2="391.03" y2="134.15"/><line class="cc" x1="24.03" y1="83.15" x2="391.03" y2="83.15"/><line class="cc" x1="24.03" y1="32.15" x2="391.03" y2="32.15"/><line class="ca" x1="24.03" y1="261.15" x2="391.03" y2="261.15"/><line class="ca" x1="24.03" y1="210.15" x2="391.03" y2="210.15"/><line class="ca" x1="24.03" y1="159.15" x2="391.03" y2="159.15"/><line class="ca" x1="24.03" y1="108.15" x2="391.03" y2="108.15"/><line class="ca" x1="24.03" y1="57.15" x2="391.03" y2="57.15"/><line class="cb" x1="24.53" y1="31.65" x2="24.53" y2="286.65"/><line class="cb" x1="54.53" y1="31.65" x2="54.53" y2="286.65"/><line class="cb" x1="85.53" y1="31.65" x2="85.53" y2="286.65"/><line class="cb" x1="115.53" y1="31.65" x2="115.53" y2="286.65"/><line class="cb" x1="146.53" y1="31.65" x2="146.53" y2="286.65"/><line class="cb" x1="176.53" y1="31.65" x2="176.53" y2="286.65"/><line class="cb" x1="207.53" y1="31.65" x2="207.53" y2="286.65"/><line class="cb" x1="238.53" y1="31.65" x2="238.53" y2="286.65"/><line class="cb" x1="268.53" y1="31.65" x2="268.53" y2="286.65"/><line class="cb" x1="299.53" y1="31.65" x2="299.53" y2="286.65"/><line class="cb" x1="329.53" y1="31.65" x2="329.53" y2="286.65"/><line class="cb" x1="360.53" y1="31.65" x2="360.53" y2="286.65"/><line class="cb" x1="391.53" y1="31.65" x2="391.53" y2="286.65"/></g><g class="cl"><path d="M8.52,289.68c-.27-.27-.48-.58-.6-.92-.25-.7-.38-1.49-.38-2.31,0-1.06,.23-2.14,.58-2.72,.48-.81,1.25-1.23,2.24-1.23,.74,0,1.38,.24,1.83,.71,.28,.28,.48,.59,.6,.92,.25,.69,.38,1.49,.38,2.32,0,1.21-.26,2.28-.7,2.89-.5,.7-1.2,1.05-2.12,1.05-.74,0-1.36-.24-1.83-.71Zm.58-5.98c-.21,.23-.37,.48-.45,.73-.21,.61-.31,1.29-.31,2.02,0,.93,.2,1.91,.47,2.38,.35,.58,.87,.87,1.55,.87,.5,0,.93-.16,1.23-.47,.22-.23,.38-.49,.47-.78,.21-.62,.31-1.28,.31-2.02,0-.87-.19-1.86-.45-2.33-.33-.6-.87-.91-1.57-.91-.52,0-.93,.17-1.25,.51Z"/></g><g class="cp"><path d="M8.83,234.64q-.02,.18-.08,.45c.48-.46,1.06-.69,1.75-.69,.73,0,1.35,.24,1.8,.68,.45,.43,.67,1.02,.67,1.76,0,1.61-1.05,2.64-2.7,2.64-.78,0-1.43-.23-1.91-.68-.25-.25-.39-.46-.63-.94l.82-.24c.1,.28,.17,.41,.32,.58,.34,.38,.84,.59,1.42,.59,1.12,0,1.87-.76,1.87-1.91s-.69-1.82-1.75-1.82c-.51,0-.95,.14-1.31,.42-.24,.19-.35,.33-.46,.6l-.75-.07c.08-.39,.11-.6,.15-1.03l.22-2.26c.02-.29,.03-.41,.03-.6,0-.14,0-.18-.02-.43,.31,.04,.47,.05,1.06,.05h2.06c.54,0,.77-.02,1.17-.08v.85c-.38-.06-.7-.08-1.17-.08h-2.35l-.21,2.21Z"/></g><g class="co"><g><path d="M2.11,180.79c.26,.04,.45,.05,.83,.05h.63c.34,0,.5,0,.83-.05-.06,.61-.09,1.12-.09,1.66v4.86c0,.47,.02,.76,.08,1.13h-.95c.06-.35,.08-.67,.08-1.13v-5.79h-.54c-.32,0-.58,.02-.87,.06v-.79Z"/><path d="M8.52,187.88c-.27-.27-.48-.58-.6-.92-.25-.7-.38-1.49-.38-2.31,0-1.06,.23-2.14,.58-2.72,.48-.81,1.25-1.23,2.24-1.23,.74,0,1.38,.24,1.83,.71,.28,.28,.48,.59,.6,.92,.25,.69,.38,1.49,.38,2.32,0,1.21-.26,2.28-.7,2.89-.5,.7-1.2,1.05-2.12,1.05-.74,0-1.36-.24-1.83-.71Zm.58-5.98c-.21,.23-.37,.48-.45,.73-.21,.61-.31,1.29-.31,2.02,0,.93,.2,1.91,.47,2.38,.35,.58,.87,.87,1.55,.87,.5,0,.93-.16,1.23-.47,.22-.23,.38-.49,.47-.78,.21-.62,.31-1.28,.31-2.02,0-.87-.19-1.86-.45-2.33-.33-.6-.87-.91-1.57-.91-.52,0-.93,.17-1.25,.51Z"/></g></g><g class="cn"><g><path d="M2.11,129.89c.26,.04,.45,.05,.83,.05h.63c.34,0,.5,0,.83-.05-.06,.61-.09,1.12-.09,1.66v4.86c0,.47,.02,.76,.08,1.13h-.95c.06-.35,.08-.67,.08-1.13v-5.79h-.54c-.32,0-.58,.02-.87,.06v-.79Z"/><path d="M8.83,132.84q-.02,.18-.08,.45c.48-.46,1.06-.69,1.75-.69,.73,0,1.35,.24,1.8,.68,.45,.43,.67,1.02,.67,1.76,0,1.61-1.05,2.64-2.7,2.64-.78,0-1.43-.23-1.91-.68-.25-.25-.39-.46-.63-.94l.82-.24c.1,.28,.17,.41,.32,.58,.34,.38,.84,.59,1.42,.59,1.12,0,1.87-.76,1.87-1.91s-.69-1.82-1.75-1.82c-.51,0-.95,.14-1.31,.42-.24,.19-.35,.33-.46,.6l-.75-.07c.08-.39,.11-.6,.15-1.03l.22-2.26c.02-.29,.03-.41,.03-.6,0-.14,0-.18-.02-.43,.31,.04,.47,.05,1.06,.05h2.06c.54,0,.77-.02,1.17-.08v.85c-.38-.06-.7-.08-1.17-.08h-2.35l-.21,2.21Z"/></g></g><g class="cx"><g><path d="M2.19,86.64c-.63,0-.78,0-1.1,.05,.11-.79,.14-.94,.29-1.32,.25-.63,.67-1.18,1.3-1.72,.35-.3,.37-.31,1.53-1.1,.99-.67,1.32-1.11,1.32-1.72,0-.76-.64-1.25-1.66-1.25-.66,0-1.15,.22-1.45,.65-.19,.27-.28,.51-.35,1.01l-.84-.14c.15-.72,.3-1.07,.63-1.44,.45-.51,1.13-.77,2.01-.77,1.51,0,2.48,.76,2.48,1.94,0,.51-.2,.99-.59,1.42-.3,.34-.56,.53-1.7,1.29-.79,.53-1.11,.81-1.44,1.23-.31,.41-.45,.68-.57,1.16h3.19c.5,0,.84-.02,1.22-.07v.84c-.4-.04-.73-.06-1.23-.06H2.19Z"/><path d="M8.52,86.08c-.27-.27-.48-.58-.6-.92-.25-.7-.38-1.49-.38-2.31,0-1.06,.23-2.14,.58-2.72,.48-.81,1.25-1.23,2.24-1.23,.74,0,1.38,.24,1.83,.71,.28,.28,.48,.59,.6,.92,.25,.69,.38,1.49,.38,2.32,0,1.21-.26,2.28-.7,2.89-.5,.7-1.2,1.05-2.12,1.05-.74,0-1.36-.24-1.83-.71Zm.58-5.98c-.21,.23-.37,.48-.45,.73-.21,.61-.31,1.29-.31,2.02,0,.93,.2,1.91,.47,2.38,.35,.58,.87,.87,1.55,.87,.5,0,.93-.16,1.23-.47,.22-.23,.38-.49,.47-.78,.21-.62,.31-1.28,.31-2.02,0-.87-.19-1.86-.45-2.33-.33-.6-.87-.91-1.57-.91-.52,0-.93,.17-1.25,.51Z"/></g></g><g class="cw"><g><path d="M2.19,35.74c-.63,0-.78,0-1.1,.05,.11-.79,.14-.94,.29-1.32,.25-.63,.67-1.18,1.3-1.72,.35-.3,.37-.31,1.53-1.1,.99-.67,1.32-1.11,1.32-1.72,0-.76-.64-1.25-1.66-1.25-.66,0-1.15,.22-1.45,.65-.19,.27-.28,.51-.35,1.01l-.84-.14c.15-.72,.3-1.07,.63-1.44,.45-.51,1.13-.77,2.01-.77,1.51,0,2.48,.76,2.48,1.94,0,.51-.2,.99-.59,1.42-.3,.34-.56,.53-1.7,1.29-.79,.53-1.11,.81-1.44,1.23-.31,.41-.45,.68-.57,1.16h3.19c.5,0,.84-.02,1.22-.07v.84c-.4-.04-.73-.06-1.23-.06H2.19Z"/><path d="M8.83,31.04q-.02,.18-.08,.45c.48-.46,1.06-.69,1.75-.69,.73,0,1.35,.24,1.8,.68,.45,.43,.67,1.02,.67,1.76,0,1.61-1.05,2.64-2.7,2.64-.78,0-1.43-.23-1.91-.68-.25-.25-.39-.46-.63-.94l.82-.24c.1,.28,.17,.41,.32,.58,.34,.38,.84,.59,1.42,.59,1.12,0,1.87-.76,1.87-1.91s-.69-1.82-1.75-1.82c-.51,0-.95,.14-1.31,.42-.24,.19-.35,.33-.46,.6l-.75-.07c.08-.39,.11-.6,.15-1.03l.22-2.26c.02-.29,.03-.41,.03-.6,0-.14,0-.18-.02-.43,.31,.04,.47,.05,1.06,.05h2.06c.54,0,.77-.02,1.17-.08v.85c-.38-.06-.7-.08-1.17-.08h-2.35l-.21,2.21Z"/></g></g><g class="cv"><line class="c`" x1="24.53" y1="286.15" x2="391.53" y2="286.15"/></g><g class="cu"><g><path d="M31.43,296.09c.21-.24,.44-.52,.65-.77l2.53-3.16c.34-.42,.52-.67,.75-1.02h.75c-.05,.59-.06,.9-.06,1.69v3.28h.38c.42,0,.68-.02,1.04-.07v.83c-.37-.05-.62-.07-1.05-.07h-.37v.86c0,.48,.02,.71,.08,1.08h-.91c.06-.35,.08-.63,.08-1.08v-.86h-2.68c-.56,0-.86,0-1.19,.04v-.75Zm3.88-2.51c0-.53,.01-.85,.06-1.36-.21,.3-.46,.63-.75,1l-2.3,2.9h2.99v-2.54Z"/><path d="M40.51,296.25c-.09,.58-.22,1.08-.41,1.55-.26,.66-.54,1.1-1.1,1.74-.18-.23-.32-.37-.55-.53,.62-.62,.94-1.15,1.18-1.96,.28-.95,.39-2.18,.39-4.4,0-.92,0-1.32-.04-1.7,.36,.04,.62,.05,1.05,.05h3.76c.44,0,.7,0,1.04-.05-.03,.27-.04,.52-.04,1.03v6.58c0,.36-.09,.57-.28,.7-.16,.1-.35,.13-.8,.13-.33,0-.75,0-1.2-.04-.03-.26-.07-.42-.16-.68,.5,.07,.95,.1,1.43,.1,.29,0,.37-.06,.37-.31v-2.21h-4.64Zm4.64-.6v-1.78h-4.46c-.01,.55-.03,.93-.11,1.78h4.57Zm0-2.38v-1.66h-4.45v1.66h4.45Z"/></g></g><g class="ct"><g><path d="M63.48,294.04q-.02,.18-.08,.45c.48-.46,1.06-.69,1.75-.69,.73,0,1.35,.24,1.8,.68,.45,.43,.67,1.02,.67,1.76,0,1.61-1.05,2.64-2.7,2.64-.78,0-1.43-.23-1.91-.68-.25-.25-.39-.46-.63-.94l.82-.24c.1,.28,.17,.41,.32,.58,.34,.38,.84,.59,1.42,.59,1.12,0,1.87-.76,1.87-1.91s-.69-1.82-1.75-1.82c-.51,0-.95,.14-1.31,.42-.24,.19-.35,.33-.46,.6l-.75-.07c.08-.39,.11-.6,.15-1.03l.22-2.26c.02-.29,.03-.41,.03-.6,0-.14,0-.18-.02-.43,.31,.04,.47,.05,1.06,.05h2.06c.54,0,.77-.02,1.17-.08v.85c-.38-.06-.7-.08-1.17-.08h-2.35l-.21,2.21Z"/><path d="M71.06,296.25c-.09,.58-.22,1.08-.41,1.55-.26,.66-.54,1.1-1.1,1.74-.18-.23-.32-.37-.55-.53,.62-.62,.94-1.15,1.18-1.96,.28-.95,.39-2.18,.39-4.4,0-.92,0-1.32-.04-1.7,.36,.04,.62,.05,1.05,.05h3.76c.44,0,.7,0,1.04-.05-.03,.27-.04,.52-.04,1.03v6.58c0,.36-.09,.57-.28,.7-.16,.1-.35,.13-.8,.13-.33,0-.75,0-1.2-.04-.03-.26-.07-.42-.16-.68,.5,.07,.95,.1,1.43,.1,.29,0,.37-.06,.37-.31v-2.21h-4.64Zm4.64-.6v-1.78h-4.46c-.01,.55-.03,.93-.11,1.78h4.57Zm0-2.38v-1.66h-4.45v1.66h4.45Z"/></g></g><g class="cs"><g><path d="M97.31,292.8c-.13-.32-.2-.46-.35-.63-.3-.33-.69-.5-1.19-.5-.78,0-1.37,.42-1.73,1.24-.26,.6-.35,1.06-.42,2.15,.18-.31,.28-.45,.5-.64,.47-.42,1-.61,1.69-.61,1.55,0,2.51,.96,2.51,2.5s-1.04,2.57-2.62,2.57c-.71,0-1.38-.23-1.81-.63-.65-.6-1.01-1.72-1.01-3.14,0-1.25,.28-2.37,.76-3.02,.53-.72,1.24-1.09,2.11-1.09,.6,0,1.14,.15,1.52,.42,.35,.25,.55,.52,.84,1.12l-.8,.26Zm-1.61,1.68c-.5,0-1.03,.22-1.38,.57-.33,.33-.5,.77-.5,1.27,0,1.08,.81,1.88,1.89,1.88,.65,0,1.25-.31,1.56-.81,.16-.26,.26-.67,.26-1.06,0-1.18-.66-1.85-1.83-1.85Z"/><path d="M101.64,296.25c-.09,.58-.22,1.08-.41,1.55-.26,.66-.54,1.1-1.1,1.74-.18-.23-.32-.37-.55-.53,.62-.62,.94-1.15,1.18-1.96,.28-.95,.39-2.18,.39-4.4,0-.92,0-1.32-.04-1.7,.36,.04,.62,.05,1.05,.05h3.76c.44,0,.7,0,1.04-.05-.03,.27-.04,.52-.04,1.03v6.58c0,.36-.09,.57-.28,.7-.16,.1-.35,.13-.8,.13-.33,0-.75,0-1.2-.04-.03-.26-.07-.42-.16-.68,.5,.07,.95,.1,1.43,.1,.29,0,.37-.06,.37-.31v-2.21h-4.64Zm4.64-.6v-1.78h-4.46c-.01,.55-.03,.93-.11,1.78h4.57Zm0-2.38v-1.66h-4.45v1.66h4.45Z"/></g></g><g class="cr"><g><path d="M128.78,291.82c-.18,.14-.35,.36-.74,.96-.9,1.39-1.32,2.24-1.71,3.46-.26,.83-.37,1.34-.53,2.5h-.95c.32-1.81,.59-2.71,1.21-3.99,.48-1,.91-1.69,1.8-2.9h-3.25c-.47,0-.75,.02-1.13,.07v-.85c.39,.05,.66,.07,1.14,.07h3c.59,0,.81,0,1.16-.05v.73Z"/><path d="M132.21,296.25c-.09,.58-.22,1.08-.41,1.55-.26,.66-.54,1.1-1.1,1.74-.18-.23-.32-.37-.55-.53,.62-.62,.94-1.15,1.18-1.96,.28-.95,.39-2.18,.39-4.4,0-.92,0-1.32-.04-1.7,.36,.04,.62,.05,1.05,.05h3.76c.44,0,.7,0,1.04-.05-.03,.27-.04,.52-.04,1.03v6.58c0,.36-.09,.57-.28,.7-.16,.1-.35,.13-.8,.13-.33,0-.75,0-1.2-.04-.03-.26-.07-.42-.16-.68,.5,.07,.95,.1,1.43,.1,.29,0,.37-.06,.37-.31v-2.21h-4.64Zm4.64-.6v-1.78h-4.46c-.01,.55-.03,.93-.11,1.78h4.57Zm0-2.38v-1.66h-4.45v1.66h4.45Z"/></g></g><g class="cq"><g><path d="M158.77,295.19c.5,.37,.75,.9,.75,1.57,0,1.37-1,2.14-2.76,2.14s-2.84-.76-2.84-2.14c0-.72,.29-1.27,.89-1.66,.31-.2,.53-.28,.9-.34-.88-.16-1.45-.87-1.45-1.8,0-1.21,.95-1.98,2.46-1.98s2.47,.75,2.47,1.98c0,.93-.56,1.63-1.45,1.8,.42,.06,.7,.18,1.03,.43Zm-4.03,1.52c0,.95,.73,1.51,1.97,1.51,.7,0,1.27-.18,1.61-.52,.25-.23,.38-.58,.38-.99,0-.98-.75-1.57-1.98-1.57s-1.98,.6-1.98,1.57Zm.3-3.69c0,.89,.64,1.43,1.69,1.43s1.68-.54,1.68-1.43c0-.84-.66-1.37-1.69-1.37s-1.68,.54-1.68,1.37Z"/><path d="M162.79,296.25c-.09,.58-.22,1.08-.41,1.55-.26,.66-.54,1.1-1.1,1.74-.18-.23-.32-.37-.55-.53,.62-.62,.94-1.15,1.18-1.96,.28-.95,.39-2.18,.39-4.4,0-.92,0-1.32-.04-1.7,.36,.04,.62,.05,1.05,.05h3.76c.44,0,.7,0,1.04-.05-.03,.27-.04,.52-.04,1.03v6.58c0,.36-.09,.57-.28,.7-.16,.1-.35,.13-.8,.13-.33,0-.75,0-1.2-.04-.03-.26-.07-.42-.16-.68,.5,.07,.95,.1,1.43,.1,.29,0,.37-.06,.37-.31v-2.21h-4.64Zm4.64-.6v-1.78h-4.46c-.01,.55-.03,.93-.11,1.78h4.57Zm0-2.38v-1.66h-4.45v1.66h4.45Z"/></g></g><g class="dc"><g><path d="M185.48,297.08c.12,.33,.2,.47,.36,.64,.28,.31,.71,.47,1.26,.47,.72,0,1.24-.29,1.61-.92,.19-.32,.35-.81,.43-1.28,.04-.25,.07-.66,.09-1.17-.14,.27-.22,.37-.4,.56-.51,.48-1.07,.7-1.82,.7s-1.37-.23-1.8-.66-.68-1.09-.68-1.8c0-1.59,1.07-2.63,2.71-2.63,1.12,0,2.04,.64,2.42,1.68,.2,.54,.29,1.22,.29,2.08,0,1.39-.29,2.52-.83,3.19-.5,.63-1.16,.93-2.08,.93-.69,0-1.25-.18-1.68-.54-.28-.23-.44-.46-.7-.99l.82-.26Zm3.56-3.52c0-1.08-.8-1.89-1.87-1.89-.66,0-1.26,.32-1.59,.85-.16,.26-.26,.66-.26,1.05,0,1.13,.69,1.84,1.78,1.84s1.94-.79,1.94-1.85Z"/><path d="M193.36,296.25c-.09,.58-.22,1.08-.41,1.55-.26,.66-.54,1.1-1.1,1.74-.18-.23-.32-.37-.55-.53,.62-.62,.94-1.15,1.18-1.96,.28-.95,.39-2.18,.39-4.4,0-.92,0-1.32-.04-1.7,.36,.04,.62,.05,1.05,.05h3.76c.44,0,.7,0,1.04-.05-.03,.27-.04,.52-.04,1.03v6.58c0,.36-.09,.57-.28,.7-.16,.1-.35,.13-.8,.13-.33,0-.75,0-1.2-.04-.03-.26-.07-.42-.16-.68,.5,.07,.95,.1,1.43,.1,.29,0,.37-.06,.37-.31v-2.21h-4.64Zm4.64-.6v-1.78h-4.46c-.01,.55-.03,.93-.11,1.78h4.57Zm0-2.38v-1.66h-4.45v1.66h4.45Z"/></g></g><g class="db"><g><path d="M212.91,291.09c.26,.04,.45,.05,.83,.05h.63c.34,0,.5,0,.83-.05-.06,.61-.09,1.12-.09,1.66v4.86c0,.47,.02,.76,.08,1.13h-.95c.06-.35,.08-.67,.08-1.13v-5.79h-.54c-.32,0-.58,.02-.87,.06v-.79Z"/><path d="M219.32,298.18c-.27-.27-.48-.58-.6-.92-.25-.7-.38-1.49-.38-2.31,0-1.06,.23-2.14,.58-2.72,.48-.81,1.25-1.23,2.24-1.23,.74,0,1.38,.24,1.83,.71,.28,.28,.48,.59,.6,.92,.25,.69,.38,1.49,.38,2.32,0,1.21-.26,2.28-.7,2.89-.5,.7-1.2,1.05-2.12,1.05-.74,0-1.36-.24-1.83-.71Zm.58-5.98c-.21,.23-.37,.48-.45,.73-.21,.61-.31,1.29-.31,2.02,0,.93,.2,1.91,.47,2.38,.35,.58,.87,.87,1.55,.87,.5,0,.93-.16,1.23-.47,.22-.23,.38-.49,.47-.78,.21-.62,.31-1.28,.31-2.02,0-.87-.19-1.86-.45-2.33-.33-.6-.87-.91-1.57-.91-.52,0-.93,.17-1.25,.51Z"/><path d="M227.22,296.25c-.09,.58-.22,1.08-.41,1.55-.26,.66-.54,1.1-1.1,1.74-.18-.23-.32-.37-.55-.53,.62-.62,.94-1.15,1.18-1.96,.28-.95,.39-2.18,.39-4.4,0-.92,0-1.32-.04-1.7,.36,.04,.62,.05,1.05,.05h3.76c.44,0,.7,0,1.04-.05-.03,.27-.04,.52-.04,1.03v6.58c0,.36-.09,.57-.28,.7-.16,.1-.35,.13-.8,.13-.33,0-.75,0-1.2-.04-.03-.26-.07-.42-.16-.68,.5,.07,.95,.1,1.43,.1,.29,0,.37-.06,.37-.31v-2.21h-4.64Zm4.64-.6v-1.78h-4.46c-.01,.55-.03,.93-.11,1.78h4.57Zm0-2.38v-1.66h-4.45v1.66h4.45Z"/></g></g><g class="da"><g><path d="M243.49,291.09c.26,.04,.45,.05,.83,.05h.63c.34,0,.5,0,.83-.05-.06,.61-.09,1.12-.09,1.66v4.86c0,.47,.02,.76,.08,1.13h-.95c.06-.35,.08-.67,.08-1.13v-5.79h-.54c-.32,0-.58,.02-.87,.06v-.79Z"/><path d="M250.06,291.09c.26,.04,.45,.05,.83,.05h.63c.34,0,.5,0,.83-.05-.06,.61-.09,1.12-.09,1.66v4.86c0,.47,.02,.76,.08,1.13h-.95c.06-.35,.08-.67,.08-1.13v-5.79h-.54c-.32,0-.58,.02-.87,.06v-.79Z"/><path d="M257.79,296.25c-.09,.58-.22,1.08-.41,1.55-.26,.66-.54,1.1-1.1,1.74-.18-.23-.32-.37-.55-.53,.62-.62,.94-1.15,1.18-1.96,.28-.95,.39-2.18,.39-4.4,0-.92,0-1.32-.04-1.7,.36,.04,.62,.05,1.05,.05h3.76c.44,0,.7,0,1.04-.05-.03,.27-.04,.52-.04,1.03v6.58c0,.36-.09,.57-.28,.7-.16,.1-.35,.13-.8,.13-.33,0-.75,0-1.2-.04-.03-.26-.07-.42-.16-.68,.5,.07,.95,.1,1.43,.1,.29,0,.37-.06,.37-.31v-2.21h-4.64Zm4.64-.6v-1.78h-4.46c-.01,.55-.03,.93-.11,1.78h4.57Zm0-2.38v-1.66h-4.45v1.66h4.45Z"/></g></g><g class="d`"><g><path d="M274.06,291.09c.26,.04,.45,.05,.83,.05h.63c.34,0,.5,0,.83-.05-.06,.61-.09,1.12-.09,1.66v4.86c0,.47,.02,.76,.08,1.13h-.95c.06-.35,.08-.67,.08-1.13v-5.79h-.54c-.32,0-.58,.02-.87,.06v-.79Z"/><path d="M280.71,298.74c-.63,0-.78,0-1.1,.05,.11-.79,.14-.94,.29-1.32,.25-.63,.67-1.18,1.3-1.72,.35-.3,.37-.31,1.53-1.1,.99-.67,1.32-1.11,1.32-1.72,0-.76-.64-1.25-1.66-1.25-.66,0-1.15,.22-1.45,.65-.19,.27-.28,.51-.35,1.01l-.84-.14c.15-.72,.3-1.07,.63-1.44,.45-.51,1.13-.77,2.01-.77,1.51,0,2.48,.76,2.48,1.94,0,.51-.2,.99-.59,1.42-.3,.34-.56,.53-1.7,1.29-.79,.53-1.11,.81-1.44,1.23-.31,.41-.45,.68-.57,1.16h3.19c.5,0,.84-.02,1.22-.07v.84c-.4-.04-.73-.06-1.23-.06h-3.04Z"/><path d="M288.37,296.25c-.09,.58-.22,1.08-.41,1.55-.26,.66-.54,1.1-1.1,1.74-.18-.23-.32-.37-.55-.53,.62-.62,.94-1.15,1.18-1.96,.28-.95,.39-2.18,.39-4.4,0-.92,0-1.32-.04-1.7,.36,.04,.62,.05,1.05,.05h3.76c.44,0,.7,0,1.04-.05-.03,.27-.04,.52-.04,1.03v6.58c0,.36-.09,.57-.28,.7-.16,.1-.35,.13-.8,.13-.33,0-.75,0-1.2-.04-.03-.26-.07-.42-.16-.68,.5,.07,.95,.1,1.43,.1,.29,0,.37-.06,.37-.31v-2.21h-4.64Zm4.64-.6v-1.78h-4.46c-.01,.55-.03,.93-.11,1.78h4.57Zm0-2.38v-1.66h-4.45v1.66h4.45Z"/></g></g><g class="cy"><g><path d="M307.92,291.09c.26,.04,.45,.05,.83,.05h.63c.34,0,.5,0,.83-.05-.06,.61-.09,1.12-.09,1.66v4.86c0,.47,.02,.76,.08,1.13h-.95c.06-.35,.08-.67,.08-1.13v-5.79h-.54c-.32,0-.58,.02-.87,.06v-.79Z"/><path d="M315.66,296.25c-.09,.58-.22,1.08-.41,1.55-.26,.66-.54,1.1-1.1,1.74-.18-.23-.32-.37-.55-.53,.62-.62,.94-1.15,1.18-1.96,.28-.95,.39-2.18,.39-4.4,0-.92,0-1.32-.04-1.7,.36,.04,.62,.05,1.05,.05h3.76c.44,0,.7,0,1.04-.05-.03,.27-.04,.52-.04,1.03v6.58c0,.36-.09,.57-.28,.7-.16,.1-.35,.13-.8,.13-.33,0-.75,0-1.2-.04-.03-.26-.07-.42-.16-.68,.5,.07,.95,.1,1.43,.1,.29,0,.37-.06,.37-.31v-2.21h-4.64Zm4.64-.6v-1.78h-4.46c0,.55-.03,.93-.11,1.78h4.57Zm0-2.38v-1.66h-4.45v1.66h4.45Z"/></g></g><g class="ch"><g><path d="M338.57,298.74c-.63,0-.78,0-1.1,.05,.11-.79,.14-.94,.29-1.32,.25-.63,.67-1.18,1.3-1.72,.35-.3,.37-.31,1.53-1.1,.99-.67,1.32-1.11,1.32-1.72,0-.76-.64-1.25-1.66-1.25-.66,0-1.15,.22-1.45,.65-.19,.27-.28,.51-.35,1.01l-.84-.14c.15-.72,.3-1.07,.63-1.44,.45-.51,1.13-.77,2.01-.77,1.51,0,2.48,.76,2.48,1.94,0,.51-.2,.99-.59,1.42-.3,.34-.56,.53-1.7,1.29-.79,.53-1.11,.81-1.44,1.23-.31,.41-.45,.68-.57,1.16h3.19c.5,0,.84-.02,1.22-.07v.84c-.4-.04-.73-.06-1.23-.06h-3.04Z"/><path d="M346.23,296.25c-.09,.58-.22,1.08-.41,1.55-.26,.66-.54,1.1-1.1,1.74-.18-.23-.32-.37-.55-.53,.62-.62,.94-1.15,1.18-1.96,.28-.95,.39-2.18,.39-4.4,0-.92,0-1.32-.04-1.7,.36,.04,.62,.05,1.05,.05h3.76c.44,0,.7,0,1.04-.05-.03,.27-.04,.52-.04,1.03v6.58c0,.36-.09,.57-.28,.7-.16,.1-.35,.13-.8,.13-.33,0-.75,0-1.2-.04-.03-.26-.07-.42-.16-.68,.5,.07,.95,.1,1.43,.1,.29,0,.37-.06,.37-.31v-2.21h-4.64Zm4.64-.6v-1.78h-4.46c0,.55-.03,.93-.11,1.78h4.57Zm0-2.38v-1.66h-4.45v1.66h4.45Z"/></g></g><g class="cg"><g><path d="M368.75,296.89c.16,.52,.3,.73,.61,.95,.34,.24,.78,.36,1.29,.36,1.16,0,1.89-.6,1.89-1.55s-.71-1.53-2.04-1.53c-.28,0-.53,.02-.8,.05v-.79c.23,.04,.47,.06,.74,.06,.66,0,1.15-.15,1.46-.46,.25-.24,.4-.61,.4-.97,0-.86-.6-1.36-1.61-1.36-.61,0-1.05,.17-1.33,.53-.14,.18-.21,.34-.32,.71l-.83-.18c.17-.51,.29-.74,.54-1,.44-.48,1.12-.73,1.99-.73,1.45,0,2.37,.76,2.37,1.96,0,.61-.26,1.15-.7,1.46-.26,.19-.48,.27-.94,.36,.58,.06,.89,.17,1.23,.43,.44,.34,.67,.87,.67,1.51,0,1.35-1.04,2.19-2.71,2.19-1.01,0-1.76-.28-2.24-.82-.21-.24-.33-.46-.51-.97l.84-.21Z"/><path d="M376.81,296.25c-.09,.58-.22,1.08-.41,1.55-.26,.66-.54,1.1-1.1,1.74-.18-.23-.32-.37-.55-.53,.62-.62,.94-1.15,1.18-1.96,.28-.95,.39-2.18,.39-4.4,0-.92,0-1.32-.04-1.7,.36,.04,.62,.05,1.05,.05h3.76c.44,0,.7,0,1.04-.05-.03,.27-.04,.52-.04,1.03v6.58c0,.36-.09,.57-.28,.7-.16,.1-.35,.13-.8,.13-.33,0-.75,0-1.2-.04-.03-.26-.07-.42-.16-.68,.5,.07,.95,.1,1.43,.1,.29,0,.37-.06,.37-.31v-2.21h-4.64Zm4.64-.6v-1.78h-4.46c0,.55-.03,.93-.11,1.78h4.57Zm0-2.38v-1.66h-4.45v1.66h4.45Z"/></g></g><g class="cf"><g class="fc"><g class="ck"><g class="cj"><rect class="ce" x="40.03" y="225.65" width="12" height="60"/></g></g></g></g><g class="ci"><g class="fc"><g class="fb"><g class="ef"><rect class="ce" x="71.03" y="276.65" width="12" height="9"/></g></g></g></g><g class="ee"><g class="fc"><g class="em"><g class="fa"><rect class="ce" x="132.03" y="245.65" width="12" height="40"/></g></g></g></g><g class="ev"><g class="fc"><g class="eu"><g class="ed"><rect class="ce" x="162.03" y="255.65" width="13" height="30"/></g></g></g></g><g class="ec"><g class="fc"><g class="f`"><g class="ey"><rect class="ce" x="193.03" y="235.65" width="12" height="50"/></g></g></g></g><g class="eh"><g class="fc"><g class="et"><g class="eo"><rect class="ce" x="223.03" y="265.65" width="13" height="20"/></g></g></g></g><g class="en"><g class="fc"><g class="ex"><g class="ew"><rect class="ce" x="254.03" y="245.65" width="12" height="40"/></g></g></g></g><g class="es"><g class="fc"><g class="er"><g class="eg"><rect class="ce" x="315.03" y="235.65" width="12" height="50"/></g></g></g></g><g class="el"><g class="fc"><g class="ej"><g class="ei"><rect class="ce" x="346.03" y="184.65" width="12" height="101"/></g></g></g></g><g class="eq"><g class="fc"><g class="ep"><g class="ek"><rect class="cd" x="57.03" y="276.65" width="12" height="9"/></g></g></g></g><g class="dx"><g class="fc"><g class="dq"><g class="dp"><rect class="cd" x="88.03" y="265.65" width="12" height="20"/></g></g></g></g><g class="eb"><g class="fc"><g class="dv"><g class="ea"><rect class="cd" x="118.03" y="265.65" width="13" height="20"/></g></g></g></g><g class="e`"><g class="fc"><g class="dy"><g class="dr"><rect class="cd" x="149.03" y="276.65" width="12" height="9"/></g></g></g></g><g class="di"><g class="fc"><g class="dh"><g class="dw"><rect class="cd" x="210.03" y="265.65" width="12" height="20"/></g></g></g></g><g class="dn"><g class="fc"><g class="du"><g class="dt"><rect class="cd" x="271.03" y="245.65" width="12" height="40"/></g></g></g></g><g class="ds"><g class="fc"><g class="dj"><g class="de"><rect class="cd" x="302.03" y="164.65" width="12" height="121"/></g></g></g></g><g class="dd"><g class="fc"><g class="do"><g class="dg"><rect class="cd" x="332.03" y="62.65" width="13" height="223"/></g></g></g></g><g class="dm"><g class="fc"><g class="dl"><g class="dk"><rect class="cd" x="363.03" y="153.65" width="12" height="132"/></g></g></g></g><g class="df"><rect class="cd" x="66.03" y=".65" width="9" height="9"/><g><path d="M83.09,6.89c.16,.52,.3,.73,.61,.95,.34,.24,.78,.36,1.29,.36,1.16,0,1.89-.6,1.89-1.55s-.71-1.53-2.04-1.53c-.28,0-.53,.02-.8,.05v-.79c.23,.04,.47,.06,.74,.06,.66,0,1.15-.15,1.46-.46,.25-.24,.4-.61,.4-.97,0-.86-.6-1.36-1.61-1.36-.61,0-1.05,.17-1.33,.53-.14,.18-.21,.34-.32,.71l-.83-.18c.17-.51,.29-.74,.54-1,.44-.48,1.12-.73,1.99-.73,1.45,0,2.37,.76,2.37,1.96,0,.61-.26,1.15-.7,1.46-.26,.19-.48,.27-.94,.36,.58,.06,.89,.17,1.23,.43,.44,.34,.67,.87,.67,1.51,0,1.35-1.04,2.19-2.71,2.19-1.01,0-1.76-.28-2.24-.82-.21-.24-.33-.46-.51-.97l.84-.21Z"/><path d="M89.9,1.55c0-.4-.02-.67-.06-.95h.7c-.04,.26-.05,.56-.05,.96v.18h1.84v-.19c0-.45-.01-.71-.05-.95h.69c-.04,.25-.06,.54-.06,.96v.18c.36,0,.65-.02,.83-.06v.64c-.21-.03-.41-.04-.83-.04V6.55c.36,0,.61-.02,.79-.05v.62c-.23-.02-.52-.03-.91-.03h-3.16c-.4,0-.59,0-.81,.05v-.64c.2,.04,.42,.05,.8,.05h.28V2.28h-.06c-.41,0-.67,0-.86,.05v-.65c.18,.04,.44,.06,.86,.06h.06v-.19Zm1.03,6.2c-.49,.78-.79,1.12-1.56,1.73-.13-.21-.23-.32-.46-.48,.75-.49,1.13-.89,1.5-1.56l.52,.31Zm1.4-4.43v-1.04h-1.84v1.04h1.84Zm0,1.56v-1.05h-1.84v1.05h1.84Zm0,1.67v-1.16h-1.84v1.16h1.84Zm-.15,.88c.32,.47,.52,.68,.98,1.03-.2,.14-.29,.23-.46,.43-.43-.4-.66-.66-.97-1.15l.45-.31Zm2.55-1.14c-.13,1.47-.41,2.25-1.17,3.24-.24-.29-.25-.3-.49-.46,.6-.7,.84-1.25,.99-2.26,.1-.73,.17-2.5,.17-4.64,0-.67-.01-.9-.04-1.18,.28,.03,.5,.04,.96,.04h1.38c.46,0,.68,0,.95-.04-.03,.23-.04,.53-.04,.97v6.74c0,.34-.09,.55-.27,.65-.12,.07-.4,.11-.81,.11-.14,0-.25,0-.79-.04-.03-.29-.06-.41-.16-.71,.55,.1,.78,.13,1.1,.13,.24,0,.32-.06,.32-.22v-2.33h-2.1Zm.09-2.39c-.02,.98-.02,1.19-.06,1.83h2.07v-1.83h-2.01Zm2.01-2.31h-2v1.75h2V1.59Z"/><path d="M107.1,9.61c-.75-.86-1.06-1.34-1.39-2.15-.33-.8-.48-1.59-.48-2.46s.15-1.66,.48-2.46c.33-.81,.64-1.29,1.39-2.15h.89c-.84,.85-1.17,1.3-1.52,2.07-.36,.8-.54,1.63-.54,2.54s.18,1.74,.54,2.54c.35,.77,.68,1.22,1.52,2.07h-.89Z"/><path d="M110.06,8.74c-.63,0-.78,0-1.1,.05,.11-.79,.14-.94,.29-1.32,.25-.63,.67-1.18,1.3-1.72,.35-.3,.37-.31,1.53-1.1,.99-.67,1.32-1.11,1.32-1.72,0-.76-.64-1.25-1.66-1.25-.66,0-1.15,.22-1.45,.65-.19,.27-.28,.51-.35,1.01l-.84-.14c.15-.72,.3-1.07,.63-1.44,.45-.51,1.13-.77,2.01-.77,1.51,0,2.48,.76,2.48,1.94,0,.51-.2,.99-.59,1.42-.3,.34-.56,.53-1.7,1.29-.79,.53-1.11,.81-1.44,1.23-.31,.41-.45,.68-.57,1.16h3.19c.5,0,.84-.02,1.22-.07v.84c-.4-.04-.73-.06-1.23-.06h-3.04Z"/><path d="M116.39,8.18c-.27-.27-.48-.58-.6-.92-.25-.7-.38-1.49-.38-2.31,0-1.06,.23-2.14,.58-2.72,.48-.81,1.25-1.23,2.24-1.23,.74,0,1.38,.24,1.83,.71,.28,.28,.48,.59,.6,.92,.25,.69,.38,1.49,.38,2.32,0,1.21-.26,2.28-.7,2.89-.5,.7-1.2,1.05-2.12,1.05-.74,0-1.36-.24-1.83-.71Zm.58-5.98c-.21,.23-.37,.48-.45,.73-.21,.61-.31,1.29-.31,2.02,0,.93,.2,1.91,.47,2.38,.35,.58,.87,.87,1.55,.87,.5,0,.93-.16,1.23-.47,.22-.23,.38-.49,.47-.78,.21-.62,.31-1.28,.31-2.02,0-.87-.19-1.86-.45-2.33-.33-.6-.87-.91-1.57-.91-.52,0-.93,.17-1.25,.51Z"/><path d="M123.2,8.74c-.63,0-.78,0-1.1,.05,.11-.79,.14-.94,.29-1.32,.25-.63,.67-1.18,1.3-1.72,.35-.3,.37-.31,1.53-1.1,.99-.67,1.32-1.11,1.32-1.72,0-.76-.64-1.25-1.66-1.25-.66,0-1.15,.22-1.45,.65-.19,.27-.28,.51-.35,1.01l-.84-.14c.15-.72,.3-1.07,.63-1.44,.45-.51,1.13-.77,2.01-.77,1.51,0,2.48,.76,2.48,1.94,0,.51-.2,.99-.59,1.42-.3,.34-.56,.53-1.7,1.29-.79,.53-1.11,.81-1.44,1.23-.31,.41-.45,.68-.57,1.16h3.19c.5,0,.84-.02,1.22-.07v.84c-.4-.04-.73-.06-1.23-.06h-3.04Z"/><path d="M129.53,8.18c-.27-.27-.48-.58-.6-.92-.25-.7-.38-1.49-.38-2.31,0-1.06,.23-2.14,.58-2.72,.48-.81,1.25-1.23,2.24-1.23,.74,0,1.38,.24,1.83,.71,.28,.28,.48,.59,.6,.92,.25,.69,.38,1.49,.38,2.32,0,1.21-.26,2.28-.7,2.89-.5,.7-1.2,1.05-2.12,1.05-.74,0-1.36-.24-1.83-.71Zm.58-5.98c-.21,.23-.37,.48-.45,.73-.21,.61-.31,1.29-.31,2.02,0,.93,.2,1.91,.47,2.38,.35,.58,.87,.87,1.55,.87,.5,0,.93-.16,1.23-.47,.22-.23,.38-.49,.47-.78,.21-.62,.31-1.28,.31-2.02,0-.87-.19-1.86-.45-2.33-.33-.6-.87-.91-1.57-.91-.52,0-.93,.17-1.25,.51Z"/><path d="M136.97,4.42c0-.22-.01-.39-.03-.59,.21,.02,.43,.03,.71,.03h2.17v-1.63h-2.35c-.51,.85-.99,1.44-1.66,2.04-.16-.23-.26-.33-.48-.48,.99-.84,1.53-1.57,2-2.69,.13-.29,.2-.52,.25-.73l.71,.2c-.04,.08-.07,.15-.13,.27l-.38,.81h4.96c.44,0,.65,0,.9-.05v.68c-.25-.04-.49-.05-.9-.05h-2.26v1.63h1.81c.41,0,.63,0,.89-.05v.66c-.26-.03-.5-.04-.88-.04h-1.82v1.96h2.52c.45,0,.73-.02,1.01-.06v.72c-.29-.04-.6-.06-1.01-.06h-2.52v1.65c0,.43,.02,.67,.07,.93h-.79c.05-.25,.06-.47,.06-.93v-1.65h-3.61c-.41,0-.72,.02-1.01,.06v-.72c.29,.04,.57,.06,1.01,.06h.76v-1.97Zm2.85,1.97v-1.96h-2.2v1.96h2.2Z"/><path d="M146.63,3.48c-.07,3.24-.29,4.42-1.11,5.93-.18-.23-.32-.35-.53-.49,.37-.62,.57-1.12,.71-1.81,.21-.99,.3-2.37,.3-4.62,0-.65,0-.92-.04-1.22,.32,.03,.64,.05,1.03,.05h2.63v-.29c0-.25-.02-.44-.06-.65h.74c-.03,.18-.05,.38-.05,.65v.29h2.74c.53,0,.83-.02,1.09-.06v.66c-.3-.04-.57-.05-1.04-.05h-6.4v1.07h1.81v-.16c0-.28,0-.47-.04-.66h.69c-.03,.21-.04,.4-.04,.65v.17h2.32v-.16c0-.26-.02-.47-.04-.66h.69c-.03,.18-.04,.37-.04,.67v.15h1.2c.45,0,.67-.01,.91-.05v.64c-.22-.04-.48-.05-.91-.05h-1.2v.98c0,.23,.01,.42,.03,.6-.2-.02-.27-.02-.65-.02h-2.23c-.4,0-.58,0-.72,.02,.02-.19,.03-.4,.03-.6v-.98h-1.82Zm6.22,2.7c-.12,.13-.17,.18-.34,.38-.46,.53-1.03,1.05-1.62,1.46,.98,.47,2.07,.75,3.26,.83-.14,.22-.22,.4-.3,.66-1.5-.22-2.49-.54-3.54-1.14-1.05,.58-2.08,.91-3.63,1.18-.06-.23-.13-.38-.28-.62,1.47-.19,2.41-.45,3.36-.91-.67-.49-1.1-.93-1.61-1.68-.48,0-.73,.01-.99,.05v-.62c.22,.04,.5,.05,1.01,.05h3.63c.32,0,.49,0,.69-.03l.36,.39Zm-4,.16c.38,.56,.77,.92,1.47,1.36,.63-.39,.97-.68,1.6-1.36h-3.07Zm.21-1.81h2.32v-1.05h-2.32v1.05Z"/><path d="M155.03,9.61c.84-.84,1.17-1.3,1.52-2.07,.36-.8,.54-1.63,.54-2.54s-.18-1.74-.54-2.54c-.35-.77-.68-1.23-1.52-2.07h.89c.75,.86,1.06,1.34,1.39,2.15,.33,.8,.48,1.59,.48,2.46s-.15,1.66-.48,2.46c-.33,.81-.64,1.29-1.39,2.15h-.89Z"/></g><rect class="ce" x="219.03" y=".65" width="9" height="9"/><g><path d="M235.04,6.09c.21-.24,.44-.52,.65-.77l2.53-3.16c.34-.42,.52-.67,.75-1.02h.75c-.05,.59-.06,.9-.06,1.69v3.28h.38c.42,0,.68-.02,1.04-.07v.83c-.37-.05-.62-.07-1.05-.07h-.37v.86c0,.48,.02,.71,.08,1.08h-.91c.06-.35,.08-.63,.08-1.08v-.86h-2.68c-.56,0-.86,0-1.19,.04v-.75Zm3.88-2.51c0-.53,.01-.85,.06-1.36-.21,.3-.46,.63-.75,1l-2.3,2.9h2.99V3.58Z"/><path d="M242.87,1.55c0-.4-.02-.67-.06-.95h.7c-.04,.26-.05,.56-.05,.96v.18h1.84v-.19c0-.45-.01-.71-.05-.95h.69c-.04,.25-.06,.54-.06,.96v.18c.36,0,.65-.02,.83-.06v.64c-.21-.03-.41-.04-.83-.04V6.55c.36,0,.61-.02,.79-.05v.62c-.23-.02-.52-.03-.91-.03h-3.16c-.4,0-.59,0-.81,.05v-.64c.2,.04,.42,.05,.8,.05h.28V2.28h-.06c-.41,0-.67,0-.86,.05v-.65c.18,.04,.44,.06,.86,.06h.06v-.19Zm1.03,6.2c-.49,.78-.79,1.12-1.56,1.73-.13-.21-.23-.32-.46-.48,.75-.49,1.13-.89,1.5-1.56l.52,.31Zm1.4-4.43v-1.04h-1.84v1.04h1.84Zm0,1.56v-1.05h-1.84v1.05h1.84Zm0,1.67v-1.16h-1.84v1.16h1.84Zm-.15,.88c.32,.47,.52,.68,.98,1.03-.2,.14-.29,.23-.46,.43-.43-.4-.66-.66-.97-1.15l.45-.31Zm2.55-1.14c-.13,1.47-.41,2.25-1.17,3.24-.24-.29-.25-.3-.49-.46,.6-.7,.84-1.25,.99-2.26,.1-.73,.17-2.5,.17-4.64,0-.67,0-.9-.04-1.18,.28,.03,.5,.04,.96,.04h1.38c.46,0,.68,0,.95-.04-.03,.23-.04,.53-.04,.97v6.74c0,.34-.09,.55-.27,.65-.12,.07-.4,.11-.81,.11-.14,0-.25,0-.79-.04-.03-.29-.06-.41-.16-.71,.55,.1,.78,.13,1.1,.13,.24,0,.32-.06,.32-.22v-2.33h-2.1Zm.09-2.39c-.02,.98-.02,1.19-.06,1.83h2.07v-1.83h-2.01Zm2.01-2.31h-2v1.75h2V1.59Z"/><path d="M260.06,9.61c-.75-.86-1.06-1.34-1.39-2.15-.33-.8-.48-1.59-.48-2.46s.15-1.66,.48-2.46c.33-.81,.64-1.29,1.39-2.15h.89c-.84,.85-1.17,1.3-1.52,2.07-.36,.8-.54,1.63-.54,2.54s.18,1.74,.54,2.54c.35,.77,.68,1.22,1.52,2.07h-.89Z"/><path d="M263.03,8.74c-.63,0-.78,0-1.1,.05,.11-.79,.14-.94,.29-1.32,.25-.63,.67-1.18,1.3-1.72,.35-.3,.37-.31,1.53-1.1,.99-.67,1.32-1.11,1.32-1.72,0-.76-.64-1.25-1.66-1.25-.66,0-1.15,.22-1.45,.65-.19,.27-.28,.51-.35,1.01l-.84-.14c.15-.72,.3-1.07,.63-1.44,.45-.51,1.13-.77,2.01-.77,1.51,0,2.48,.76,2.48,1.94,0,.51-.2,.99-.59,1.42-.3,.34-.56,.53-1.7,1.29-.79,.53-1.11,.81-1.44,1.23-.31,.41-.45,.68-.57,1.16h3.19c.5,0,.84-.02,1.22-.07v.84c-.4-.04-.73-.06-1.23-.06h-3.04Z"/><path d="M269.36,8.18c-.27-.27-.48-.58-.6-.92-.25-.7-.38-1.49-.38-2.31,0-1.06,.23-2.14,.58-2.72,.48-.81,1.25-1.23,2.24-1.23,.74,0,1.38,.24,1.83,.71,.28,.28,.48,.59,.6,.92,.25,.69,.38,1.49,.38,2.32,0,1.21-.26,2.28-.7,2.89-.5,.7-1.2,1.05-2.12,1.05-.74,0-1.36-.24-1.83-.71Zm.58-5.98c-.21,.23-.37,.48-.45,.73-.21,.61-.31,1.29-.31,2.02,0,.93,.2,1.91,.47,2.38,.35,.58,.87,.87,1.55,.87,.5,0,.93-.16,1.23-.47,.22-.23,.38-.49,.47-.78,.21-.62,.31-1.28,.31-2.02,0-.87-.19-1.86-.45-2.33-.33-.6-.87-.91-1.57-.91-.52,0-.93,.17-1.25,.51Z"/><path d="M276.17,8.74c-.63,0-.78,0-1.1,.05,.11-.79,.14-.94,.29-1.32,.25-.63,.67-1.18,1.3-1.72,.35-.3,.37-.31,1.53-1.1,.99-.67,1.32-1.11,1.32-1.72,0-.76-.64-1.25-1.66-1.25-.66,0-1.15,.22-1.45,.65-.19,.27-.28,.51-.35,1.01l-.84-.14c.15-.72,.3-1.07,.63-1.44,.45-.51,1.13-.77,2.01-.77,1.51,0,2.48,.76,2.48,1.94,0,.51-.2,.99-.59,1.42-.3,.34-.56,.53-1.7,1.29-.79,.53-1.11,.81-1.44,1.23-.31,.41-.45,.68-.57,1.16h3.19c.5,0,.84-.02,1.22-.07v.84c-.4-.04-.73-.06-1.23-.06h-3.04Z"/><path d="M282.65,1.09c.26,.04,.45,.05,.83,.05h.63c.34,0,.5,0,.83-.05-.06,.61-.09,1.12-.09,1.66V7.61c0,.47,.02,.76,.08,1.13h-.95c.06-.35,.08-.67,.08-1.13V1.82h-.54c-.32,0-.58,.02-.87,.06v-.79Z"/><path d="M289.94,4.42c0-.22-.01-.39-.03-.59,.21,.02,.43,.03,.71,.03h2.17v-1.63h-2.35c-.51,.85-.99,1.44-1.66,2.04-.16-.23-.26-.33-.48-.48,.99-.84,1.53-1.57,2-2.69,.13-.29,.2-.52,.25-.73l.71,.2c-.04,.08-.07,.15-.13,.27l-.38,.81h4.96c.44,0,.65,0,.9-.05v.68c-.25-.04-.49-.05-.9-.05h-2.26v1.63h1.81c.41,0,.63,0,.89-.05v.66c-.26-.03-.5-.04-.88-.04h-1.82v1.96h2.52c.45,0,.73-.02,1.01-.06v.72c-.29-.04-.6-.06-1.01-.06h-2.52v1.65c0,.43,.02,.67,.07,.93h-.79c.05-.25,.06-.47,.06-.93v-1.65h-3.61c-.41,0-.72,.02-1.01,.06v-.72c.29,.04,.57,.06,1.01,.06h.76v-1.97Zm2.85,1.97v-1.96h-2.2v1.96h2.2Z"/><path d="M299.6,3.48c-.07,3.24-.29,4.42-1.11,5.93-.18-.23-.32-.35-.53-.49,.37-.62,.57-1.12,.71-1.81,.21-.99,.3-2.37,.3-4.62,0-.65,0-.92-.04-1.22,.32,.03,.64,.05,1.03,.05h2.63v-.29c0-.25-.02-.44-.06-.65h.74c-.03,.18-.05,.38-.05,.65v.29h2.74c.53,0,.83-.02,1.09-.06v.66c-.3-.04-.57-.05-1.04-.05h-6.4v1.07h1.81v-.16c0-.28,0-.47-.04-.66h.69c-.03,.21-.04,.4-.04,.65v.17h2.32v-.16c0-.26-.02-.47-.04-.66h.69c-.03,.18-.04,.37-.04,.67v.15h1.2c.45,0,.67-.01,.91-.05v.64c-.22-.04-.48-.05-.91-.05h-1.2v.98c0,.23,.01,.42,.03,.6-.2-.02-.27-.02-.65-.02h-2.23c-.4,0-.58,0-.72,.02,.02-.19,.03-.4,.03-.6v-.98h-1.82Zm6.22,2.7c-.12,.13-.17,.18-.34,.38-.46,.53-1.03,1.05-1.62,1.46,.98,.47,2.07,.75,3.26,.83-.14,.22-.22,.4-.3,.66-1.5-.22-2.49-.54-3.54-1.14-1.05,.58-2.08,.91-3.63,1.18-.06-.23-.13-.38-.28-.62,1.47-.19,2.41-.45,3.36-.91-.67-.49-1.1-.93-1.61-1.68-.48,0-.73,.01-.99,.05v-.62c.22,.04,.5,.05,1.01,.05h3.63c.32,0,.49,0,.69-.03l.36,.39Zm-4,.16c.38,.56,.77,.92,1.47,1.36,.63-.39,.97-.68,1.6-1.36h-3.07Zm.21-1.81h2.32v-1.05h-2.32v1.05Z"/><path d="M308,9.61c.84-.84,1.17-1.3,1.52-2.07,.36-.8,.54-1.63,.54-2.54s-.18-1.74-.54-2.54c-.35-.77-.68-1.23-1.52-2.07h.89c.75,.86,1.06,1.34,1.39,2.15,.33,.8,.48,1.59,.48,2.46s-.15,1.66-.48,2.46c-.33,.81-.64,1.29-1.39,2.15h-.89Z"/></g></g></svg>