<?xml version="1.0" encoding="UTF-8"?><svg id="a" xmlns="http://www.w3.org/2000/svg" xmlns:xlink="http://www.w3.org/1999/xlink" viewBox="0 0 458.55 235.97"><defs><style>.am,.an,.ao,.ap,.aq,.ar,.as,.at,.au,.av{fill:none;}.an,.ao,.ap{stroke-width:3.12px;}.an,.at{stroke:#00a2ff;}.ao,.as{stroke:#929292;}.ap,.au{stroke:#61d836;}.aw{font-family:HiraKakuProN-W3-83pv-RKSJ-H, Hiragino Kaku Gothic ProN;font-size:7.8px;}.aq{stroke:#b8b8b8;stroke-width:.39px;}.ar{stroke:#d5d5d5;}.ar,.av{stroke-width:.78px;}.as,.at,.au{stroke-width:1.25px;}.ax{letter-spacing:0em;}.ay{letter-spacing:-.1em;}.b`{clip-path:url(#v);}.ba{clip-path:url(#u);}.bb{clip-path:url(#t);}.bc{clip-path:url(#y);}.bd{clip-path:url(#x);}.be{clip-path:url(#w);}.bf{clip-path:url(#c);}.bg{clip-path:url(#b);}.bh{clip-path:url(#f);}.bi{clip-path:url(#e);}.bj{clip-path:url(#d);}.bk{clip-path:url(#n);}.bl{clip-path:url(#m);}.bm{clip-path:url(#l);}.bn{clip-path:url(#k);}.bo{clip-path:url(#j);}.bp{clip-path:url(#i);}.bq{clip-path:url(#h);}.br{clip-path:url(#g);}.bs{clip-path:url(#s);}.bt{clip-path:url(#r);}.bu{clip-path:url(#q);}.bv{clip-path:url(#p);}.bw{clip-path:url(#o);}.bx{clip-path:url(#ah);}.by{clip-path:url(#ag);}.c`{clip-path:url(#ab);}.ca{clip-path:url(#aa);}.cb{clip-path:url(#ak);}.cc{clip-path:url(#ac);}.cd{clip-path:url(#al);}.ce{clip-path:url(#af);}.cf{clip-path:url(#ae);}.cg{clip-path:url(#aj);}.ch{clip-path:url(#ai);}.ci{clip-path:url(#ad);}.cj{clip-path:url(#a`);}.av{stroke:#000;stroke-linecap:square;}.ck{isolation:isolate;}</style><clipPath id="b"><rect class="am" y="0" width="458.55" height="234"/></clipPath><clipPath id="c"><rect class="am" x="9.47" y="218.79" width="7.46" height="9.36"/></clipPath><clipPath id="d"><rect class="am" x="4.34" y="169.16" width="12.59" height="9.36"/></clipPath><clipPath id="e"><rect class="am" x="4.34" y="119.54" width="12.59" height="9.36"/></clipPath><clipPath id="f"><rect class="am" x="4.34" y="69.91" width="12.59" height="9.36"/></clipPath><clipPath id="g"><rect class="am" y="20.28" width="16.93" height="9.36"/></clipPath><clipPath id="h"><rect class="am" y="0" width="458.55" height="234"/></clipPath><clipPath id="i"><rect class="am" x="20.22" y="225.42" width="7.46" height="8.58"/></clipPath><clipPath id="j"><rect class="am" x="59.46" y="225.42" width="7.46" height="8.58"/></clipPath><clipPath id="k"><rect class="am" x="98.7" y="225.42" width="7.46" height="8.58"/></clipPath><clipPath id="l"><rect class="am" x="137.94" y="225.42" width="7.46" height="8.58"/></clipPath><clipPath id="m"><rect class="am" x="177.18" y="225.42" width="7.46" height="8.58"/></clipPath><clipPath id="n"><rect class="am" x="216.42" y="225.42" width="7.46" height="8.58"/></clipPath><clipPath id="o"><rect class="am" x="253.1" y="225.42" width="12.59" height="8.58"/></clipPath><clipPath id="p"><rect class="am" x="292.34" y="225.42" width="12.59" height="8.58"/></clipPath><clipPath id="q"><rect class="am" x="331.58" y="225.42" width="12.59" height="8.58"/></clipPath><clipPath id="r"><rect class="am" x="373.38" y="225.42" width="7.46" height="8.58"/></clipPath><clipPath id="s"><rect class="am" x="412.63" y="225.42" width="7.46" height="8.58"/></clipPath><clipPath id="t"><rect class="am" x="451.87" y="225.42" width="6.68" height="8.58"/></clipPath><clipPath id="u"><rect class="am" y="0" width="458.55" height="234"/></clipPath><clipPath id="v"><rect class="am" x="21.46" y="43.89" width="437" height="182"/></clipPath><clipPath id="w"><rect class="am" x="22.08" y="23.09" width="435.39" height="202.25"/></clipPath><clipPath id="x"><rect class="am" y="0" width="458.55" height="234"/></clipPath><clipPath id="y"><rect class="am" x="21.46" y="107.89" width="437" height="118"/></clipPath><clipPath id="a`"><rect class="am" x="22.08" y="23.09" width="435.39" height="202.25"/></clipPath><clipPath id="aa"><rect class="am" y="0" width="458.55" height="234"/></clipPath><clipPath id="ab"><rect class="am" x="21.46" y="22.89" width="437" height="203"/></clipPath><clipPath id="ac"><rect class="am" x="22.08" y="23.09" width="435.39" height="202.25"/></clipPath><clipPath id="ad"><rect class="am" y="0" width="458.55" height="234"/></clipPath><clipPath id="ae"><rect class="am" x="63.46" y="1.89" width="7" height="5"/></clipPath><clipPath id="af"><rect class="am" x="63.46" y=".89" width="7" height="6"/></clipPath><clipPath id="ag"><rect class="am" y="0" width="458.55" height="234"/></clipPath><clipPath id="ah"><rect class="am" x="178.46" y="1.89" width="7" height="5"/></clipPath><clipPath id="ai"><rect class="am" x="178.46" y=".89" width="7" height="6"/></clipPath><clipPath id="aj"><rect class="am" y="0" width="458.55" height="234"/></clipPath><clipPath id="ak"><rect class="am" x="292.46" y="1.89" width="7" height="5"/></clipPath><clipPath id="al"><rect class="am" x="292.46" y=".89" width="7" height="6"/></clipPath></defs><g class="bg"><line class="aq" x1="24.46" y1="173.39" x2="455.46" y2="173.39"/><line class="aq" x1="24.46" y1="124.39" x2="455.46" y2="124.39"/><line class="aq" x1="24.46" y1="74.39" x2="455.46" y2="74.39"/><line class="aq" x1="24.46" y1="25.39" x2="455.46" y2="25.39"/><line class="ar" x1="23.96" y1="24.89" x2="23.96" y2="223.89"/><line class="ar" x1="62.96" y1="24.89" x2="62.96" y2="223.89"/><line class="ar" x1="101.96" y1="24.89" x2="101.96" y2="223.89"/><line class="ar" x1="141.96" y1="24.89" x2="141.96" y2="223.89"/><line class="ar" x1="180.96" y1="24.89" x2="180.96" y2="223.89"/><line class="ar" x1="219.96" y1="24.89" x2="219.96" y2="223.89"/><line class="ar" x1="258.96" y1="24.89" x2="258.96" y2="223.89"/><line class="ar" x1="298.96" y1="24.89" x2="298.96" y2="223.89"/><line class="ar" x1="337.96" y1="24.89" x2="337.96" y2="223.89"/><line class="ar" x1="376.96" y1="24.89" x2="376.96" y2="223.89"/><line class="ar" x1="415.96" y1="24.89" x2="415.96" y2="223.89"/><line class="ar" x1="455.96" y1="24.89" x2="455.96" y2="223.89"/></g><g class="bf"><text class="aw" transform="translate(10.64 226.43)"><tspan x="0" y="0">0</tspan></text></g><g class="bj"><text class="aw" transform="translate(5.51 176.81)"><tspan x="0" y="0">25</tspan></text></g><g class="bi"><text class="aw" transform="translate(5.51 127.18)"><tspan x="0" y="0">50</tspan></text></g><g class="bh"><text class="aw" transform="translate(5.51 77.55)"><tspan x="0" y="0">75</tspan></text></g><g class="br"><text class="aw" transform="translate(.39 27.92)"><tspan x="0" y="0">100</tspan></text></g><g class="bq"><line class="av" x1="23.96" y1="223.39" x2="455.96" y2="223.39"/></g><g class="bp"><text class="aw" transform="translate(21.39 233.06)"><tspan x="0" y="0">4</tspan></text></g><g class="bo"><text class="aw" transform="translate(60.63 233.06)"><tspan x="0" y="0">5</tspan></text></g><g class="bn"><text class="aw" transform="translate(99.87 233.06)"><tspan x="0" y="0">6</tspan></text></g><g class="bm"><text class="aw" transform="translate(139.11 233.06)"><tspan x="0" y="0">7</tspan></text></g><g class="bl"><text class="aw" transform="translate(178.35 233.06)"><tspan x="0" y="0">8</tspan></text></g><g class="bk"><text class="aw" transform="translate(217.59 233.06)"><tspan x="0" y="0">9</tspan></text></g><g class="bw"><text class="aw" transform="translate(254.27 233.06)"><tspan x="0" y="0">10</tspan></text></g><g class="bv"><text class="aw" transform="translate(293.51 233.06)"><tspan x="0" y="0">11</tspan></text></g><g class="bu"><text class="aw" transform="translate(332.75 233.06)"><tspan x="0" y="0">12</tspan></text></g><g class="bt"><text class="aw" transform="translate(374.55 233.06)"><tspan x="0" y="0">1</tspan></text></g><g class="bs"><text class="aw" transform="translate(413.79 233.06)"><tspan x="0" y="0">2</tspan></text></g><g class="bb"><text class="aw" transform="translate(453.04 233.06)"><tspan x="0" y="0">3</tspan></text></g><g class="ba"><g class="ck"><g class="b`"><g class="be"><polyline class="ao" points="23.95 223.47 63.19 223.47 102.43 223.47 141.67 223.47 180.92 223.47 220.16 223.47 259.4 223.47 298.64 50.77 337.88 122.23 377.12 159.95 416.36 94.44 455.6 223.47"/></g></g></g></g><g class="bd"><g class="ck"><g class="bc"><g class="cj"><polyline class="ap" points="23.95 221.49 63.19 223.47 102.43 223.47 141.67 223.47 180.92 114.29 220.16 195.68 259.4 187.74 298.64 187.74 337.88 223.47 377.12 221.49 416.36 217.51 455.6 217.51"/></g></g></g></g><g class="ca"><g class="ck"><g class="c`"><g class="cc"><polyline class="an" points="23.95 142.08 63.19 28.93 102.43 209.57 141.67 217.51 180.92 215.53 220.16 211.56 259.4 221.49 298.64 223.47 337.88 223.47 377.12 223.47 416.36 223.47 455.6 217.51"/></g></g></g></g><g class="ci"><g class="ck"><g class="cf"><g class="ce"><line class="at" x1="63.46" y1="4.39" x2="70.46" y2="4.39"/></g></g></g><text class="aw" transform="translate(75.46 6.86)"><tspan x="0" y="0">3期（2020年度）</tspan></text></g><g class="by"><g class="ck"><g class="bx"><g class="ch"><line class="au" x1="178.46" y1="4.39" x2="185.46" y2="4.39"/></g></g></g><text class="aw" transform="translate(190.14 6.86)"><tspan x="0" y="0">4期（2021年度）</tspan></text></g><g class="cg"><g class="ck"><g class="cb"><g class="cd"><line class="as" x1="292.46" y1="4.39" x2="299.46" y2="4.39"/></g></g></g><text class="aw" transform="translate(304.85 6.86)"><tspan x="0" y="0">prototype (Ayumu </tspan><tspan class="ay" x="73.26" y="0">T</tspan><tspan class="ax" x="77.55" y="0">akai)</tspan></text></g></svg>