<svg width="1012" height="506" viewBox="0 0 1012 506" fill="none" xmlns="http://www.w3.org/2000/svg">
<rect width="1012" height="506" fill="white"/>
<path d="M373.658 269.575C377.552 260.082 381.333 250.552 385.001 240.984C388.67 231.342 391.965 222.11 394.885 213.29C396.756 213.664 398.404 213.851 399.826 213.851C401.249 213.851 402.896 213.664 404.768 213.29C402.896 217.7 400.65 223.007 398.029 229.211C395.409 235.415 392.676 241.993 389.831 248.945C386.986 255.896 384.178 262.96 381.408 270.136C378.637 277.312 376.166 284.039 373.995 290.318C372.498 290.168 370.85 290.094 369.053 290.094C367.257 290.094 365.609 290.168 364.112 290.318C362.989 287.328 361.604 283.703 359.956 279.442C358.384 275.181 356.662 270.659 354.79 265.875C352.993 261.091 351.084 256.195 349.062 251.187C347.041 246.179 345.094 241.358 343.222 236.723C341.351 232.014 339.591 227.642 337.944 223.605C336.297 219.569 334.874 216.13 333.676 213.29C335.398 213.439 337.083 213.589 338.73 213.738C340.452 213.813 342.137 213.851 343.784 213.851C345.431 213.851 347.078 213.813 348.725 213.738C350.373 213.589 352.02 213.439 353.667 213.29C354.94 217.476 356.363 221.886 357.935 226.52C359.582 231.155 361.267 235.901 362.989 240.76C364.711 245.544 366.47 250.365 368.267 255.224C370.139 260.082 371.936 264.866 373.658 269.575Z" fill="black"/>
<path d="M408.798 215.196C408.798 212.729 409.659 210.636 411.381 208.917C413.103 207.198 415.199 206.338 417.67 206.338C420.141 206.338 422.238 207.198 423.96 208.917C425.682 210.636 426.543 212.729 426.543 215.196C426.543 217.663 425.682 219.756 423.96 221.475C422.238 223.194 420.141 224.054 417.67 224.054C415.199 224.054 413.103 223.194 411.381 221.475C409.659 219.756 408.798 217.663 408.798 215.196ZM410.146 261.278C410.146 256.719 410.071 252.458 409.921 248.496C409.846 244.46 409.621 240.424 409.247 236.387C410.295 236.537 411.531 236.686 412.953 236.836C414.376 236.91 415.948 236.948 417.67 236.948C421.189 236.948 423.997 236.761 426.093 236.387C425.719 240.424 425.457 244.46 425.307 248.496C425.232 252.458 425.195 256.719 425.195 261.278V265.763C425.195 270.323 425.232 274.621 425.307 278.657C425.457 282.694 425.719 286.581 426.093 290.318C425.12 290.168 423.885 290.094 422.387 290.094C420.965 290.094 419.392 290.094 417.67 290.094C415.948 290.094 414.376 290.094 412.953 290.094C411.531 290.094 410.295 290.168 409.247 290.318C409.621 286.581 409.846 282.694 409.921 278.657C410.071 274.621 410.146 270.323 410.146 265.763V261.278Z" fill="black"/>
<path d="M463.014 275.63C465.41 269.052 467.694 262.512 469.865 256.009C472.111 249.505 474.32 242.965 476.491 236.387C477.315 236.537 478.101 236.686 478.85 236.836C479.599 236.91 480.347 236.948 481.096 236.948C481.845 236.948 482.594 236.91 483.342 236.836C484.091 236.686 484.915 236.537 485.813 236.387C484.615 239.302 483.155 242.703 481.433 246.59C479.711 250.402 477.877 254.626 475.93 259.26C474.058 263.82 472.111 268.753 470.09 274.06C468.143 279.293 466.309 284.712 464.587 290.318C463.538 290.168 462.528 290.094 461.554 290.094C460.581 290.094 459.57 290.094 458.522 290.094C457.474 290.094 456.463 290.094 455.49 290.094C454.516 290.094 453.505 290.168 452.457 290.318C450.96 286.057 449.275 281.348 447.403 276.191C445.606 271.033 443.809 265.987 442.012 261.054C440.216 256.046 438.531 251.374 436.959 247.039C435.386 242.703 434.076 239.153 433.028 236.387C434.6 236.537 436.098 236.686 437.52 236.836C439.018 236.91 440.478 236.948 441.9 236.948C443.323 236.948 444.708 236.91 446.056 236.836C447.478 236.686 448.901 236.537 450.323 236.387C452.345 242.965 454.367 249.505 456.388 256.009C458.485 262.512 460.618 269.052 462.79 275.63H463.014Z" fill="black"/>
<path d="M495.584 244.572C495.584 237.247 495.509 230.519 495.359 224.39C495.21 218.261 494.985 212.057 494.686 205.778C495.659 205.927 496.894 206.077 498.392 206.226C499.889 206.301 501.462 206.338 503.109 206.338C504.756 206.338 506.328 206.301 507.826 206.226C509.323 206.077 510.559 205.927 511.532 205.778C511.233 212.057 511.008 218.261 510.858 224.39C510.708 230.519 510.633 237.247 510.633 244.572V251.86C510.633 259.185 510.708 265.913 510.858 272.042C511.008 278.171 511.233 284.263 511.532 290.318C510.559 290.168 509.323 290.094 507.826 290.094C506.328 290.094 504.756 290.094 503.109 290.094C501.462 290.094 499.889 290.094 498.392 290.094C496.894 290.094 495.659 290.168 494.686 290.318C494.985 284.263 495.21 278.171 495.359 272.042C495.509 265.913 495.584 259.185 495.584 251.86V244.572Z" fill="black"/>
<path d="M525.494 215.196C525.494 212.729 526.355 210.636 528.077 208.917C529.8 207.198 531.896 206.338 534.367 206.338C536.838 206.338 538.934 207.198 540.656 208.917C542.378 210.636 543.239 212.729 543.239 215.196C543.239 217.663 542.378 219.756 540.656 221.475C538.934 223.194 536.838 224.054 534.367 224.054C531.896 224.054 529.8 223.194 528.077 221.475C526.355 219.756 525.494 217.663 525.494 215.196ZM526.842 261.278C526.842 256.719 526.767 252.458 526.617 248.496C526.543 244.46 526.318 240.424 525.944 236.387C526.992 236.537 528.227 236.686 529.65 236.836C531.072 236.91 532.645 236.948 534.367 236.948C537.886 236.948 540.694 236.761 542.79 236.387C542.416 240.424 542.154 244.46 542.004 248.496C541.929 252.458 541.891 256.719 541.891 261.278V265.763C541.891 270.323 541.929 274.621 542.004 278.657C542.154 282.694 542.416 286.581 542.79 290.318C541.817 290.168 540.581 290.094 539.084 290.094C537.661 290.094 536.089 290.094 534.367 290.094C532.645 290.094 531.072 290.094 529.65 290.094C528.227 290.094 526.992 290.168 525.944 290.318C526.318 286.581 526.543 282.694 526.617 278.657C526.767 274.621 526.842 270.323 526.842 265.763V261.278Z" fill="black"/>
<path d="M592.13 260.718C592.13 254.14 591.306 249.057 589.659 245.469C588.012 241.806 585.279 239.975 581.46 239.975C578.016 239.975 575.283 241.993 573.262 246.03C571.315 250.066 570.342 256.382 570.342 264.978C570.342 268.118 570.529 271.033 570.903 273.724C571.278 276.415 571.877 278.769 572.7 280.788C573.599 282.731 574.722 284.263 576.07 285.385C577.492 286.506 579.252 287.066 581.348 287.066C588.536 287.066 592.13 278.283 592.13 260.718ZM553.72 264.866C553.72 259.858 554.469 255.485 555.966 251.748C557.538 248.01 559.597 244.908 562.143 242.442C564.689 239.9 567.609 238.032 570.903 236.836C574.273 235.565 577.717 234.93 581.236 234.93C589.996 234.93 596.772 237.396 601.564 242.33C606.356 247.263 608.752 253.953 608.752 262.399C608.752 266.959 608.078 271.07 606.73 274.733C605.382 278.396 603.473 281.535 601.002 284.151C598.606 286.693 595.724 288.599 592.354 289.869C588.985 291.14 585.279 291.776 581.236 291.776C577.866 291.776 574.535 291.327 571.24 290.43C568.021 289.533 565.101 288.038 562.48 285.945C559.86 283.777 557.726 280.974 556.078 277.536C554.506 274.098 553.72 269.874 553.72 264.866Z" fill="black"/>
<path d="M620.169 276.527C620.619 277.723 621.18 278.881 621.854 280.003C622.603 281.049 623.501 282.021 624.549 282.918C625.598 283.74 626.833 284.413 628.256 284.936C629.753 285.459 631.475 285.721 633.422 285.721C636.042 285.721 638.064 285.048 639.487 283.703C640.909 282.357 641.62 280.9 641.62 279.33C641.62 277.611 640.984 276.228 639.711 275.181C638.438 274.135 636.829 273.201 634.882 272.378C633.01 271.481 630.951 270.584 628.705 269.687C626.459 268.79 624.362 267.669 622.416 266.324C620.544 264.904 618.971 263.147 617.699 261.054C616.426 258.961 615.789 256.27 615.789 252.981C615.789 249.842 616.351 247.151 617.474 244.908C618.672 242.591 620.207 240.722 622.079 239.302C623.95 237.807 626.047 236.723 628.368 236.051C630.764 235.303 633.122 234.93 635.443 234.93C638.588 234.93 641.358 235.378 643.754 236.275C646.225 237.172 648.733 238.48 651.279 240.199C650.605 241.694 650.044 243.301 649.594 245.021C649.145 246.74 648.808 248.422 648.584 250.066H645.439C645.214 249.169 644.84 248.197 644.316 247.151C643.792 246.03 643.081 244.983 642.182 244.011C641.284 243.04 640.198 242.255 638.925 241.657C637.652 240.984 636.117 240.648 634.32 240.648C632.074 240.648 630.165 241.246 628.593 242.442C627.095 243.638 626.346 245.207 626.346 247.151C626.346 248.945 626.983 250.402 628.256 251.524C629.603 252.57 631.251 253.504 633.197 254.327C635.144 255.149 637.278 255.971 639.599 256.793C641.92 257.616 644.054 258.699 646.001 260.045C647.947 261.316 649.557 262.997 650.83 265.09C652.178 267.183 652.851 269.874 652.851 273.163C652.851 276.452 652.252 279.293 651.054 281.685C649.857 284.002 648.247 285.945 646.225 287.515C644.204 289.01 641.883 290.094 639.262 290.766C636.716 291.439 634.021 291.776 631.176 291.776C627.806 291.776 624.774 291.29 622.079 290.318C619.383 289.346 617.249 288.337 615.677 287.291C616.575 283.703 617.137 280.115 617.362 276.527H620.169Z" fill="black"/>
<path d="M691.561 236.948C691.337 238.069 691.224 239.078 691.224 239.975C691.224 240.947 691.337 241.881 691.561 242.778L681.678 242.554C681.528 244.273 681.379 246.254 681.229 248.496C681.154 250.739 681.079 253.019 681.004 255.336C681.004 257.653 680.967 259.895 680.892 262.063C680.892 264.231 680.892 266.062 680.892 267.557C680.892 271.444 680.967 274.583 681.117 276.975C681.341 279.367 681.678 281.199 682.127 282.469C682.577 283.74 683.213 284.6 684.037 285.048C684.86 285.497 685.908 285.721 687.181 285.721C688.604 285.721 689.652 285.646 690.326 285.497C691 285.272 691.674 284.973 692.347 284.6V289.197C690.85 289.869 688.978 290.467 686.732 290.991C684.486 291.514 682.277 291.776 680.106 291.776C670.597 291.776 665.842 286.095 665.842 274.733C665.842 272.565 665.88 270.136 665.955 267.445C666.03 264.679 666.104 261.876 666.179 259.036C666.329 256.121 666.441 253.28 666.516 250.515C666.591 247.674 666.629 245.058 666.629 242.666L658.767 242.778C658.992 241.881 659.104 240.947 659.104 239.975C659.104 239.078 658.992 238.069 658.767 236.948L666.629 237.284C666.629 234.967 666.591 232.799 666.516 230.781C666.441 228.763 666.329 226.333 666.179 223.493C668.8 222.447 671.383 221.363 673.929 220.241C676.474 219.046 679.02 217.812 681.566 216.541L682.689 217.326C682.539 218.522 682.389 219.942 682.24 221.587C682.165 223.157 682.052 224.838 681.903 226.632C681.828 228.352 681.753 230.146 681.678 232.014C681.678 233.808 681.678 235.527 681.678 237.172L691.561 236.948Z" fill="black"/>
<path d="M727.006 271.593C728.354 268.155 729.589 264.978 730.712 262.063C731.835 259.073 732.884 256.195 733.857 253.43C734.905 250.664 735.878 247.898 736.777 245.133C737.75 242.367 738.724 239.452 739.697 236.387C740.521 236.537 741.269 236.686 741.943 236.836C742.692 236.91 743.441 236.948 744.189 236.948C744.938 236.948 745.687 236.91 746.436 236.836C747.184 236.686 748.008 236.537 748.906 236.387C748.532 237.359 747.634 239.452 746.211 242.666C744.863 245.805 743.179 249.73 741.157 254.439C739.21 259.073 737.039 264.231 734.643 269.912C732.247 275.593 729.814 281.348 727.343 287.178C724.947 292.934 722.589 298.652 720.267 304.333C718.021 310.014 716.037 315.172 714.315 319.806C713.491 319.657 712.705 319.507 711.957 319.358C711.208 319.283 710.422 319.245 709.598 319.245C708.774 319.245 707.988 319.283 707.24 319.358C706.491 319.507 705.705 319.657 704.881 319.806C707.352 314.873 709.785 309.977 712.181 305.118C714.577 300.334 716.898 295.476 719.144 290.542C717.347 286.282 715.326 281.46 713.08 276.078C710.908 270.697 708.737 265.427 706.566 260.269C704.469 255.112 702.523 250.402 700.726 246.142C699.004 241.881 697.693 238.63 696.795 236.387C698.217 236.537 699.603 236.686 700.95 236.836C702.373 236.91 703.795 236.948 705.218 236.948C706.641 236.948 708.026 236.91 709.373 236.836C710.721 236.686 712.106 236.537 713.529 236.387C715.7 242.292 717.872 248.16 720.043 253.99C722.289 259.821 724.61 265.688 727.006 271.593Z" fill="black"/>
<path d="M758.494 244.572C758.494 237.247 758.419 230.519 758.269 224.39C758.119 218.261 757.895 212.057 757.595 205.778C758.568 205.927 759.804 206.077 761.301 206.226C762.799 206.301 764.371 206.338 766.018 206.338C767.665 206.338 769.238 206.301 770.735 206.226C772.233 206.077 773.468 205.927 774.441 205.778C774.142 212.057 773.917 218.261 773.768 224.39C773.618 230.519 773.543 237.247 773.543 244.572V251.86C773.543 259.185 773.618 265.913 773.768 272.042C773.917 278.171 774.142 284.263 774.441 290.318C773.468 290.168 772.233 290.094 770.735 290.094C769.238 290.094 767.665 290.094 766.018 290.094C764.371 290.094 762.799 290.094 761.301 290.094C759.804 290.094 758.568 290.168 757.595 290.318C757.895 284.263 758.119 278.171 758.269 272.042C758.419 265.913 758.494 259.185 758.494 251.86V244.572Z" fill="black"/>
<path d="M801.473 263.521C801.473 266.511 801.772 269.314 802.371 271.93C802.97 274.546 803.868 276.826 805.066 278.769C806.339 280.638 807.912 282.133 809.783 283.254C811.73 284.301 813.976 284.824 816.522 284.824C821.688 284.824 826.293 283.142 830.336 279.778L831.684 280.788L829.213 287.066C827.341 288.487 825.095 289.608 822.474 290.43C819.854 291.327 816.41 291.776 812.142 291.776C808.473 291.776 804.992 291.252 801.697 290.206C798.403 289.234 795.483 287.59 792.937 285.272C790.466 282.955 788.482 280.04 786.985 276.527C785.562 272.939 784.851 268.678 784.851 263.745C784.851 258.886 785.487 254.663 786.76 251.075C788.108 247.487 789.942 244.497 792.263 242.105C794.584 239.713 797.317 237.919 800.462 236.723C803.681 235.527 807.163 234.93 810.906 234.93C818.319 234.93 823.972 237.097 827.865 241.433C831.833 245.768 833.818 251.897 833.818 259.821V262.175C833.818 262.848 833.78 263.296 833.705 263.521H801.473ZM818.768 258.475C818.618 252.869 817.907 248.384 816.634 245.021C815.436 241.657 813.377 239.975 810.457 239.975C808.81 239.975 807.425 240.536 806.302 241.657C805.179 242.778 804.28 244.236 803.606 246.03C802.933 247.749 802.408 249.73 802.034 251.972C801.735 254.14 801.547 256.307 801.473 258.475H818.768Z" fill="black"/>
<path fill-rule="evenodd" clip-rule="evenodd" d="M233.838 307.098C265.78 307.098 291.675 281.264 291.675 249.397C291.675 217.53 265.78 191.696 233.838 191.696C201.895 191.696 176 217.53 176 249.397C176 281.264 201.895 307.098 233.838 307.098Z" fill="url(#paint0_radial)"/>
<mask id="mask0" mask-type="alpha" maskUnits="userSpaceOnUse" x="176" y="191" width="116" height="117">
<path fill-rule="evenodd" clip-rule="evenodd" d="M233.838 307.098C265.78 307.098 291.675 281.264 291.675 249.397C291.675 217.53 265.78 191.696 233.838 191.696C201.895 191.696 176 217.53 176 249.397C176 281.264 201.895 307.098 233.838 307.098Z" fill="white"/>
</mask>
<g mask="url(#mask0)">
<path fill-rule="evenodd" clip-rule="evenodd" d="M258.261 262.56C204.615 189.356 172.391 180.625 172.391 180.625C141.659 179.062 150.569 245.758 150.569 245.758C150.569 245.758 194.503 239.446 258.261 312.613V262.56Z" fill="#D15430"/>
<path fill-rule="evenodd" clip-rule="evenodd" d="M258.165 262.56C311.812 189.356 344.035 180.625 344.035 180.625C374.768 179.062 365.857 245.758 365.857 245.758C365.857 245.758 321.923 239.446 258.165 312.613V262.56Z" fill="#73281B"/>
<path fill-rule="evenodd" clip-rule="evenodd" d="M258.261 271.497C197.459 200.386 159.543 205.667 159.543 205.667L154.838 221.205C154.838 221.205 193.439 212.774 258.261 286.362V271.497Z" fill="#D5663F"/>
<path fill-rule="evenodd" clip-rule="evenodd" d="M258.165 271.497C318.967 200.386 356.883 205.667 356.883 205.667L361.589 221.205C361.589 221.205 322.987 212.774 258.165 286.362V271.497Z" fill="#C5542C"/>
<path fill-rule="evenodd" clip-rule="evenodd" d="M258.261 262.555C204.56 189.227 172.304 180.481 172.304 180.481C141.541 178.916 158.155 206.383 158.155 206.383C158.155 206.383 201.112 204.33 258.261 272.034V262.555Z" fill="white"/>
<path fill-rule="evenodd" clip-rule="evenodd" d="M258.165 262.555C311.866 189.227 344.122 180.481 344.122 180.481C374.885 178.916 358.271 206.383 358.271 206.383C358.271 206.383 315.315 204.33 258.165 272.034V262.555Z" fill="white"/>
</g>
<defs>
<radialGradient id="paint0_radial" cx="0" cy="0" r="1" gradientUnits="userSpaceOnUse" gradientTransform="translate(203.509 202.555) rotate(52.6725) scale(114.932 115.004)">
<stop stop-color="#0B64AC"/>
<stop offset="1" stop-color="#1A1194"/>
</radialGradient>
</defs>
</svg>
