<svg xmlns="http://www.w3.org/2000/svg" viewBox="0 0 733 657"><rect x="275.27" y="115.17" width="391.64" height="506.83" style="fill:none;stroke:#000;stroke-miterlimit:10"/><rect x="67.09" y="83.25" width="380.94" height="538.75" style="fill:none;stroke:#000;stroke-miterlimit:10"/><path d="M535.78,83.9c-3.78,3.93-10.65,7.79-16.53,9.78l-1.16.47L515.67,92l.5-.47V74.94l-.11-1.16L519,74l-.14,1V91c6.1-2,12.59-6.13,15.72-9.62Z"/><path d="M562.17,77.16l-.63.47c-2.64,8-7.41,13.78-15.86,17.77l-2.06-2a27.7,27.7,0,0,0,9.79-6.62c-1.72-1.11-3.6-2.19-5.65-3.27l1.44-1.89c2.19,1.14,4.1,2.22,5.82,3.27A22.49,22.49,0,0,0,558.6,78h-9.32a31.24,31.24,0,0,1-6.49,6.65l-2-1.72c4.55-3.27,8.21-8.18,9.29-11.86l2.72,1-.53.92c-.44.94-.92,1.86-1.44,2.74h8.29l.5-.47Z"/><path d="M570.8,82.59h17.69l1.61-.08v2.77l-1.61-.11H570.8l-1.61.11V82.51Z"/><path d="M619.32,78.77v2.52l-1.72-.08h-3.49v2.35c0,5.8-3,9.73-8.65,11.73l-2.05-1.94c5.38-1.69,8.15-4.63,8.15-9.81V81.21h-8v4l.14,1.94h-2.83l.14-1.94v-4H597.2l-1.75.08V78.77l1.75.08H601V74.22l-.09-1.16,2.78.22-.14,1v4.57h8V74.22l-.09-1.16,2.78.22-.14,1v4.57h3.49Z"/><path d="M644.3,73.5l-.74.75a40.18,40.18,0,0,1-5.66,5.32l0,13.39.08,2.52h-3l.12-2.43.25-11.59A60.74,60.74,0,0,1,625,87.2l-1.72-2.14C631,82,638,77.27,642,71.86Z"/><path d="M674.47,92.32l-1.94,2.08a36.13,36.13,0,0,0-8.68-7.59A33.88,33.88,0,0,1,653,94.51L651,92.46c7.7-3,13.86-9.2,16-15.08h-11.4l-1.94.14V74.86l1.94.11h12.12l.61-.42,2.49,1.69-.72.56a28.78,28.78,0,0,1-4.68,8.2A42.82,42.82,0,0,1,674.47,92.32Zm-2.24-17.55h-1.64V70.48h1.64Zm3-4.29v4.29h-1.63V70.48Z"/><path d="M81.24,56.58H71.12L69,61.85H65.74l8.9-20.91h3.11l9,20.91H83.43Zm-5.1-13.09h-.06c-.33,1.06-1,2.89-1.38,3.8l-2.64,6.85h8.18L77.5,47.29C77.14,46.43,76.47,44.55,76.14,43.49Z"/><path d="M98,57.27H88.12V54.8l8.59-13.86h4.08V54.8h2.8v2.47h-2.8v4.58H98ZM98.1,42.8H98c-.47,1-1.49,2.94-2.38,4.41l-4.6,7.59H98V49C98,47.18,98,45,98.1,42.8Z"/></svg>